<?xml version="1.0" encoding="UTF-8" standalone="no"?>
<!-- Created with Inkscape (http://www.inkscape.org/) -->

<svg
   width="270.01526"
   height="363.71204"
   viewBox="0 0 71.441537 96.232143"
   version="1.1"
   id="svg1"
   xml:space="preserve"
   xmlns:inkscape="http://www.inkscape.org/namespaces/inkscape"
   xmlns:sodipodi="http://sodipodi.sourceforge.net/DTD/sodipodi-0.dtd"
   xmlns="http://www.w3.org/2000/svg"
   xmlns:svg="http://www.w3.org/2000/svg"><sodipodi:namedview
     id="namedview1"
     pagecolor="#ffffff"
     bordercolor="#000000"
     borderopacity="0.25"
     inkscape:showpageshadow="2"
     inkscape:pageopacity="0.0"
     inkscape:pagecheckerboard="0"
     inkscape:deskcolor="#d1d1d1"
     inkscape:document-units="mm" /><defs
     id="defs1" /><g
     inkscape:label="Layer 1"
     inkscape:groupmode="layer"
     id="layer1"
     transform="translate(-506.77542,-541.7641)"><g
       id="g26"
       transform="translate(-53.135523,141.51251)"><ellipse
         style="fill:#62615c;fill-opacity:1;stroke-width:0.264583"
         id="path25"
         cx="594.7373"
         cy="432.19196"
         rx="20.511578"
         ry="20.020681" /><path
         style="fill:#f1ca16"
         d="m 588.17995,496.23317 c -7.40144,-0.70529 -15.23327,-3.60449 -19.97604,-7.39475 -1.0914,-0.87222 -2.25388,-1.65451 -2.58328,-1.73842 -0.69465,-0.17696 -2.15312,-2.62115 -2.99234,-5.01474 -0.90517,-2.58166 -2.37966,-10.57684 -2.62181,-14.21624 -0.23769,-3.57248 -0.0337,-7.78265 0.63241,-13.05348 0.62519,-4.94699 0.98169,-9.0839 0.80715,-9.36631 -0.16982,-0.27478 0.86782,-7.22802 1.77413,-11.88846 0.73065,-3.75714 2.27216,-8.35969 3.87165,-11.55971 5.35787,-10.71928 10.28052,-15.19963 21.15523,-19.25446 5.00266,-1.86533 7.02602,-2.29281 11.59078,-2.44881 3.14502,-0.10747 4.48347,-0.0387 6.35,0.3261 9.16238,1.79091 16.51567,7.56952 20.50487,16.11383 2.65938,5.696 3.95971,12.14455 4.51134,22.37241 0.3687,6.83608 0.0533,14.70013 -0.97637,24.34856 -1.10453,10.34933 -1.63053,13.28465 -3.03171,16.91802 -0.76838,1.99247 -0.88833,2.14898 -2.1874,2.85412 -0.75594,0.41033 -3.16038,2.12462 -5.34319,3.80955 -4.46379,3.44563 -6.28235,4.59431 -10.84792,6.85201 -3.51742,1.73938 -4.28342,1.91475 -10.31875,2.36235 -4.20151,0.3116 -6.88128,0.306 -10.31875,-0.0216 z m -1.41983,-68.77815 c 1.60643,-3.30789 0.99642,-6.87059 -0.78798,-4.60209 -0.69127,0.87881 -0.93322,2.42785 -0.70788,4.53205 0.21978,2.05226 0.52625,2.0666 1.49586,0.07 z m -5.61768,-1.36873 c 1.30725,-3.38328 1.13089,-5.57614 -0.36926,-4.59129 -0.79988,0.52512 -1.16069,1.89173 -1.17725,4.459 -0.0196,3.03189 0.41189,3.06879 1.54651,0.13229 z"
         id="path20" /></g></g></svg>
