<?xml version="1.0" encoding="UTF-8" standalone="no"?>
<!-- Created with Inkscape (http://www.inkscape.org/) -->

<svg
   width="103.94251mm"
   height="98.12912mm"
   viewBox="0 0 103.94251 98.12912"
   version="1.1"
   id="svg1"
   xml:space="preserve"
   xmlns:inkscape="http://www.inkscape.org/namespaces/inkscape"
   xmlns:sodipodi="http://sodipodi.sourceforge.net/DTD/sodipodi-0.dtd"
   xmlns="http://www.w3.org/2000/svg"
   xmlns:svg="http://www.w3.org/2000/svg"><sodipodi:namedview
     id="namedview1"
     pagecolor="#ffffff"
     bordercolor="#000000"
     borderopacity="0.25"
     inkscape:showpageshadow="2"
     inkscape:pageopacity="0.0"
     inkscape:pagecheckerboard="0"
     inkscape:deskcolor="#d1d1d1"
     inkscape:document-units="mm" /><defs
     id="defs1" /><g
     inkscape:label="Layer 1"
     inkscape:groupmode="layer"
     id="layer1"
     transform="translate(-83.244036,-344.50295)"><g
       id="g18"><ellipse
         style="fill:#fefcfa;fill-opacity:1;stroke-width:0.152994"
         id="path18"
         cx="125.82098"
         cy="408.36765"
         rx="9.7400303"
         ry="7.3543329" /><ellipse
         style="fill:#62615c;fill-opacity:1;stroke-width:0.264583"
         id="ellipse18"
         cx="147.3038"
         cy="375.4487"
         rx="13.670912"
         ry="15.670526" /><path
         style="fill:#f1ca15"
         d="m 141.28467,442.57567 c -2.22544,-0.30892 -4.13478,-0.71772 -5.6482,-1.20929 -2.35623,-0.76534 -7.19301,-3.23108 -8.74593,-4.45859 -3.40701,-2.69309 -4.2454,-8.77921 -1.64209,-11.92031 1.07275,-1.29435 3.40076,-2.47375 6.44335,-3.26428 2.47746,-0.6437 3.83761,-0.86444 12.26603,-1.99068 2.19784,-0.29369 4.17601,-0.60302 4.39593,-0.68742 0.66853,-0.25654 1.01435,-1.39864 1.32599,-4.37921 0.3665,-3.50521 0.10891,-4.88033 -1.52373,-8.1343 -1.36651,-2.72354 -3.28941,-5.12652 -5.91536,-7.39223 -3.81328,-3.29014 -6.02278,-4.53078 -10.74557,-6.03365 -3.17233,-1.00949 -3.1795,-1.01042 -8.52446,-1.11079 l -5.34947,-0.10046 -0.17318,-0.92317 c -0.0953,-0.50774 -0.10507,-1.42174 -0.0218,-2.03111 1.26167,-9.2346 1.67256,-11.54971 2.7324,-15.39545 1.76318,-6.39784 6.13959,-14.15067 10.3924,-18.41021 3.45906,-3.46451 6.45767,-5.30347 12.67225,-7.7715 5.49694,-2.18303 8.74054,-2.86819 13.53958,-2.86 6.73357,0.0115 11.98679,1.73138 17.13339,5.60946 9.4107,7.09117 13.3001,18.53704 13.29033,39.11123 -0.005,11.45064 -1.75638,28.68836 -3.41191,33.58952 -1.82202,5.39408 -3.76237,8.44646 -6.58378,10.35702 -0.83068,0.5625 -2.52235,1.71257 -3.75928,2.5557 -4.08193,2.78238 -10.11035,5.14832 -15.875,6.2304 -2.45009,0.4599 -4.25372,0.58656 -9.26042,0.65032 -3.41973,0.0436 -6.57489,0.0296 -7.01145,-0.031 z m 1.48821,-71.09273 c 0.64817,-1.47122 0.772,-2.07234 0.70712,-3.43275 -0.0674,-1.41375 -0.15013,-1.64921 -0.57927,-1.64921 -0.91926,0 -1.59028,1.30522 -1.70379,3.31406 -0.11839,2.09516 0.12152,3.77433 0.52027,3.64141 0.14844,-0.0495 0.62349,-0.89256 1.05567,-1.87351 z m -5.71949,-1.0331 c 1.2939,-3.29794 1.12714,-5.52704 -0.35418,-4.73426 -0.77555,0.41505 -1.10308,1.69087 -1.10308,4.29676 0,2.96313 0.41722,3.08839 1.45726,0.4375 z"
         id="path15" /><path
         style="fill:#8b4cb3"
         d="m 109.91129,438.094 c -3.989,-0.83487 -7.31305,-1.94746 -9.23639,-3.09149 -1.627405,-0.96801 -4.223678,-2.97449 -4.230508,-3.26947 -0.01268,-0.5478 -1.210187,-1.39571 -2.711303,-1.91977 -0.832749,-0.29073 -2.916343,-1.29535 -4.630208,-2.2325 -1.713866,-0.93715 -3.693318,-1.92044 -4.398783,-2.18508 -0.705464,-0.26464 -1.343863,-0.64066 -1.418663,-0.83558 -0.202745,-0.52835 0.355498,-1.05617 1.318197,-1.24636 1.121204,-0.2215 3.343584,-1.76293 4.35335,-3.01945 1.167342,-1.4526 2.306953,-3.84826 2.981826,-6.26832 1.155805,-4.14466 2.883475,-7.15056 6.043519,-10.51488 6.772013,-7.20978 17.440103,-10.70101 27.427343,-8.97585 3.82015,0.65987 5.83371,1.29046 9.0185,2.82432 6.52837,3.1442 11.16217,8.37554 12.67218,14.30629 0.75122,2.95054 0.48485,5.44164 -0.61861,5.78506 -0.23901,0.0744 -2.05068,0.25682 -4.02593,0.4054 -5.07276,0.38159 -11.26059,1.64074 -13.68459,2.78465 -3.0975,1.46175 -5.83204,4.37679 -6.83406,7.28517 -0.72686,2.10973 0.44166,5.48472 2.86584,8.27728 0.74257,0.85541 1.23333,1.63649 1.10403,1.75714 -0.36664,0.34212 -7.19445,1.07237 -9.65173,1.03227 -1.35725,-0.0221 -3.82744,-0.37213 -6.34401,-0.89883 z m 12.99539,-24.33806 c 1.14403,-0.5916 1.87952,-2.2301 1.89096,-4.21262 0.0112,-1.94334 -0.51236,-3.13789 -1.62826,-3.71495 -2.28365,-1.18091 -3.97741,0.44502 -3.97741,3.81813 0,1.9519 0.62576,3.6086 1.55342,4.11266 0.89603,0.48687 1.21448,0.4864 2.16129,-0.003 z m 10.94223,-1.79834 c 0.73998,-0.9952 0.93266,-4.37664 0.33138,-5.81572 -0.69044,-1.65245 -2.58429,-1.98512 -3.484,-0.61199 -1.08599,1.65742 -0.96626,5.46927 0.21115,6.72257 0.80201,0.8537 2.19096,0.71447 2.94147,-0.29486 z"
         id="path14" /></g></g></svg>
