<?xml version="1.0" encoding="UTF-8" standalone="no"?>
<!-- Created with Inkscape (http://www.inkscape.org/) -->

<svg
   width="159.39523mm"
   height="60.718842mm"
   viewBox="0 0 159.39523 60.718842"
   version="1.1"
   id="svg1"
   xml:space="preserve"
   xmlns:inkscape="http://www.inkscape.org/namespaces/inkscape"
   xmlns:sodipodi="http://sodipodi.sourceforge.net/DTD/sodipodi-0.dtd"
   xmlns="http://www.w3.org/2000/svg"
   xmlns:svg="http://www.w3.org/2000/svg"><sodipodi:namedview
     id="namedview1"
     pagecolor="#ffffff"
     bordercolor="#000000"
     borderopacity="0.25"
     inkscape:showpageshadow="2"
     inkscape:pageopacity="0.0"
     inkscape:pagecheckerboard="0"
     inkscape:deskcolor="#d1d1d1"
     inkscape:document-units="mm" /><defs
     id="defs1" /><g
     inkscape:label="Layer 1"
     inkscape:groupmode="layer"
     id="layer1"
     transform="translate(31.129796,-644.6627)"><path
       d="m -31.129797,676.27751 v -29.10417 h 1.5681 c 1.270944,0 1.591029,0.0877 1.689099,0.46302 0.115238,0.44098 0.122462,0.44098 0.151692,0 0.0237,-0.35745 0.268427,-0.46302 1.073411,-0.46302 0.573495,0 1.12751,0.1372 1.231144,0.30488 0.13666,0.22112 -0.131625,0.26016 -0.976573,0.14209 -0.955024,-0.13346 -1.04578,-0.1135 -0.50354,0.11073 0.623381,0.25778 1.465563,0.22309 2.851338,-0.11743 0.348087,-0.0855 0.53675,-0.0418 0.446913,0.10353 -0.211428,0.3421 0.58316,0.17569 1.861124,-0.38977 4.909178,-2.17215 13.0536264,-2.90429 19.4650844,-1.74981 1.64161495,0.2956 3.708072,0.53931 4.592126,0.54158 0.884055,0.002 2.321748,0.17663 3.194872,0.38745 1.204818,0.29092 3.596577,0.38715 9.9218746,0.39921 4.583906,0.009 8.832123,0.13079 9.440482,0.27122 1.14013,0.26317 6.351533,-0.0318 10.006393,-0.56641 3.104932,-0.45415 20.448638,-0.5891 23.537888,-0.18315 3.8181,0.50174 11.74967,0.43125 15.488159,-0.13763 1.67348,-0.25466 3.83954,-0.57676 4.81346,-0.71579 0.97392,-0.13903 3.87766,-0.25278 6.45277,-0.25278 2.5751,0 6.02968,-0.14048 7.67685,-0.31218 2.35222,-0.24519 3.14823,-0.24228 3.70971,0.0135 0.5735,0.26131 0.75657,0.25824 0.92576,-0.0155 0.15877,-0.25689 1.33068,-0.34198 4.7415,-0.34427 4.01157,-0.003 4.5694,0.05 4.86934,0.45999 0.41466,0.56681 0.7901,0.60951 0.58159,0.0661 -0.11767,-0.30665 0.0603,-0.39688 0.78284,-0.39688 0.51432,0 1.19519,0.14121 1.51305,0.31379 0.31785,0.17258 1.47089,0.33465 2.56229,0.36015 2.46157,0.0575 2.38125,0.0404 2.38125,0.50604 0,0.26503 0.2489,0.36881 0.79323,0.33073 0.43627,-0.0305 0.79346,-0.15937 0.79375,-0.28633 2.8e-4,-0.12696 0.18199,-0.0802 0.40379,0.10385 0.2218,0.18407 0.47977,0.25818 0.57326,0.16468 0.0935,-0.0935 0.0113,-0.16999 -0.18278,-0.16999 -0.19403,0 -0.29142,-0.0614 -0.21642,-0.13635 0.075,-0.075 0.52845,0.0285 1.00769,0.23001 0.54389,0.22869 0.73294,0.41547 0.50305,0.49701 -0.57562,0.20418 -0.17614,0.4373 0.87015,0.50776 0.65802,0.0443 0.91286,0.17116 0.82161,0.40895 -0.0761,0.19821 0.055,0.3447 0.30852,0.3447 0.28222,0 0.36932,-0.11898 0.2421,-0.33073 -0.13501,-0.22472 -0.0552,-0.21434 0.24897,0.0324 0.46867,0.38016 0.61937,0.70027 0.21081,0.44776 -0.13028,-0.0805 -0.30459,0.0301 -0.38736,0.24579 -0.0828,0.2157 -0.0655,0.36385 0.0384,0.32921 0.251,-0.0837 1.37954,1.05527 1.37954,1.39224 0,0.14552 0.20836,0.26276 0.46302,0.26053 0.3957,-0.003 0.40532,-0.0413 0.0661,-0.26053 -0.25352,-0.16384 -0.27987,-0.25794 -0.0729,-0.26053 0.17817,-0.002 0.50699,0.34994 0.73073,0.78259 0.36032,0.69679 0.3611,0.76911 0.007,0.63315 -0.22,-0.0844 -0.4,-0.0217 -0.4,0.1394 0,0.26295 0.19337,0.33783 0.69802,0.27029 0.36138,-0.0484 0.57991,0.68405 0.30348,1.01713 -0.21263,0.25619 -0.20854,0.43342 0.0151,0.6571 0.23199,0.23199 0.31081,0.21323 0.32493,-0.0774 0.0102,-0.211 0.19019,0.0847 0.39987,0.65722 0.2919,0.79694 0.30702,1.08673 0.0645,1.2366 -0.24276,0.15004 -0.23589,0.29313 0.0294,0.61279 0.2317,0.27917 0.24794,0.41704 0.0491,0.41704 -0.16334,0 -0.29698,0.19248 -0.29698,0.42773 0,0.29747 0.16116,0.38559 0.52917,0.28935 0.33248,-0.0869 0.52917,-0.008 0.52917,0.21209 0,0.19275 0.0708,0.56856 0.15725,0.83512 0.10764,0.33177 0.0816,0.38001 -0.0824,0.15294 -0.15408,-0.21329 -0.24756,0.23541 -0.26185,1.25677 -0.0191,1.36868 0.0445,1.5885 0.46,1.5885 0.41093,0 0.48188,0.2249 0.47988,1.52135 -0.003,1.93767 0.10042,2.71198 0.36212,2.71198 0.11434,0 0.20789,0.17486 0.20789,0.38857 0,0.2367 -0.15512,0.32905 -0.39688,0.23628 -0.21828,-0.0838 -0.39687,-0.0332 -0.39687,0.11229 0,0.14552 0.1814,0.33419 0.40312,0.41927 0.27414,0.1052 0.36153,0.38402 0.27315,0.87142 -0.0715,0.3942 -0.001,0.87187 0.15616,1.06149 0.18058,0.21759 0.24815,1.37051 0.18318,3.12563 -0.0566,1.52949 -0.0106,2.78088 0.10218,2.78088 0.11282,0 0.20512,0.35719 0.20512,0.79375 0,0.43657 -0.10592,0.79375 -0.23538,0.79375 -0.12945,0 -0.2211,0.9525 -0.20365,2.11667 0.0321,2.14046 0.31608,2.83727 0.51222,1.25677 0.10506,-0.84662 0.10737,-0.84458 0.14905,0.13229 0.0309,0.72438 -0.0648,0.99219 -0.35453,0.99219 -0.21828,0 -0.39687,0.1318 -0.39687,0.29289 0,0.16655 0.19333,0.2187 0.44818,0.12091 0.4212,-0.16163 0.4212,-0.14216 0,0.32325 -0.50283,0.55563 -0.59388,1.52292 -0.16811,1.78607 0.16066,0.0993 0.2081,0.50077 0.11127,0.94165 -0.0999,0.45486 -0.0591,0.76856 0.10004,0.76856 0.14786,0 0.31686,-0.38695 0.37555,-0.85989 0.1268,-1.02172 0.26776,5.69897 0.30033,14.31903 0.0234,6.1785 0.0229,6.18327 -0.57195,6.4096 -0.74029,0.28166 -0.79748,0.88335 -0.0658,0.69201 0.29124,-0.0762 0.46281,-0.0305 0.38126,0.10143 -0.0882,0.14263 -32.3814,0.23991 -79.639949,0.23991 h -79.491704 z m 152.310647,1.52135 c -0.0734,-0.1819 -0.13346,-0.0331 -0.13346,0.33073 0,0.36381 0.06,0.51263 0.13346,0.33073 0.0734,-0.1819 0.0734,-0.47955 0,-0.66146 z m 0.033,-1.57704 c 0.0175,-0.61627 -0.0429,-0.74337 -0.22027,-0.46302 -0.30773,0.48651 -0.32548,1.31246 -0.0282,1.31246 0.12338,0 0.23519,-0.38225 0.24847,-0.84944 z m 0.33312,-2.23826 c -0.15641,-1.33785 -0.80591,-1.94648 -0.80591,-0.75519 0,0.3987 0.11369,0.62885 0.26458,0.5356 0.15436,-0.0954 0.26458,0.17364 0.26458,0.64584 0,0.44515 0.0948,0.80937 0.2106,0.80937 0.11583,0 0.1456,-0.55603 0.0661,-1.23562 z m -1.27185,-0.74075 c 0.0687,-0.3594 0.0231,-0.5905 -0.10145,-0.51355 -0.21922,0.13548 -0.32964,1.167 -0.12492,1.167 0.0558,0 0.15766,-0.29405 0.22637,-0.65345 z m 2.20912,-0.3374 c -0.28903,-0.28903 -0.48723,0.17062 -0.27971,0.64871 0.19676,0.45333 0.21102,0.45291 0.32065,-0.009 0.0631,-0.26605 0.0447,-0.55378 -0.0409,-0.63941 z m -0.7069,-1.58011 c 0.0606,-0.0412 -0.14772,-0.0749 -0.46302,-0.0749 -0.35241,0 -0.57326,0.16538 -0.57326,0.42927 0,0.36745 0.0667,0.37823 0.46302,0.0749 0.25466,-0.19492 0.51263,-0.3881 0.57326,-0.42927 z m 0.0221,-0.9853 c 0,-0.42138 -0.48005,-0.81439 -0.71175,-0.58269 -0.21765,0.21766 0.12211,0.96395 0.43886,0.96395 0.15009,0 0.27289,-0.17157 0.27289,-0.38126 z m 5.02708,-3.58749 c 0,-0.14552 -0.11906,-0.26458 -0.26458,-0.26458 -0.14552,0 -0.26458,0.11906 -0.26458,0.26458 0,0.14552 0.11906,0.26458 0.26458,0.26458 0.14552,0 0.26458,-0.11906 0.26458,-0.26458 z M 95.87027,645.32126 c 0,-0.14552 -0.26789,-0.25621 -0.59531,-0.24599 -0.56803,0.0178 -0.57106,0.029 -0.0661,0.24599 0.29104,0.12506 0.55893,0.23576 0.59531,0.24599 0.0364,0.0102 0.0661,-0.10047 0.0661,-0.24599 z m 13.67881,-0.0969 c 0.0923,-0.0923 -0.20931,-0.16772 -0.67012,-0.16772 -0.46082,0 -0.83785,0.10857 -0.83785,0.24128 0,0.26125 1.23332,0.20109 1.50797,-0.0736 z m 17.03375,18.19879 c 0.0127,-0.30822 0.0754,-0.37092 0.15985,-0.15985 0.0764,0.19099 0.067,0.4192 -0.0209,0.50712 -0.0879,0.0879 -0.15045,-0.0684 -0.13897,-0.34727 z m -4.3672,-14.27113 c -0.28042,-0.21215 -0.44836,-0.44722 -0.37321,-0.52238 0.0752,-0.0752 0.35281,0.10221 0.61701,0.39414 0.5626,0.62168 0.47165,0.66951 -0.2438,0.12824 z m -10.25538,-4.01152 c 0.19099,-0.0764 0.41919,-0.067 0.50711,0.0209 0.0879,0.0879 -0.0684,0.15045 -0.34726,0.13896 -0.30823,-0.0127 -0.37092,-0.0754 -0.15985,-0.15985 z"
       style="fill:#61605b"
       id="path1-6" /></g></svg>
