<?xml version="1.0" encoding="UTF-8" standalone="no"?>
<!-- Created with Inkscape (http://www.inkscape.org/) -->

<svg
   width="64.324112mm"
   height="75.099358mm"
   viewBox="0 0 64.324112 75.099358"
   version="1.1"
   id="svg1"
   xml:space="preserve"
   xmlns:inkscape="http://www.inkscape.org/namespaces/inkscape"
   xmlns:sodipodi="http://sodipodi.sourceforge.net/DTD/sodipodi-0.dtd"
   xmlns="http://www.w3.org/2000/svg"
   xmlns:svg="http://www.w3.org/2000/svg"><sodipodi:namedview
     id="namedview1"
     pagecolor="#ffffff"
     bordercolor="#000000"
     borderopacity="0.25"
     inkscape:showpageshadow="2"
     inkscape:pageopacity="0.0"
     inkscape:pagecheckerboard="0"
     inkscape:deskcolor="#d1d1d1"
     inkscape:document-units="mm" /><defs
     id="defs1" /><g
     inkscape:label="Layer 1"
     inkscape:groupmode="layer"
     id="layer1"
     transform="translate(84.097673,-443.1747)"><g
       id="g12"><ellipse
         style="fill:#fefcfa;fill-opacity:1;stroke-width:0.206155"
         id="ellipse8"
         cx="-36.996296"
         cy="494.39337"
         rx="15.201874"
         ry="10.746893" /><path
         style="fill:#8b4cb3"
         d="m -62.322162,517.49447 c -1.309687,-0.4288 -2.544955,-0.78671 -2.74504,-0.79537 -1.138923,-0.0493 -3.583728,-1.54088 -5.241398,-3.19788 -1.065248,-1.06482 -2.12797,-1.87976 -2.596895,-1.9914 -0.436563,-0.10394 -2.817813,-1.21662 -5.291667,-2.47262 -2.473854,-1.256 -4.794877,-2.40092 -5.157829,-2.54426 -0.95286,-0.3763 -0.996516,-1.11761 -0.08653,-1.46936 2.133543,-0.82471 3.656249,-1.77038 4.674827,-2.90328 1.333844,-1.48356 2.61348,-3.98033 3.188982,-6.22221 2.544917,-9.91379 11.451384,-17.65427 22.857331,-19.86496 3.001659,-0.58178 8.174988,-0.59192 11.304412,-0.0222 10.606543,1.93108 18.990538,8.70829 21.194823,17.13287 0.590577,2.25713 0.597754,6.21828 0.01533,8.45829 -0.619439,2.38234 -2.275356,5.63936 -3.86808,7.6081 -0.736387,0.91024 -1.338885,1.76187 -1.338885,1.89251 0,0.42424 -2.848085,2.14106 -3.55187,2.14106 -0.376238,0 -2.304457,0.59625 -4.284932,1.32501 -7.366172,2.71055 -11.503112,3.44644 -20.209031,3.59481 l -6.482292,0.11048 z m 20.95213,-17.38358 c 1.594006,-1.29013 2.332406,-2.999 2.325071,-5.38087 -0.0047,-1.53862 -0.139597,-2.24374 -0.593092,-3.10103 -1.324065,-2.50301 -3.96835,-4.05206 -5.97241,-3.49872 -1.399993,0.38656 -2.191318,1.16405 -3.134271,3.07946 -1.522054,3.09173 -1.302582,6.63314 0.516332,8.33158 1.332006,1.24378 2.17482,1.54562 4.08143,1.46169 1.520739,-0.0669 1.913182,-0.19301 2.77694,-0.89211 z m 13.924118,-0.3926 c 0.317855,-0.16298 0.962201,-0.66 1.431879,-1.10448 2.409359,-2.28012 2.334438,-8.08459 -0.139698,-10.82317 -1.215069,-1.34493 -2.126332,-1.79894 -3.610777,-1.79894 -1.634785,0 -3.142519,1.31946 -3.716555,3.25245 -0.453496,1.52708 -0.526974,5.40214 -0.129563,6.83284 0.804763,2.89721 3.96986,4.76673 6.164714,3.6413 z m -9.875814,-27.55107 c -1.963362,-1.33625 -2.501303,-3.15189 -1.724865,-5.8217 0.494938,-1.70187 0.918239,-2.04965 2.494706,-2.04965 0.824912,0 1.287318,0.19386 2.04118,0.85576 1.186545,1.0418 1.689587,2.17083 1.689587,3.79211 0,3.07343 -2.300317,4.72099 -4.500608,3.22348 z m -3.835266,-10.08546 c -0.973129,-1.48519 -3.04121,-12.04274 -3.04121,-15.52538 0,-2.85819 0.345156,-3.25256 2.947849,-3.36822 2.352189,-0.10452 3.326311,0.37988 4.250175,2.11348 0.581982,1.09207 0.608144,1.41765 0.693884,8.63527 0.08884,7.47871 0.08737,7.50226 -0.507942,8.13594 -0.507864,0.5406 -0.846116,0.63552 -2.264612,0.63552 -1.462051,0 -1.718173,-0.0772 -2.078144,-0.62661 z"
         id="path3" /></g></g></svg>
