<?xml version="1.0" encoding="UTF-8" standalone="no"?>
<!-- Created with Inkscape (http://www.inkscape.org/) -->

<svg
   width="242.91968"
   height="160.99976"
   viewBox="0 0 64.272498 42.597852"
   version="1.1"
   id="svg1"
   xml:space="preserve"
   xmlns:inkscape="http://www.inkscape.org/namespaces/inkscape"
   xmlns:sodipodi="http://sodipodi.sourceforge.net/DTD/sodipodi-0.dtd"
   xmlns="http://www.w3.org/2000/svg"
   xmlns:svg="http://www.w3.org/2000/svg"><sodipodi:namedview
     id="namedview1"
     pagecolor="#ffffff"
     bordercolor="#000000"
     borderopacity="0.25"
     inkscape:showpageshadow="2"
     inkscape:pageopacity="0.0"
     inkscape:pagecheckerboard="0"
     inkscape:deskcolor="#d1d1d1"
     inkscape:document-units="mm" /><defs
     id="defs1" /><g
     inkscape:label="Layer 1"
     inkscape:groupmode="layer"
     id="layer1"
     transform="translate(-369.88342,-547.50647)"><g
       id="g25"
       transform="translate(5.7566412,15.328295)"><ellipse
         style="fill:#fefcfa;fill-opacity:1;stroke-width:0.150367"
         id="ellipse25"
         cx="407.7746"
         cy="547.19763"
         rx="11.440713"
         ry="11.593239" /><path
         style="fill:#8b4cb3"
         d="m 387.30738,574.4517 c -0.65484,-0.2136 -2.22818,-0.673 -3.4963,-1.02089 -1.26812,-0.34789 -2.57453,-0.82084 -2.90314,-1.051 -0.32861,-0.23017 -0.72904,-0.41849 -0.88985,-0.41849 -0.16081,0 -1.11659,-0.82387 -2.12394,-1.83082 -1.09017,-1.08974 -2.15286,-1.90675 -2.62531,-2.01838 -0.43656,-0.10316 -2.81781,-1.2149 -5.29167,-2.47055 -2.47385,-1.25564 -4.79557,-2.4012 -5.15937,-2.54568 -1.12583,-0.44711 -0.84713,-1.22949 0.62565,-1.75641 3.46826,-1.24085 5.98925,-4.35804 7.14969,-8.84052 2.52896,-9.76882 11.11974,-17.39625 22.22839,-19.73574 3.44299,-0.7251 8.79243,-0.78386 12.12053,-0.13314 10.64515,2.08136 18.88359,8.78658 21.01776,17.10624 0.58107,2.26521 0.58673,6.23974 0.0121,8.46667 -0.60747,2.35401 -2.57869,6.20515 -4.01874,7.85134 -0.65537,0.74919 -1.19303,1.46202 -1.19479,1.58406 -0.007,0.45331 -2.94056,2.20627 -3.69274,2.20627 -0.42104,0 -2.17271,0.52573 -3.89261,1.16828 -7.4785,2.79399 -11.95287,3.60579 -20.58958,3.73563 -4.82589,0.0725 -6.33184,0.0111 -7.27604,-0.29687 z m 16.61476,-22.74942 c 0.3261,-0.22841 0.87824,-0.97255 1.22697,-1.65365 0.34872,-0.68109 0.8911,-1.39368 1.20528,-1.58352 0.31418,-0.18984 0.74491,-0.76085 0.95719,-1.26891 0.51437,-1.23104 0.10448,-2.07732 -1.48336,-3.06262 -2.29585,-1.42464 -2.18678,-1.40531 -4.22741,-0.74916 -2.51702,0.80933 -3.30385,1.70301 -3.0899,3.50951 0.0858,0.72437 0.0231,1.56014 -0.14456,1.92819 -0.41162,0.90339 0.0774,1.87913 1.17326,2.34096 2.43756,1.02729 3.4992,1.15791 4.38253,0.5392 z m 10.94533,-1.59671 c 1.09502,-0.69101 1.80866,-1.5875 1.80866,-2.27205 0,-0.25419 0.24436,-0.93097 0.54303,-1.50397 0.50075,-0.96071 0.51267,-1.11445 0.15313,-1.97495 -0.41597,-0.99556 -1.5631,-1.76203 -2.63715,-1.76203 -0.35439,0 -0.98538,-0.17786 -1.4022,-0.39524 -0.91356,-0.47646 -1.52685,-0.50068 -2.2966,-0.0907 -0.93628,0.49867 -1.22152,1.06721 -1.23937,2.47033 -0.009,0.72854 -0.19137,1.55367 -0.40529,1.83651 -0.49166,0.65003 -0.49494,1.55574 -0.009,2.49538 0.51932,1.00426 1.09602,1.43752 2.37178,1.78186 1.27157,0.34321 1.79905,0.24407 3.11304,-0.58513 z"
         id="path19" /></g></g></svg>
