<?xml version="1.0" encoding="UTF-8" standalone="no"?>
<!-- Created with Inkscape (http://www.inkscape.org/) -->

<svg
   width="161.92674mm"
   height="71.94677mm"
   viewBox="0 0 161.92674 71.94677"
   version="1.1"
   id="svg1"
   xml:space="preserve"
   xmlns:inkscape="http://www.inkscape.org/namespaces/inkscape"
   xmlns:sodipodi="http://sodipodi.sourceforge.net/DTD/sodipodi-0.dtd"
   xmlns="http://www.w3.org/2000/svg"
   xmlns:svg="http://www.w3.org/2000/svg"><sodipodi:namedview
     id="namedview1"
     pagecolor="#ffffff"
     bordercolor="#000000"
     borderopacity="0.25"
     inkscape:showpageshadow="2"
     inkscape:pageopacity="0.0"
     inkscape:pagecheckerboard="0"
     inkscape:deskcolor="#d1d1d1"
     inkscape:document-units="mm" /><defs
     id="defs1" /><g
     inkscape:label="Layer 1"
     inkscape:groupmode="layer"
     id="layer1"
     transform="translate(-281.12907,-543.26775)"><path
       d="m 281.48002,612.9854 c 0.035,-1.22603 -0.0297,-2.1715 -0.1437,-2.10105 -0.114,0.0704 -0.20726,-2.02909 -0.20726,-4.66564 0,-2.63655 0.0979,-4.73323 0.21754,-4.65928 0.11965,0.074 0.17717,-1.02036 0.12782,-2.43178 -0.1367,-3.91045 0.14894,-7.45779 0.587,-7.28969 0.25321,0.0972 0.34978,-0.096 0.33355,-0.66703 -0.0142,-0.4991 -0.18324,-0.84675 -0.44595,-0.91711 -0.35439,-0.0949 -0.34791,-0.11829 0.0399,-0.144 0.32906,-0.0218 0.46303,-0.25583 0.46303,-0.80883 0,-0.8141 -0.403,-1.31793 -0.59579,-0.74486 -0.0615,0.18281 -0.12324,-0.0546 -0.1372,-0.52752 -0.0151,-0.51248 0.10458,-0.8599 0.29626,-0.8599 0.39206,0 0.54262,-2.28457 0.16591,-2.51739 -0.30111,-0.18609 -0.3533,-1.45102 -0.0599,-1.45207 0.10914,-3.9e-4 0.20391,-0.94119 0.2106,-2.09066 0.008,-1.41941 0.1356,-2.24193 0.39688,-2.56362 0.21159,-0.26052 0.25779,-0.3978 0.10267,-0.30507 -0.18297,0.10938 -0.28625,-0.26776 -0.29401,-1.07369 -0.0101,-1.05158 0.005,-1.08997 0.0996,-0.2501 0.0614,0.5457 0.22824,0.99219 0.37087,0.99219 0.32368,0 0.2413,-2.13158 -0.0996,-2.57632 -0.138,-0.18005 -0.16428,-0.53724 -0.0584,-0.79375 0.31339,-0.7593 0.39082,-2.18618 0.11864,-2.18618 -0.13856,0 -0.24356,-0.50602 -0.23333,-1.12448 0.0144,-0.87089 0.0699,-1.00514 0.24598,-0.59532 0.1858,0.43238 0.23005,0.35979 0.24194,-0.39687 0.0109,-0.6912 -0.0505,-0.8254 -0.24194,-0.52917 -0.20634,0.3193 -0.25727,0.27745 -0.26053,-0.21405 -0.002,-0.33601 0.11133,-0.53962 0.25234,-0.45247 0.15971,0.0987 0.20081,-0.35674 0.10899,-1.20778 -0.19718,-1.82769 0.0608,-3.17568 0.57039,-2.98014 0.51954,0.19936 0.49294,-0.16924 -0.0404,-0.55919 -0.66264,-0.48454 -0.69246,-6.46716 -0.0355,-7.12506 0.50694,-0.50766 0.61682,-0.81675 0.19844,-0.55818 -0.33485,0.20695 -0.33485,-0.14331 0,-0.66146 0.14107,-0.21828 0.25831,-0.26789 0.26053,-0.11024 0.002,0.15764 0.18076,0.28663 0.39673,0.28663 0.31827,0 0.3308,-0.0765 0.0661,-0.40357 -0.25982,-0.32111 -0.25896,-0.36297 0.004,-0.20487 0.20812,0.12504 0.33073,0.0458 0.33073,-0.21379 0,-0.22687 -0.12609,-0.41249 -0.2802,-0.41249 -0.15411,0 -0.20542,-0.12101 -0.11401,-0.2689 0.0914,-0.1479 0.27702,-0.2004 0.41249,-0.11668 0.21561,0.13326 0.35142,-0.20019 0.28813,-0.7074 -0.0114,-0.0918 0.21257,-0.37816 0.49784,-0.63632 0.28526,-0.25816 0.51866,-0.3914 0.51866,-0.29609 0,0.0953 0.24913,-0.0758 0.55363,-0.38033 0.32838,-0.32837 0.75912,-0.49989 1.0587,-0.42154 0.27779,0.0726 0.43835,0.0241 0.3568,-0.10783 -0.0815,-0.13195 -0.0321,-0.23991 0.10988,-0.23991 0.14198,0 0.30068,0.1276 0.35267,0.28357 0.0566,0.16973 0.35751,0.0798 0.74965,-0.2241 0.82161,-0.63666 2.4595,-0.91836 2.91181,-0.50079 0.26249,0.24232 0.29958,0.20908 0.17182,-0.154 -0.0896,-0.25466 -0.0476,-0.46302 0.0933,-0.46302 0.14095,0 0.25628,0.10518 0.25628,0.23373 0,0.12855 0.23812,0.29599 0.52916,0.3721 0.59594,0.15584 0.68577,-0.0788 0.21167,-0.55291 -0.24695,-0.24694 -0.11465,-0.32637 0.59531,-0.3574 0.50205,-0.0219 1.25303,-0.0126 1.66885,0.0207 0.48482,0.0389 0.69277,-0.0417 0.57969,-0.22468 -0.10685,-0.17289 0.0644,-0.28372 0.4346,-0.28127 0.4915,0.003 0.53334,0.0542 0.21405,0.26054 -0.29333,0.18956 -0.12482,0.25753 0.64588,0.26053 0.97337,0.004 1.00858,-0.0218 0.52917,-0.38441 -0.47339,-0.35806 -0.39969,-0.39279 0.94162,-0.44375 0.80036,-0.0304 2.22911,-0.035 3.175,-0.0102 1.22866,0.0322 1.56867,-0.0247 1.19062,-0.19912 -0.4445,-0.2051 -0.38087,-0.24714 0.39772,-0.26276 0.50978,-0.0102 1.75994,-0.25709 2.77812,-0.54859 2.90177,-0.83074 7.40937,-1.17988 10.56906,-0.81862 4.49846,0.51433 10.84481,0.81965 16.94225,0.8151 5.51184,-0.004 6.11014,-0.0554 11.11702,-0.95226 4.70381,-0.8426 6.04117,-0.97214 12.03854,-1.16609 3.71078,-0.12 7.28266,-0.34341 7.9375,-0.49648 0.65484,-0.15307 1.905,-0.28138 2.77812,-0.28513 0.87313,-0.004 2.59954,-0.19365 3.83646,-0.42198 2.51868,-0.46495 15.84564,-0.95306 16.25865,-0.59549 0.41483,0.35914 0.88933,0.24909 1.43051,-0.3318 0.37695,-0.40461 0.72871,-0.51522 1.33471,-0.41972 0.46214,0.0728 0.75738,0.0237 0.67347,-0.11205 -0.0822,-0.13295 0.0362,-0.24174 0.26309,-0.24174 0.22687,0 0.41249,0.10853 0.41249,0.24118 0,0.25281 0.17936,0.23974 1.41746,-0.10332 0.52878,-0.14652 0.82091,-0.10446 0.97196,0.13994 0.1788,0.28931 0.40002,0.28867 1.28593,-0.004 0.7795,-0.25726 1.16455,-0.27465 1.4183,-0.0641 0.36443,0.30245 1.11024,0.28885 1.42508,-0.026 0.10123,-0.10123 0.31303,-0.18222 0.47068,-0.18 0.15765,0.002 0.10804,0.11947 -0.11024,0.26054 -0.32266,0.20851 -0.28847,0.25723 0.18282,0.26053 0.66667,0.005 1.0401,-0.41489 0.54643,-0.61392 -0.18281,-0.0737 -0.0607,-0.1434 0.27124,-0.15489 0.33199,-0.0115 0.66227,0.13197 0.73397,0.3188 0.15388,0.40101 1.44054,0.5676 1.44054,0.18651 0,-0.14389 0.12608,-0.26162 0.28019,-0.26162 0.15411,0 0.20734,0.1179 0.11828,0.26199 -0.099,0.16024 0.38303,0.26306 1.24116,0.26474 2.24189,0.004 2.80328,0.10248 2.664,0.46546 -0.0871,0.22691 0.17266,0.33073 0.82743,0.33073 0.52489,0 0.95435,-0.11906 0.95435,-0.26458 0,-0.14552 0.18562,-0.26459 0.41249,-0.26459 0.22687,0 0.33891,0.11907 0.24897,0.26459 -0.095,0.15374 0.14784,0.25679 0.5797,0.24598 0.66758,-0.0167 0.68936,-0.044 0.21405,-0.26865 -0.41041,-0.19393 -0.35103,-0.21239 0.26458,-0.0823 0.43657,0.0923 1.24587,0.2103 1.79845,0.26225 0.55258,0.052 1.18616,0.27593 1.40796,0.49773 0.47236,0.47236 0.79636,0.51176 1.03487,0.12584 0.11871,-0.19208 0.27847,-0.18862 0.51929,0.0112 0.20486,0.17002 0.92926,0.23408 1.76238,0.15584 0.77801,-0.0731 1.8908,-0.0323 2.47289,0.0906 0.58208,0.1229 0.9095,0.23715 0.7276,0.25389 -0.1819,0.0167 -0.33073,0.15367 -0.33073,0.30432 0,0.1805 0.19132,0.1715 0.5611,-0.0264 0.39435,-0.21105 0.50765,-0.21382 0.38126,-0.009 -0.10024,0.16219 -0.004,0.29098 0.21704,0.29098 0.21828,0 0.47046,-0.11906 0.56039,-0.26458 0.0899,-0.14552 0.28259,-0.26459 0.42811,-0.26459 0.14552,0 0.17942,0.1378 0.0753,0.30622 -0.1375,0.22248 0.12952,0.2633 0.97657,0.14926 0.64121,-0.0863 1.58255,-0.0577 2.09187,0.0636 0.50932,0.12129 0.77721,0.23271 0.59531,0.24761 -0.74914,0.0614 -0.26101,0.45335 0.59473,0.47761 0.50901,0.0144 0.85917,-0.081 0.77814,-0.21215 -0.17779,-0.28766 0.24254,-0.31957 0.52609,-0.0399 0.11067,0.10914 0.577,0.21019 1.03629,0.22454 1.98823,0.0622 2.28744,0.12009 2.22413,0.43064 -0.0364,0.17844 0.21496,0.36705 0.55853,0.41912 0.39896,0.0605 0.56062,-0.009 0.44741,-0.19215 -0.0975,-0.15776 -0.0512,-0.28684 0.10292,-0.28684 0.15411,0 0.2802,0.12187 0.2802,0.27082 0,0.15434 0.41261,0.22534 0.95939,0.16509 0.76804,-0.0846 0.98528,-0.007 1.08919,0.39064 0.16371,0.62604 0.59111,0.64918 0.61585,0.0334 0.0165,-0.41174 0.0385,-0.41522 0.19844,-0.0314 0.12832,0.30796 0.52092,0.43224 1.37046,0.43383 1.94613,0.004 2.11667,0.0418 2.11667,0.47309 0,0.22687 0.121,0.3377 0.2689,0.2463 0.14789,-0.0914 0.20726,-0.26592 0.13192,-0.38781 -0.0753,-0.1219 0.1,-0.15967 0.38959,-0.0839 0.2896,0.0757 0.46915,0.23058 0.39899,0.3441 -0.0702,0.11352 0.13954,0.21438 0.466,0.22413 1.32383,0.0395 1.52168,0.11403 1.2315,0.46368 -0.21918,0.26409 -0.0608,0.32611 0.73181,0.28663 l 1.0115,-0.0504 0.0672,32.4776 0.0672,32.47761 h -80.8195 -80.81984 z m 0.097,-3.52051 c -0.0671,-0.25743 -0.12639,-0.11086 -0.13178,0.3257 -0.005,0.43656 0.0495,0.64719 0.12197,0.46805 0.0725,-0.17913 0.0769,-0.53631 0.01,-0.79375 z m -0.003,-1.97287 c -0.0845,-0.21107 -0.14715,-0.14837 -0.15985,0.15985 -0.0115,0.27892 0.0511,0.43519 0.13896,0.34727 0.0879,-0.0879 0.0973,-0.31612 0.0209,-0.50712 z m 2.2627,-44.4579 c -0.27325,-0.56718 -0.29205,-0.54838 -0.30886,0.30886 -0.0137,0.6958 0.0555,0.83938 0.29096,0.60395 0.22837,-0.22838 0.23304,-0.46626 0.0179,-0.91281 z m 2.58365,-9.45188 c 0,-0.45838 -0.4657,-0.54318 -0.79617,-0.14499 -0.27209,0.32785 -0.23272,0.39396 0.2346,0.39396 0.30886,0 0.56157,-0.11203 0.56157,-0.24897 z M 415.2063,546.2405 c -0.25466,-0.0666 -0.67138,-0.0666 -0.92604,0 -0.25466,0.0666 -0.0463,0.121 0.46302,0.121 0.50933,0 0.71768,-0.0545 0.46302,-0.121 z m -18.78541,-1.5996 c -0.69123,-0.0545 -1.82232,-0.0545 -2.51355,0 -0.69122,0.0545 -0.12567,0.0991 1.25678,0.0991 1.38244,0 1.94799,-0.0446 1.25677,-0.0991 z m 19.06689,0.54293 c 0.191,-0.0764 0.4192,-0.067 0.50712,0.0209 0.0879,0.0879 -0.0684,0.15046 -0.34726,0.13897 -0.30823,-0.0127 -0.37092,-0.0754 -0.15986,-0.15985 z m -27.07018,-0.8776 c 0.0899,-0.14552 0.28258,-0.26458 0.42811,-0.26458 0.14552,0 0.19099,0.11906 0.10106,0.26458 -0.0899,0.14552 -0.28259,0.26459 -0.42811,0.26459 -0.14552,0 -0.191,-0.11907 -0.10106,-0.26459 z"
       style="fill:#61605b"
       id="path1-2" /></g></svg>
