<?xml version="1.0" encoding="UTF-8" standalone="no"?>
<!-- Created with Inkscape (http://www.inkscape.org/) -->

<svg
   width="45.169739mm"
   height="32.49511mm"
   viewBox="0 0 45.169739 32.49511"
   version="1.1"
   id="svg1"
   xml:space="preserve"
   xmlns:inkscape="http://www.inkscape.org/namespaces/inkscape"
   xmlns:sodipodi="http://sodipodi.sourceforge.net/DTD/sodipodi-0.dtd"
   xmlns="http://www.w3.org/2000/svg"
   xmlns:svg="http://www.w3.org/2000/svg"><sodipodi:namedview
     id="namedview1"
     pagecolor="#ffffff"
     bordercolor="#000000"
     borderopacity="0.25"
     inkscape:showpageshadow="2"
     inkscape:pageopacity="0.0"
     inkscape:pagecheckerboard="0"
     inkscape:deskcolor="#d1d1d1"
     inkscape:document-units="mm" /><defs
     id="defs1" /><g
     inkscape:label="Layer 1"
     inkscape:groupmode="layer"
     id="layer1"
     transform="translate(-205.86322,-522.21019)"><g
       id="g8"
       transform="translate(-217.96306,256.39507)"><path
         style="fill:#d2d1ce"
         d="m 450.98698,298.14897 c 0.19099,-0.0764 0.4192,-0.067 0.50712,0.0209 0.0879,0.0879 -0.0684,0.15045 -0.34727,0.13896 -0.30822,-0.0127 -0.37092,-0.0754 -0.15985,-0.15985 z m 1.50482,-0.61301 c 0.26338,-0.29104 0.53842,-0.52917 0.61118,-0.52917 0.0728,0 -0.0832,0.23813 -0.3466,0.52917 -0.26339,0.29104 -0.53842,0.52917 -0.61118,0.52917 -0.0728,0 0.0832,-0.23813 0.3466,-0.52917 z m -15.45724,-1.47726 c 0.0127,-0.30822 0.0754,-0.37092 0.15985,-0.15985 0.0764,0.191 0.067,0.4192 -0.0209,0.50712 -0.0879,0.0879 -0.15045,-0.0684 -0.13896,-0.34727 z m 0.0512,-1.69774 c 0,-0.65484 0.0516,-0.92273 0.11467,-0.59531 0.0631,0.32742 0.0631,0.8632 0,1.19062 -0.0631,0.32742 -0.11467,0.0595 -0.11467,-0.59531 z m 16.38369,-0.66146 c 0.005,-0.43656 0.0647,-0.58312 0.13177,-0.32569 0.0671,0.25743 0.0627,0.61462 -0.01,0.79375 -0.0725,0.17913 -0.12736,-0.0315 -0.12197,-0.46806 z m -11.65147,-0.39687 c 0,-0.36381 0.06,-0.51263 0.13345,-0.33073 0.0734,0.1819 0.0734,0.47955 0,0.66146 -0.0734,0.1819 -0.13345,0.0331 -0.13345,-0.33073 z m 7.15355,-0.13229 c 0.005,-0.43657 0.0647,-0.58313 0.13177,-0.3257 0.0671,0.25743 0.0627,0.61462 -0.01,0.79375 -0.0725,0.17913 -0.12736,-0.0315 -0.12197,-0.46805 z m -13.33036,-0.0485 c 0.191,-0.0764 0.4192,-0.067 0.50712,0.0209 0.0879,0.0879 -0.0684,0.15046 -0.34726,0.13897 -0.30823,-0.0127 -0.37092,-0.0754 -0.15986,-0.15985 z m 19.69493,-0.27336 c 0.40018,-0.0606 1.05502,-0.0606 1.4552,0 0.40019,0.0606 0.0728,0.11023 -0.7276,0.11023 -0.80036,0 -1.12779,-0.0496 -0.7276,-0.11023 z m -23.50691,-0.93497 -0.50403,-0.59531 0.59531,0.50403 c 0.55945,0.47366 0.71576,0.6866 0.50403,0.6866 -0.0502,0 -0.3181,-0.26789 -0.59531,-0.59532 z m 26.88034,-0.0337 c 0,-0.055 0.20836,-0.26331 0.46302,-0.46303 0.41965,-0.3291 0.42901,-0.31974 0.0999,0.0999 -0.34564,0.44073 -0.56292,0.58089 -0.56292,0.36313 z m -27.49578,-1.37737 c 0.0127,-0.30822 0.0754,-0.37092 0.15986,-0.15985 0.0764,0.191 0.067,0.4192 -0.0209,0.50712 -0.0879,0.0879 -0.15045,-0.0684 -0.13897,-0.34727 z m 10.8991,-1.43316 c 0,-0.65484 0.0516,-0.92273 0.11466,-0.59531 0.0631,0.32742 0.0631,0.8632 0,1.19063 -0.0631,0.32742 -0.11466,0.0595 -0.11466,-0.59532 z m 7.13841,0.13229 c 0.003,-0.58208 0.0571,-0.78905 0.1204,-0.45993 0.0633,0.32912 0.0609,0.80537 -0.005,1.05833 -0.0662,0.25297 -0.118,-0.0163 -0.11506,-0.5984 z m -13.61009,-0.57761 c 0.191,-0.0764 0.4192,-0.067 0.50712,0.0209 0.0879,0.0879 -0.0684,0.15045 -0.34726,0.13896 -0.30823,-0.0127 -0.37092,-0.0754 -0.15986,-0.15985 z m 19.84375,-0.26458 c 0.191,-0.0764 0.4192,-0.067 0.50712,0.0209 0.0879,0.0879 -0.0684,0.15046 -0.34726,0.13897 -0.30823,-0.0127 -0.37092,-0.0754 -0.15986,-0.15985 z m -20.78632,-1.07034 c 0.5457,-0.0571 1.43867,-0.0571 1.98437,0 0.5457,0.0571 0.0992,0.10379 -0.99219,0.10379 -1.0914,0 -1.53789,-0.0467 -0.99218,-0.10379 z m 19.57916,0.0104 c 0.25466,-0.0666 0.67138,-0.0666 0.92604,0 0.25467,0.0665 0.0463,0.121 -0.46302,0.121 -0.50932,0 -0.71768,-0.0545 -0.46302,-0.121 z m -11.90567,-4.44783 c 0.003,-0.58208 0.0571,-0.78905 0.12041,-0.45993 0.0633,0.32912 0.0609,0.80537 -0.005,1.05833 -0.0662,0.25297 -0.11801,-0.0163 -0.11507,-0.5984 z m -7.93009,-0.0625 c 0.69561,-0.0547 1.76717,-0.054 2.38125,0.001 0.61407,0.0555 0.0449,0.10023 -1.26476,0.0994 -1.30969,-8.1e-4 -1.81211,-0.0462 -1.11649,-0.10089 z m 19.8408,0.0115 c 0.25743,-0.0671 0.61462,-0.0627 0.79375,0.01 0.17913,0.0725 -0.0315,0.12736 -0.46806,0.12197 -0.43656,-0.005 -0.58312,-0.0647 -0.32569,-0.13178 z m -16.45446,-1.3186 c -0.0115,-0.31675 -0.22925,-0.63036 -0.48391,-0.69691 -0.43394,-0.1134 -0.43342,-0.12293 0.008,-0.15169 0.51316,-0.0334 0.85009,0.54427 0.63286,1.08506 -0.075,0.1867 -0.14576,0.0803 -0.15725,-0.23646 z m 5.20772,-0.80184 c 0.32911,-0.0633 0.80536,-0.0609 1.05833,0.005 0.25296,0.0662 -0.0163,0.118 -0.5984,0.11507 -0.58208,-0.003 -0.78905,-0.0571 -0.45993,-0.12041 z m 4.23024,-0.25268 c 0.18191,-0.0734 0.47956,-0.0734 0.66146,0 0.1819,0.0734 0.0331,0.13345 -0.33073,0.13345 -0.3638,0 -0.51263,-0.06 -0.33073,-0.13345 z m 7.67601,-0.54107 c 0.32911,-0.0633 0.80536,-0.0609 1.05833,0.005 0.25296,0.0662 -0.0163,0.118 -0.5984,0.11507 -0.58208,-0.003 -0.78905,-0.0571 -0.45993,-0.12041 z m 3.18845,-0.25819 c 0.19099,-0.0764 0.4192,-0.067 0.50712,0.0209 0.0879,0.0879 -0.0684,0.15046 -0.34727,0.13897 -0.30822,-0.0127 -0.37092,-0.0754 -0.15985,-0.15985 z m -13.51619,-4.24356 c 0.4697,-0.0585 1.30313,-0.0594 1.85208,-0.002 0.54895,0.0573 0.16465,0.1051 -0.85399,0.10627 -1.01865,10e-4 -1.46779,-0.0457 -0.99809,-0.10414 z m -7.12131,-0.25436 c 0.19099,-0.0764 0.4192,-0.067 0.50712,0.0209 0.0879,0.0879 -0.0684,0.15045 -0.34727,0.13896 -0.30822,-0.0127 -0.37092,-0.0754 -0.15985,-0.15985 z m 31.33182,-1.14218 c 0,-0.50932 0.0545,-0.71768 0.121,-0.46302 0.0666,0.25466 0.0666,0.67138 0,0.92604 -0.0666,0.25466 -0.121,0.0463 -0.121,-0.46302 z m -11.48807,0.34843 c 0.19099,-0.0764 0.4192,-0.067 0.50712,0.0209 0.0879,0.0879 -0.0684,0.15045 -0.34727,0.13896 -0.30822,-0.0127 -0.37092,-0.0754 -0.15985,-0.15985 z m -13.15867,-0.76735 c 0.0127,-0.30823 0.0754,-0.37092 0.15985,-0.15985 0.0764,0.19099 0.067,0.4192 -0.0209,0.50711 -0.0879,0.0879 -0.15045,-0.0684 -0.13896,-0.34726 z m 22.97784,-2.95452 -0.64144,-0.7276 0.72761,0.64143 c 0.68005,0.59952 0.84894,0.81378 0.64143,0.81378 -0.0474,0 -0.37482,-0.32742 -0.7276,-0.72761 z m -12.20042,-0.24688 c 0.19099,-0.0764 0.4192,-0.067 0.50712,0.0209 0.0879,0.0879 -0.0684,0.15045 -0.34727,0.13896 -0.30822,-0.0127 -0.37092,-0.0754 -0.15985,-0.15985 z m -17.72709,-4.23334 c 0.191,-0.0764 0.4192,-0.067 0.50712,0.0209 0.0879,0.0879 -0.0684,0.15046 -0.34726,0.13897 -0.30823,-0.0127 -0.37092,-0.0754 -0.15986,-0.15986 z m 16.93334,0 c 0.19099,-0.0764 0.4192,-0.067 0.50712,0.0209 0.0879,0.0879 -0.0684,0.15046 -0.34727,0.13897 -0.30822,-0.0127 -0.37092,-0.0754 -0.15985,-0.15986 z m -14.16671,-0.26719 c 0.25743,-0.0671 0.61462,-0.0627 0.79375,0.01 0.17913,0.0725 -0.0315,0.12736 -0.46806,0.12197 -0.43656,-0.005 -0.58312,-0.0647 -0.32569,-0.13177 z m 11.37708,0 c 0.25743,-0.0671 0.61462,-0.0627 0.79375,0.01 0.17913,0.0725 -0.0315,0.12736 -0.46805,0.12197 -0.43657,-0.005 -0.58313,-0.0647 -0.3257,-0.13177 z"
         id="path14" /><path
         style="fill:#b0afac"
         d="m 437.77367,297.33752 c -0.32911,-0.41964 -0.31975,-0.429 0.0999,-0.0999 0.25466,0.19972 0.46302,0.40808 0.46302,0.46302 0,0.21776 -0.21728,0.0776 -0.56292,-0.36313 z m 2.67958,0.36313 c 0,-0.0549 0.20836,-0.2633 0.46302,-0.46302 0.41965,-0.32911 0.42901,-0.31975 0.0999,0.0999 -0.34564,0.44073 -0.56292,0.58089 -0.56292,0.36313 z m 1.07922,-2.17111 c 0.0127,-0.30823 0.0754,-0.37092 0.15986,-0.15986 0.0764,0.191 0.067,0.4192 -0.0209,0.50712 -0.0879,0.0879 -0.15045,-0.0684 -0.13897,-0.34726 z m 7.42923,-1.16858 c 0,-0.3638 0.06,-0.51263 0.13345,-0.33073 0.0734,0.1819 0.0734,0.47956 0,0.66146 -0.0734,0.1819 -0.13345,0.0331 -0.13345,-0.33073 z m 4.65016,-1.62033 c 0.17948,-0.18082 0.39297,-0.26212 0.47444,-0.18065 0.0815,0.0815 -0.0654,0.2294 -0.32632,0.32876 -0.37709,0.14359 -0.40748,0.1132 -0.14812,-0.14811 z m -4.38558,-2.08384 c 0,-0.3638 0.0601,-0.51263 0.13345,-0.33073 0.0734,0.18191 0.0734,0.47956 0,0.66146 -0.0734,0.1819 -0.13345,0.0331 -0.13345,-0.33073 z m -7.1188,-3.57187 c 0.003,-0.58209 0.0571,-0.78906 0.1204,-0.45994 0.0633,0.32912 0.0609,0.80537 -0.005,1.05834 -0.0662,0.25296 -0.118,-0.0163 -0.11506,-0.5984 z m 13.62546,0.22164 c 0.1819,-0.0734 0.47956,-0.0734 0.66146,0 0.1819,0.0734 0.0331,0.13346 -0.33073,0.13346 -0.3638,0 -0.51263,-0.0601 -0.33073,-0.13346 z m -6.1949,-3.79352 c 0,-1.0914 0.0467,-1.53789 0.10379,-0.99218 0.0571,0.5457 0.0571,1.43867 0,1.98437 -0.0571,0.5457 -0.10379,0.0992 -0.10379,-0.99219 z m -18.08062,0.42927 c 0,-0.0549 0.20836,-0.2633 0.46302,-0.46302 0.41964,-0.3291 0.429,-0.31975 0.0999,0.0999 -0.34565,0.44073 -0.56292,0.58089 -0.56292,0.36312 z m 10.88969,-2.54593 c 0,-0.36381 0.0601,-0.51263 0.13346,-0.33073 0.0734,0.1819 0.0734,0.47955 0,0.66146 -0.0734,0.1819 -0.13346,0.0331 -0.13346,-0.33073 z m 4.14195,-0.97449 c 0.191,-0.0764 0.4192,-0.067 0.50712,0.0209 0.0879,0.0879 -0.0684,0.15046 -0.34727,0.13897 -0.30822,-0.0127 -0.37092,-0.0754 -0.15985,-0.15985 z m 7.40833,-0.52917 c 0.191,-0.0764 0.4192,-0.067 0.50712,0.0209 0.0879,0.0879 -0.0684,0.15045 -0.34726,0.13896 -0.30823,-0.0127 -0.37092,-0.0754 -0.15986,-0.15985 z m 13.27878,-2.82957 c 0,-0.0549 0.20836,-0.2633 0.46302,-0.46302 0.41965,-0.32911 0.429,-0.31975 0.0999,0.0999 -0.34565,0.44073 -0.56292,0.58089 -0.56292,0.36313 z m -19.50799,-1.67096 c 0.25744,-0.0671 0.61462,-0.0627 0.79375,0.01 0.17914,0.0725 -0.0315,0.12736 -0.46805,0.12197 -0.43656,-0.005 -0.58313,-0.0647 -0.3257,-0.13177 z m 8.34588,-0.79114 c 0.191,-0.0764 0.4192,-0.067 0.50712,0.0209 0.0879,0.0879 -0.0684,0.15045 -0.34727,0.13896 -0.30822,-0.0127 -0.37092,-0.0754 -0.15985,-0.15985 z m -2.00033,-3.12655 c 0.003,-0.58208 0.0571,-0.78905 0.1204,-0.45994 0.0633,0.32912 0.0609,0.80537 -0.005,1.05834 -0.0662,0.25296 -0.118,-0.0163 -0.11506,-0.5984 z m 1.73575,-1.10678 c 0.19099,-0.0764 0.4192,-0.067 0.50712,0.0209 0.0879,0.0879 -0.0684,0.15045 -0.34727,0.13896 -0.30822,-0.0127 -0.37092,-0.0754 -0.15985,-0.15985 z m -18.00821,-0.78824 c 0.18191,-0.0734 0.47956,-0.0734 0.66146,0 0.1819,0.0734 0.0331,0.13345 -0.33073,0.13345 -0.3638,0 -0.51263,-0.06 -0.33073,-0.13345 z m 7.54063,-0.007 c 0.25466,-0.0666 0.67138,-0.0666 0.92604,0 0.25466,0.0666 0.0463,0.121 -0.46302,0.121 -0.50932,0 -0.71768,-0.0545 -0.46302,-0.121 z m -7.25951,-3.43794 c 0.191,-0.0764 0.4192,-0.067 0.50712,0.0209 0.0879,0.0879 -0.0684,0.15046 -0.34726,0.13897 -0.30823,-0.0127 -0.37092,-0.0754 -0.15986,-0.15986 z m 3.29579,-0.26719 c 0.25744,-0.0671 0.61462,-0.0627 0.79375,0.01 0.17914,0.0725 -0.0315,0.12736 -0.46805,0.12197 -0.43656,-0.005 -0.58313,-0.0647 -0.3257,-0.13177 z m 8.85851,0.008 c 0.1819,-0.0734 0.47956,-0.0734 0.66146,0 0.1819,0.0734 0.0331,0.13346 -0.33073,0.13346 -0.3638,0 -0.51263,-0.0601 -0.33073,-0.13346 z"
         id="path13" /><path
         style="fill:#91908c"
         d="m 448.9715,295.55159 c 0.005,-0.43657 0.0647,-0.58313 0.13177,-0.3257 0.0671,0.25743 0.0627,0.61462 -0.01,0.79375 -0.0725,0.17913 -0.12736,-0.0315 -0.12197,-0.46805 z m -7.17444,-3.72622 c 0.0127,-0.30822 0.0754,-0.37092 0.15985,-0.15985 0.0764,0.19099 0.067,0.4192 -0.0209,0.50712 -0.0879,0.0879 -0.15045,-0.0684 -0.13896,-0.34727 z m 7.40833,-0.26458 c 0.0127,-0.30823 0.0754,-0.37092 0.15985,-0.15986 0.0764,0.191 0.067,0.4192 -0.0209,0.50712 -0.0879,0.0879 -0.15046,-0.0684 -0.13897,-0.34726 z m 4.95659,-3.2014 c 0.19099,-0.0764 0.4192,-0.067 0.50712,0.0209 0.0879,0.0879 -0.0684,0.15046 -0.34727,0.13897 -0.30822,-0.0127 -0.37092,-0.0754 -0.15985,-0.15985 z m -16.57737,-0.61301 c 0,-0.36381 0.0601,-0.51263 0.13346,-0.33073 0.0734,0.1819 0.0734,0.47955 0,0.66146 -0.0734,0.1819 -0.13346,0.0331 -0.13346,-0.33073 z m 19.20666,-0.43982 c 0.18191,-0.0734 0.47956,-0.0734 0.66146,0 0.1819,0.0734 0.0331,0.13346 -0.33073,0.13346 -0.3638,0 -0.51263,-0.0601 -0.33073,-0.13346 z m -7.2808,-1.14768 c 0,-0.50933 0.0544,-0.71769 0.121,-0.46302 0.0666,0.25466 0.0666,0.67138 0,0.92604 -0.0666,0.25466 -0.121,0.0463 -0.121,-0.46302 z m -7.40833,-0.79375 c 0,-0.50933 0.0544,-0.71769 0.121,-0.46302 0.0666,0.25466 0.0666,0.67138 0,0.92604 -0.0666,0.25466 -0.121,0.0463 -0.121,-0.46302 z m 3.31205,-4.93773 c 0.1819,-0.0734 0.47956,-0.0734 0.66146,0 0.1819,0.0734 0.0331,0.13345 -0.33073,0.13345 -0.3638,0 -0.51263,-0.06 -0.33073,-0.13345 z m 3.98529,-0.2701 c 0.19099,-0.0764 0.4192,-0.067 0.50712,0.0209 0.0879,0.0879 -0.0684,0.15045 -0.34727,0.13896 -0.30822,-0.0127 -0.37092,-0.0754 -0.15985,-0.15985 z m 7.40833,-0.52916 c 0.191,-0.0764 0.4192,-0.067 0.50712,0.0209 0.0879,0.0879 -0.0684,0.15046 -0.34727,0.13897 -0.30822,-0.0127 -0.37092,-0.0754 -0.15985,-0.15985 z m -32.98153,-6.69843 c 0,-0.3638 0.06,-0.51263 0.13345,-0.33073 0.0734,0.1819 0.0734,0.47956 0,0.66146 -0.0734,0.1819 -0.13345,0.0331 -0.13345,-0.33073 z m 0.75197,-2.21656 c 0,-0.0549 0.20836,-0.2633 0.46302,-0.46302 0.41965,-0.32911 0.42901,-0.31975 0.0999,0.0999 -0.34564,0.44073 -0.56292,0.58089 -0.56292,0.36313 z m 22.17539,-1.13918 c 0.191,-0.0764 0.4192,-0.067 0.50712,0.0209 0.0879,0.0879 -0.0684,0.15045 -0.34726,0.13896 -0.30823,-0.0127 -0.37092,-0.0754 -0.15986,-0.15985 z m -4.24987,-3.69866 c 0.18191,-0.0734 0.47956,-0.0734 0.66146,0 0.1819,0.0734 0.0331,0.13346 -0.33073,0.13346 -0.3638,0 -0.51263,-0.0601 -0.33073,-0.13346 z m 6.48733,-0.008 c 0.25743,-0.0671 0.61462,-0.0627 0.79375,0.01 0.17913,0.0725 -0.0315,0.12736 -0.46805,0.12197 -0.43657,-0.005 -0.58313,-0.0647 -0.3257,-0.13177 z"
         id="path12" /><path
         style="fill:#82817d"
         d="m 433.77252,288.62948 c 0.18191,-0.0734 0.47956,-0.0734 0.66146,0 0.1819,0.0734 0.0331,0.13345 -0.33073,0.13345 -0.3638,0 -0.51263,-0.06 -0.33073,-0.13345 z m 15.72815,-1.0154 c 0.005,-0.43656 0.0647,-0.58312 0.13177,-0.32569 0.0671,0.25743 0.0627,0.61462 -0.01,0.79375 -0.0725,0.17913 -0.12737,-0.0315 -0.12197,-0.46806 z m -7.41814,-3.57187 c 0,-0.3638 0.06,-0.51263 0.13345,-0.33073 0.0734,0.1819 0.0734,0.47956 0,0.66146 -0.0734,0.1819 -0.13345,0.0331 -0.13345,-0.33073 z m 2.14607,-3.62294 c 0.25743,-0.0671 0.61462,-0.0627 0.79375,0.01 0.17913,0.0725 -0.0315,0.12736 -0.46805,0.12197 -0.43657,-0.005 -0.58313,-0.0647 -0.3257,-0.13178 z m 11.78546,-0.79113 c 0.191,-0.0764 0.4192,-0.067 0.50712,0.0209 0.0879,0.0879 -0.0684,0.15046 -0.34727,0.13897 -0.30822,-0.0127 -0.37092,-0.0754 -0.15985,-0.15985 z m -7.30714,-4.97864 c 0.005,-0.43656 0.0647,-0.58312 0.13177,-0.32569 0.0671,0.25743 0.0627,0.61462 -0.01,0.79375 -0.0725,0.17913 -0.12737,-0.0315 -0.12197,-0.46806 z m -10.57353,-1.98437 c 0,-0.50933 0.0544,-0.71769 0.121,-0.46303 0.0666,0.25467 0.0666,0.67139 0,0.92605 -0.0666,0.25466 -0.121,0.0463 -0.121,-0.46302 z m 1.21192,-6.53075 c 0.191,-0.0764 0.4192,-0.067 0.50712,0.0209 0.0879,0.0879 -0.0684,0.15046 -0.34727,0.13897 -0.30822,-0.0127 -0.37092,-0.0754 -0.15985,-0.15986 z m 12.96458,0 c 0.191,-0.0764 0.4192,-0.067 0.50712,0.0209 0.0879,0.0879 -0.0684,0.15046 -0.34726,0.13897 -0.30823,-0.0127 -0.37092,-0.0754 -0.15986,-0.15986 z m -8.61046,-0.26719 c 0.25744,-0.0671 0.61462,-0.0627 0.79375,0.01 0.17914,0.0725 -0.0315,0.12736 -0.46805,0.12197 -0.43656,-0.005 -0.58313,-0.0647 -0.3257,-0.13177 z m 3.96875,0 c 0.25744,-0.0671 0.61462,-0.0627 0.79375,0.01 0.17914,0.0725 -0.0315,0.12736 -0.46805,0.12197 -0.43656,-0.005 -0.58313,-0.0647 -0.3257,-0.13177 z"
         id="path11" /><path
         style="fill:#706f6a"
         d="m 437.77367,297.07294 c -0.32911,-0.41964 -0.31975,-0.429 0.0999,-0.0999 0.25466,0.19972 0.46302,0.40808 0.46302,0.46303 0,0.21776 -0.21728,0.0776 -0.56292,-0.36313 z m 2.67958,0.36313 c 0,-0.0549 0.20836,-0.26331 0.46302,-0.46303 0.41965,-0.3291 0.42901,-0.31974 0.0999,0.0999 -0.34564,0.44073 -0.56292,0.58089 -0.56292,0.36313 z m -3.11361,-3.33969 c 0,-0.50933 0.0545,-0.71769 0.121,-0.46302 0.0666,0.25466 0.0666,0.67138 0,0.92604 -0.0666,0.25466 -0.121,0.0463 -0.121,-0.46302 z m 15.8345,0.37482 c 0.0127,-0.30822 0.0754,-0.37092 0.15985,-0.15985 0.0764,0.191 0.067,0.4192 -0.0209,0.50712 -0.0879,0.0879 -0.15046,-0.0684 -0.13897,-0.34727 z m -11.64167,-0.52916 c 0.0127,-0.30823 0.0754,-0.37092 0.15986,-0.15986 0.0764,0.191 0.067,0.4192 -0.0209,0.50712 -0.0879,0.0879 -0.15045,-0.0684 -0.13897,-0.34726 z m 7.69381,-0.904 c 0,-0.3638 0.0601,-0.51263 0.13345,-0.33073 0.0734,0.18191 0.0734,0.47956 0,0.66146 -0.0734,0.1819 -0.13345,0.0331 -0.13345,-0.33073 z m 5.99403,-0.44532 c 0.191,-0.0764 0.4192,-0.067 0.50712,0.0209 0.0879,0.0879 -0.0684,0.15045 -0.34727,0.13896 -0.30822,-0.0127 -0.37092,-0.0754 -0.15985,-0.15985 z m -13.42325,-2.09027 c 0.0127,-0.30822 0.0754,-0.37092 0.15985,-0.15985 0.0764,0.191 0.067,0.4192 -0.0209,0.50712 -0.0879,0.0879 -0.15045,-0.0684 -0.13896,-0.34727 z m 7.71875,-1.30087 c 0.003,-0.58208 0.0571,-0.78905 0.12041,-0.45993 0.0633,0.32912 0.0609,0.80537 -0.005,1.05833 -0.0662,0.25297 -0.11801,-0.0163 -0.11507,-0.5984 z m 5.96908,-0.57761 c 0.191,-0.0764 0.4192,-0.067 0.50712,0.0209 0.0879,0.0879 -0.0684,0.15045 -0.34726,0.13896 -0.30823,-0.0127 -0.37092,-0.0754 -0.15986,-0.15985 z m 2.96003,-1.77124 c 0,-0.0549 0.20836,-0.2633 0.46302,-0.46302 0.41965,-0.32911 0.429,-0.31975 0.0999,0.0999 -0.34565,0.44072 -0.56292,0.58088 -0.56292,0.36312 z m -27.2312,-1.90653 c 0.0127,-0.30822 0.0754,-0.37092 0.15986,-0.15985 0.0764,0.191 0.067,0.4192 -0.0209,0.50712 -0.0879,0.0879 -0.15045,-0.0684 -0.13897,-0.34727 z m 27.46203,-1.10243 c -0.3291,-0.41964 -0.31974,-0.429 0.0999,-0.0999 0.25466,0.19972 0.46302,0.40808 0.46302,0.46302 0,0.21776 -0.21727,0.0776 -0.56292,-0.36313 z m -16.57361,-1.12448 c 0,-0.50932 0.0544,-0.71768 0.121,-0.46302 0.0666,0.25466 0.0666,0.67138 0,0.92604 -0.0666,0.25467 -0.121,0.0463 -0.121,-0.46302 z m -6.60982,0.34679 c 0.25466,-0.0666 0.67138,-0.0666 0.92604,0 0.25466,0.0666 0.0463,0.121 -0.46302,0.121 -0.50933,0 -0.71769,-0.0544 -0.46302,-0.121 z m 18.28913,-0.20577 c -0.0819,-0.21348 -0.0876,-0.5409 -0.0126,-0.7276 0.075,-0.1867 0.14576,-0.0815 0.15725,0.23381 0.0115,0.31529 0.16971,0.63331 0.35161,0.70671 0.25905,0.10453 0.25725,0.13798 -0.008,0.15434 -0.18647,0.0115 -0.40606,-0.15378 -0.48798,-0.36726 z m 1.29003,0.20577 c 0.25466,-0.0666 0.67138,-0.0666 0.92604,0 0.25467,0.0666 0.0463,0.121 -0.46302,0.121 -0.50932,0 -0.71768,-0.0544 -0.46302,-0.121 z m -16.97859,-1.55946 c 0.0127,-0.30823 0.0754,-0.37092 0.15985,-0.15985 0.0764,0.19099 0.067,0.4192 -0.0209,0.50711 -0.0879,0.0879 -0.15046,-0.0684 -0.13897,-0.34726 z m 4.81279,-1.08735 c 0.25744,-0.0671 0.61462,-0.0627 0.79375,0.01 0.17914,0.0725 -0.0315,0.12736 -0.46805,0.12197 -0.43656,-0.005 -0.58313,-0.0647 -0.3257,-0.13178 z m 12.31463,-0.79113 c 0.191,-0.0764 0.4192,-0.067 0.50712,0.0209 0.0879,0.0879 -0.0684,0.15046 -0.34727,0.13897 -0.30822,-0.0127 -0.37092,-0.0754 -0.15985,-0.15985 z m 12.22044,-3.09416 c 0,-0.0549 0.20836,-0.2633 0.46302,-0.46302 0.41965,-0.32911 0.42901,-0.31975 0.0999,0.0999 -0.34564,0.44072 -0.56292,0.58088 -0.56292,0.36312 z m -22.55573,-0.88525 c 0.47295,-0.0587 1.24685,-0.0587 1.7198,0 0.47294,0.0587 0.086,0.10671 -0.8599,0.10671 -0.94589,0 -1.33284,-0.048 -0.8599,-0.10671 z m 10.59987,-0.78309 c 0.191,-0.0764 0.4192,-0.067 0.50712,0.0209 0.0879,0.0879 -0.0684,0.15046 -0.34726,0.13897 -0.30823,-0.0127 -0.37092,-0.0754 -0.15986,-0.15985 z M 444.209,271.20992 c 0.005,-0.43657 0.0647,-0.58313 0.13177,-0.3257 0.0671,0.25743 0.0627,0.61462 -0.01,0.79375 -0.0725,0.17914 -0.12736,-0.0315 -0.12197,-0.46805 z m 3.85102,-1.63044 c 0.18191,-0.0734 0.47956,-0.0734 0.66146,0 0.1819,0.0734 0.0331,0.13345 -0.33073,0.13345 -0.3638,0 -0.51263,-0.06 -0.33073,-0.13345 z m -7.9375,-3.43958 c 0.18191,-0.0734 0.47956,-0.0734 0.66146,0 0.1819,0.0734 0.0331,0.13345 -0.33073,0.13345 -0.3638,0 -0.51263,-0.06 -0.33073,-0.13345 z m 11.39362,-0.006 c 0.191,-0.0764 0.4192,-0.067 0.50712,0.0209 0.0879,0.0879 -0.0684,0.15046 -0.34726,0.13897 -0.30823,-0.0127 -0.37092,-0.0754 -0.15986,-0.15986 z m -6.23424,-0.27335 c 0.40018,-0.0606 1.05503,-0.0606 1.45521,0 0.40018,0.0606 0.0728,0.11023 -0.72761,0.11023 -0.80036,0 -1.12778,-0.0496 -0.7276,-0.11023 z"
         id="path10" /><path
         style="fill:#61605b"
         d="m 439.26263,297.5137 c 0.45537,-0.21484 0.42862,-0.23599 -0.19179,-0.15166 -0.46737,0.0635 -0.88093,-0.0788 -1.17579,-0.40459 -0.34676,-0.38317 -0.36181,-0.4669 -0.0634,-0.35237 0.26847,0.10302 0.39149,-0.0231 0.39149,-0.40152 0,-0.39942 -0.13044,-0.51764 -0.47247,-0.42819 -0.33155,0.0867 -0.47247,-0.0269 -0.47247,-0.38085 0,-0.27741 0.11533,-0.50439 0.25628,-0.50439 0.14096,0 0.18775,-0.1786 0.10399,-0.39688 -0.0964,-0.25131 0.004,-0.39687 0.27288,-0.39687 0.23385,0 0.42519,-0.1786 0.42519,-0.39688 0,-0.21828 -0.2311,-0.39687 -0.51355,-0.39687 -0.28246,0 -0.58714,-0.11907 -0.67708,-0.26459 -0.0899,-0.14552 -0.0374,-0.26458 0.11668,-0.26458 0.15411,0 0.2802,-0.10728 0.2802,-0.2384 0,-0.13111 -0.41672,-0.22658 -0.92604,-0.21214 -0.92701,0.0263 -1.21683,0.28911 -0.59532,0.53989 0.25905,0.10453 0.25725,0.13798 -0.008,0.15435 -0.18647,0.0115 -0.41115,-0.16705 -0.4993,-0.39675 -0.1155,-0.30099 -0.46419,-0.40192 -1.24846,-0.36135 -1.63428,0.0846 -1.96384,0.029 -1.51481,-0.25538 0.30075,-0.19046 0.26853,-0.33835 -0.17818,-0.81783 -0.29992,-0.32194 -0.6735,-0.50611 -0.83016,-0.40929 -0.15667,0.0968 -0.28485,0.004 -0.28485,-0.20558 0,-0.2099 0.23813,-0.44391 0.52917,-0.52002 0.29104,-0.0761 0.51976,-0.29835 0.50828,-0.49388 -0.0157,-0.26735 -0.054,-0.27349 -0.15435,-0.0248 -0.0734,0.18191 -0.24961,0.33073 -0.3916,0.33073 -0.38007,0 -0.0163,-0.48168 0.62169,-0.8231 0.47957,-0.25667 0.53042,-0.23391 0.37608,0.16829 -0.14833,0.38654 -0.11238,0.41023 0.21287,0.14029 0.21524,-0.17863 0.5074,-0.25306 0.64924,-0.1654 0.14184,0.0877 0.3214,0.0566 0.39903,-0.069 0.0776,-0.1256 0.50471,-0.2387 0.94908,-0.25134 0.44437,-0.0126 0.74258,0.0828 0.66268,0.21208 -0.0799,0.12928 0.41008,0.20278 1.08884,0.16335 1.17964,-0.0685 1.23702,-0.10887 1.30037,-0.91407 0.0364,-0.4633 -0.046,-0.84237 -0.18317,-0.84237 -0.13719,0 -0.18272,-0.10796 -0.10117,-0.23991 0.0815,-0.13195 -0.1022,-0.1744 -0.40834,-0.0943 -0.32627,0.0853 -0.65322,-0.007 -0.79006,-0.22311 -0.13173,-0.20802 -0.23522,-0.23918 -0.23751,-0.0715 -0.002,0.17161 -0.5071,0.30727 -1.19467,0.32107 -0.65485,0.0131 -1.19063,-0.0797 -1.19063,-0.20626 0,-0.12659 -0.24707,-0.16555 -0.54904,-0.0866 -0.42912,0.11222 -0.53026,0.0346 -0.46302,-0.3555 0.0502,-0.29112 -0.0518,-0.47151 -0.24471,-0.43293 -0.1819,0.0364 -0.33073,-0.0599 -0.33073,-0.21405 0,-0.15411 -0.121,-0.20542 -0.2689,-0.11401 -0.14789,0.0914 -0.18995,0.30679 -0.0935,0.47863 0.13374,0.2382 0.0961,0.2392 -0.15844,0.004 -0.48224,-0.44528 -0.56566,-1.94069 -0.10827,-1.94069 0.20047,0 0.3645,-0.12609 0.3645,-0.2802 0,-0.1541 -0.14883,-0.20481 -0.33073,-0.11267 -0.1819,0.0921 -0.0996,-0.0199 0.18286,-0.24896 0.60932,-0.49413 1.12204,-0.53669 1.26592,-0.10507 0.0608,0.1825 0.24596,0.22357 0.44717,0.0992 0.27908,-0.17249 0.27616,-0.25479 -0.0156,-0.43967 -0.24369,-0.15441 -0.0855,-0.22876 0.49262,-0.23151 0.63462,-0.003 0.81423,0.0933 0.70495,0.37808 -0.18619,0.4852 0.93078,0.45271 1.43892,-0.0419 0.19229,-0.18716 0.62553,-0.34028 0.96274,-0.34028 0.48791,0 0.64761,-0.1839 0.78205,-0.9005 0.0929,-0.49527 0.34429,-0.96779 0.55861,-1.05003 0.60826,-0.23341 0.45725,-0.72114 -0.20564,-0.66417 -1.78564,0.15346 -2.78437,-0.0381 -2.92093,-0.5603 -0.0761,-0.29105 -0.28133,-0.52917 -0.45604,-0.52917 -0.17471,0 -0.24913,0.17859 -0.16537,0.39687 0.0838,0.21829 0.037,0.39688 -0.10398,0.39688 -0.14095,0 -0.25628,-0.17859 -0.25628,-0.39688 0,-0.23638 -0.24073,-0.39523 -0.59531,-0.39282 -0.48745,0.003 -0.52341,0.0527 -0.19844,0.27262 0.28995,0.19621 0.18303,0.22091 -0.39687,0.0917 -1.08053,-0.24082 -1.1908,-0.3246 -1.01848,-0.77368 0.10198,-0.26574 -0.027,-0.3884 -0.40843,-0.3884 -0.30661,0 -0.55747,0.10792 -0.55747,0.23981 0,0.1319 -0.24819,0.17491 -0.55153,0.0956 -0.34606,-0.0905 -0.43996,-0.21319 -0.25206,-0.32932 0.21319,-0.13176 0.19042,-0.27558 -0.079,-0.49921 -0.29852,-0.24775 -0.41171,-0.22757 -0.53568,0.0955 -0.12992,0.33857 -0.24794,0.35295 -0.68033,0.0829 -0.28773,-0.17969 -0.4719,-0.37795 -0.40927,-0.44057 0.0626,-0.0626 0.31955,0.0519 0.57096,0.25457 0.37102,0.29905 0.35977,0.23221 -0.0598,-0.35494 -0.43414,-0.60763 -0.66018,-0.7022 -1.41268,-0.59104 -0.77462,0.11442 -0.85114,0.0785 -0.56551,-0.26569 0.37609,-0.45316 0.15746,-0.59037 -1.1531,-0.72363 -0.51094,-0.052 -0.98917,-0.38292 -1.4501,-1.00356 -0.61037,-0.82187 -0.62074,-0.8688 -0.0922,-0.41719 0.59476,0.50818 0.59541,0.50801 0.49703,-0.13229 -0.0643,-0.41848 -0.2729,-0.64127 -0.60065,-0.6415 -0.39412,-2.7e-4 -0.50581,-0.19948 -0.51922,-0.92604 -0.0342,-1.85599 1.1891,-3.3197 2.69008,-3.21861 0.76042,0.0512 0.91201,-0.0222 0.84645,-0.40985 -0.0564,-0.33352 0.0639,-0.4476 0.40971,-0.38839 0.27336,0.0468 0.41773,-0.0324 0.32689,-0.17939 -0.22475,-0.36365 0.8128,-0.65348 2.1601,-0.60342 0.61847,0.023 1.12448,-0.0782 1.12448,-0.22494 0,-0.14669 -0.14882,-0.27695 -0.33073,-0.28946 -0.1819,-0.0125 -0.009,-0.11971 0.38392,-0.23823 0.39305,-0.11852 1.43485,-0.16621 2.3151,-0.10598 0.97684,0.0668 1.60046,0.005 1.60046,-0.15864 0,-0.14749 -0.14882,-0.28306 -0.33073,-0.30127 -1.19699,-0.11986 2.49657,-0.41642 4.43178,-0.35584 1.47284,0.0461 2.12891,-0.007 1.71979,-0.13875 -0.40986,-0.13217 -0.49189,-0.22333 -0.21566,-0.23967 0.24518,-0.0145 0.73896,0.0851 1.09727,0.22131 0.35831,0.13623 0.73311,0.166 0.83288,0.0661 0.22604,-0.22623 3.33759,-0.30407 3.19985,-0.0801 -0.0552,0.0897 0.24957,0.1884 0.67718,0.21934 0.4276,0.0309 0.72191,-0.0337 0.65401,-0.14352 -0.0679,-0.10986 0.10899,-0.21726 0.3931,-0.23866 0.2841,-0.0214 0.45937,0.0536 0.38947,0.16671 -0.0699,0.1131 0.37402,0.22331 0.98647,0.24492 0.80622,0.0284 1.00402,-0.0316 0.71668,-0.21759 -0.3106,-0.20103 -0.2421,-0.25776 0.31511,-0.26093 0.3916,-0.002 0.77664,0.10056 0.85566,0.22841 0.079,0.12786 0.85327,0.18272 1.72055,0.12193 1.37885,-0.0966 1.6131,-0.0429 1.86526,0.4283 0.24968,0.46653 0.52678,0.53377 2.06537,0.50115 0.97735,-0.0207 2.06765,-0.0204 2.42289,7e-4 0.59217,0.0352 0.60729,0.0666 0.18183,0.3777 -0.42842,0.31327 -0.41737,0.34283 0.14395,0.38512 0.3344,0.0252 0.65155,0.17646 0.70479,0.33616 0.0599,0.17962 0.21273,0.13523 0.40079,-0.11641 0.19481,-0.26066 0.51984,-0.34912 0.90489,-0.24629 0.50235,0.13417 0.54634,0.22621 0.26826,0.56128 -0.28957,0.34891 -0.1998,0.38529 0.6934,0.28102 0.83046,-0.097 1.05007,-0.0279 1.15214,0.36245 0.0873,0.33373 0.34285,0.46571 0.82995,0.4286 0.89434,-0.0682 1.36908,0.22199 1.178,0.71993 -0.082,0.21362 -0.0172,0.3884 0.14385,0.3884 0.16109,0 0.29289,0.1786 0.29289,0.39688 0,0.21828 0.17859,0.39687 0.39688,0.39687 0.21828,0 0.39687,0.11906 0.39687,0.26459 0,0.14552 0.19317,0.26458 0.42927,0.26458 0.37078,0 0.37979,-0.0631 0.0661,-0.46302 -0.32763,-0.41776 -0.31869,-0.42821 0.0914,-0.10692 0.25001,0.19586 0.44427,0.43399 0.43169,0.52917 -0.0126,0.0952 0.006,0.26236 0.0415,0.3715 0.0354,0.10914 0.0896,0.28773 0.12033,0.39687 0.0308,0.10914 0.14617,0.40287 0.25647,0.65273 0.1103,0.24986 0.13918,0.60705 0.0642,0.79375 -0.075,0.18671 -0.14577,0.0645 -0.15725,-0.27147 -0.0115,-0.33601 -0.13118,-0.54276 -0.26598,-0.45945 -0.14296,0.0884 -0.15283,0.47317 -0.0237,0.92348 0.25603,0.8927 -0.27066,1.96306 -0.65776,1.33673 -0.14115,-0.2284 -0.10999,-0.28154 0.0919,-0.15676 0.168,0.10383 0.30546,0.0627 0.30546,-0.0914 0,-0.15411 -0.16471,-0.2802 -0.36602,-0.2802 -0.37117,0 -0.79707,0.90623 -0.92638,1.97115 -0.0168,0.13824 -0.17339,0.10847 -0.34802,-0.0661 -0.47044,-0.47045 -0.74083,-0.38668 -0.74083,0.2295 0,0.43733 -0.11273,0.51121 -0.5623,0.36852 -0.42988,-0.13643 -0.51138,-0.0939 -0.34609,0.18061 0.17522,0.29099 0.13012,0.28922 -0.23784,-0.009 -0.24973,-0.20264 -0.53703,-0.28547 -0.63844,-0.18406 -0.10141,0.10141 -0.0107,0.2917 0.2015,0.42287 0.43391,0.26817 0.21914,0.3042 -1.83352,0.30758 -0.78973,0.001 -1.04667,0.0786 -0.79375,0.23866 0.30286,0.19171 0.28592,0.2375 -0.089,0.24078 -0.25466,0.002 -0.46302,-0.11501 -0.46302,-0.26053 0,-0.14552 -0.31039,-0.26458 -0.68977,-0.26458 -0.49538,0 -0.64807,0.10864 -0.54183,0.38551 0.11911,0.31039 0.0215,0.33745 -0.50086,0.13884 -0.50695,-0.19274 -0.64879,-0.16133 -0.64879,0.14366 0,0.29411 -0.3424,0.39104 -1.38906,0.39323 -0.76399,0.002 -1.86531,0.0571 -2.4474,0.1233 -0.95255,0.10834 -0.979,0.0967 -0.26458,-0.11649 0.71868,-0.21447 0.68114,-0.23172 -0.39688,-0.18239 -1.13443,0.0519 -1.19453,0.0947 -1.27353,0.90733 -0.0465,0.47803 0.0407,0.85284 0.19844,0.85284 0.15474,0 0.28134,-0.12609 0.28134,-0.2802 0,-0.1541 0.10991,-0.21227 0.24423,-0.12925 0.13433,0.083 0.18192,0.73048 0.10578,1.43882 -0.095,0.88384 -0.033,1.35304 0.19761,1.49557 0.24482,0.15131 0.28776,0.0702 0.15816,-0.29872 -0.16912,-0.4814 -0.15794,-0.4806 0.22618,0.0161 0.34115,0.44118 0.48548,0.47174 0.92669,0.1962 0.28743,-0.17951 0.5226,-0.2137 0.5226,-0.076 0,0.33395 1.13829,0.25101 1.38501,-0.10092 0.12715,-0.18136 0.19579,-0.16287 0.19844,0.0535 0.002,0.1819 0.21241,0.3289 0.46707,0.32667 0.40025,-0.004 0.40922,-0.0428 0.0661,-0.28954 -0.33007,-0.23743 -0.31529,-0.25902 0.0878,-0.12824 0.26656,0.0865 0.53445,0.15725 0.59531,0.15725 0.0609,0 0.11065,0.25087 0.11065,0.55748 0,0.37807 0.12336,0.51013 0.38333,0.41037 0.2316,-0.0889 0.44782,0.0561 0.54625,0.3662 0.19606,0.61773 -0.0288,1.0472 -0.54832,1.0472 -0.20969,0 -0.38126,0.2311 -0.38126,0.51355 0,0.28246 -0.12201,0.58896 -0.27114,0.68113 -0.14912,0.0922 -0.23842,0.01 -0.19844,-0.18282 0.0794,-0.38269 -1.03704,-0.3408 -1.52367,0.0572 -0.15044,0.12303 -0.448,0.11324 -0.66146,-0.0218 -0.56145,-0.3551 -1.77742,-0.30859 -2.01943,0.0772 -0.45641,0.72764 0.15031,2.05387 0.93622,2.04647 0.37469,-0.004 0.37907,-0.0374 0.0337,-0.26053 -0.31773,-0.20533 -0.32355,-0.25729 -0.0292,-0.26053 0.20223,-0.002 0.5224,0.20431 0.71149,0.45897 0.2873,0.38696 0.43164,0.40939 0.8786,0.13658 0.66675,-0.40696 1.34949,-0.16987 1.34949,0.46864 0,0.29282 0.22584,0.51568 0.57459,0.567 0.31602,0.0465 0.62912,0.24995 0.69578,0.45211 0.0809,0.24521 0.008,0.29749 -0.21939,0.15706 -0.24994,-0.15447 -0.30155,-0.0612 -0.19393,0.35032 0.0909,0.34763 -0.019,0.69023 -0.28905,0.90127 -0.38894,0.30391 -0.39673,0.29076 -0.0726,-0.12257 0.26731,-0.34084 0.27822,-0.46302 0.0414,-0.46302 -0.17696,0 -0.38157,0.22879 -0.4547,0.50841 -0.10826,0.41401 -0.31245,0.4868 -1.09971,0.39203 -0.79108,-0.0952 -0.8706,-0.0664 -0.43759,0.15848 0.46814,0.24316 0.45288,0.25643 -0.13229,0.11504 -0.55297,-0.13361 -2.52764,-0.21757 -3.24115,-0.13781 -0.10914,0.0122 -0.19843,0.15399 -0.19843,0.31508 0,0.16109 0.17859,0.22436 0.39687,0.14059 0.29652,-0.11378 0.38912,0.0296 0.36618,0.56701 -0.0191,0.44782 -0.0764,0.54454 -0.15169,0.25628 -0.16472,-0.63032 -0.49797,-0.58605 -0.49797,0.0661 0,0.29105 0.10813,0.52917 0.24028,0.52917 0.13216,0 0.10168,0.16702 -0.0677,0.37115 -0.23653,0.285 -0.22869,0.40297 0.0337,0.50827 0.26154,0.10494 0.26413,0.14204 0.0111,0.15803 -0.1819,0.0115 -0.33073,0.2065 -0.33073,0.43337 0,0.22687 0.11906,0.33891 0.26458,0.24897 0.39767,-0.24577 0.31813,0.2271 -0.13612,0.80933 -0.22039,0.28247 -0.36922,0.39453 -0.33073,0.24901 0.0385,-0.14553 -0.0193,-0.29435 -0.12846,-0.33073 -0.10914,-0.0364 -0.18963,0.0185 -0.17886,0.12196 0.0277,0.26609 -0.88066,0.55676 -1.27635,0.40843 -0.1819,-0.0682 -0.33073,-0.28984 -0.33073,-0.49256 0,-0.2247 -0.28401,-0.37014 -0.7276,-0.37261 -0.57049,-0.003 -0.64191,-0.0603 -0.33073,-0.26459 0.35277,-0.23158 0.35277,-0.28993 0,-0.52511 -0.28255,-0.18837 -0.31004,-0.32175 -0.0954,-0.46302 0.19489,-0.12829 0.26597,-0.85314 0.20106,-2.05052 -0.14141,-2.60862 0.10194,-4.3709 0.57831,-4.18809 0.20591,0.079 0.37438,0.0119 0.37438,-0.14923 0,-0.16109 -0.14883,-0.29472 -0.33073,-0.29695 -0.20482,-0.002 -0.23,-0.0781 -0.0661,-0.19843 0.44057,-0.32369 0.44824,-1.11733 0.0124,-1.28457 -0.22511,-0.0864 -0.40929,-0.34567 -0.40929,-0.5762 0,-0.33824 0.0727,-0.32001 0.37678,0.0945 0.34048,0.46411 0.37431,0.36081 0.35115,-1.07239 -0.0151,-0.93324 -0.17015,-1.73049 -0.37678,-1.93712 -0.48519,-0.48519 -0.45315,-2.06969 0.0457,-2.26112 0.4803,-0.18431 0.52783,-1.1303 0.0661,-1.3166 -0.26458,-0.10676 -0.26458,-0.13763 0,-0.15434 0.1819,-0.0115 0.33073,-0.13995 0.33073,-0.28547 0,-0.35225 -1.50902,-0.34103 -1.72773,0.0129 -0.11721,0.18966 -0.28958,0.17941 -0.54478,-0.0324 -0.24588,-0.20406 -0.37332,-0.21378 -0.37332,-0.0285 0,0.15475 0.14883,0.37769 0.33073,0.49542 0.18433,0.1193 -1.01166,0.27261 -2.70186,0.34634 l -3.03259,0.13229 -0.2066,0.92605 c -0.11362,0.50932 -0.21131,2.03258 -0.21708,3.38501 -0.008,1.80609 -0.10482,2.49517 -0.36577,2.5953 -0.47109,0.18078 -0.46364,1.42802 0.009,1.42802 0.22922,0 0.35047,0.26916 0.32777,0.7276 -0.0339,0.68479 -0.0431,0.69005 -0.15631,0.0894 -0.0891,-0.47286 -0.17782,-0.5451 -0.34238,-0.27884 -0.12225,0.19781 -0.11355,0.5622 0.0194,0.81054 0.15122,0.28257 0.13204,0.76504 -0.0513,1.29107 -0.21533,0.61771 -0.2141,0.91859 0.005,1.13736 0.34018,0.34018 0.40857,1.08528 0.081,0.88285 -0.11903,-0.0736 -0.16858,0.46638 -0.1101,1.19988 0.0991,1.24366 0.0699,1.32206 -0.43411,1.16211 -0.44125,-0.14005 -0.53556,-0.0597 -0.51394,0.43815 0.0442,1.01861 -0.0358,1.31008 -0.31293,1.13884 -0.14552,-0.0899 -0.26458,-0.0374 -0.26458,0.11668 0,0.1541 -0.26789,0.27183 -0.59532,0.2616 -0.57216,-0.0179 -0.57473,-0.0283 -0.0661,-0.26825 z m 2.48262,-12.28087 c -0.0205,-0.94588 -0.14044,-1.71979 -0.26652,-1.71979 -0.22796,0 -0.27401,2.86234 -0.0521,3.24115 0.27502,0.46955 0.35369,0.094 0.31866,-1.52136 z m -3.40866,-1.71979 c 0,-0.14552 -0.23813,-0.26458 -0.52917,-0.26458 -0.29104,0 -0.52917,0.11906 -0.52917,0.26458 0,0.14552 0.23813,0.26459 0.52917,0.26459 0.29104,0 0.52917,-0.11907 0.52917,-0.26459 z m 6.35,-7.34474 c 0,-0.29876 1.68702,-0.23849 1.92325,0.0687 0.12689,0.165 0.33716,0.0901 0.55868,-0.19891 0.22535,-0.29404 0.75849,-0.47929 1.45832,-0.50671 l 1.10311,-0.0432 -0.0599,-1.01464 c -0.037,-0.62734 -0.19162,-1.01464 -0.40501,-1.01464 -0.18983,0 -0.33575,-0.20836 -0.32426,-0.46303 0.0125,-0.2766 0.0746,-0.32986 0.15434,-0.13229 0.24972,0.61887 0.61852,0.33348 0.61852,-0.47863 0,-0.44515 -0.10796,-0.74265 -0.23991,-0.6611 -0.13195,0.0815 -0.17759,-0.09 -0.10143,-0.38126 0.0767,-0.29319 0.36088,-0.52953 0.63678,-0.52953 0.27407,0 0.49831,-0.17859 0.49831,-0.39687 0,-0.21828 -0.0893,-0.37828 -0.19844,-0.35555 -0.10914,0.0227 -0.49609,-0.0969 -0.85989,-0.26588 -0.62897,-0.29213 -0.61923,-0.29963 0.19843,-0.1526 0.63923,0.11493 0.8599,0.0581 0.8599,-0.22132 0,-0.2692 -0.381,-0.38942 -1.34195,-0.42343 -1.01817,-0.036 -1.29608,0.0336 -1.15181,0.28876 0.15237,0.26946 0.11935,0.27056 -0.16617,0.006 -0.19598,-0.1819 -0.83852,-0.32891 -1.42788,-0.32668 -0.78932,0.003 -0.96703,0.0716 -0.67469,0.26053 0.2904,0.18767 0.11293,0.25049 -0.66146,0.23416 -0.91814,-0.0194 -0.97071,-0.0504 -0.39687,-0.23416 0.63424,-0.20312 0.62703,-0.21292 -0.17503,-0.23821 -0.84165,-0.0265 -0.98044,0.24368 -0.51124,0.9954 0.13374,0.21427 0.10881,0.43205 -0.0615,0.53732 -0.36422,0.22509 -0.33877,1.29477 0.0505,2.12223 0.21792,0.46325 0.22016,0.66557 0.008,0.73683 -0.16075,0.054 -0.23584,0.39344 -0.16687,0.75427 0.0957,0.50084 0.0323,0.6203 -0.26826,0.50497 -0.25121,-0.0964 -0.44517,0.0458 -0.53597,0.39306 -0.15275,0.58411 0.20492,0.76299 0.42669,0.2134 0.0797,-0.19757 0.14186,-0.14431 0.15434,0.1323 0.0115,0.25466 -0.0982,0.46302 -0.2437,0.46302 -0.14552,0 -0.26458,0.11906 -0.26458,0.26458 0,0.14552 0.35718,0.26458 0.79375,0.26458 0.43656,0 0.79375,-0.0904 0.79375,-0.20099 z m 3.43958,-0.0636 c 0,-0.14552 -0.11906,-0.26458 -0.26458,-0.26458 -0.14552,0 -0.26459,0.11906 -0.26459,0.26458 0,0.14552 0.11907,0.26458 0.26459,0.26458 0.14552,0 0.26458,-0.11906 0.26458,-0.26458 z m -13.00723,-0.72131 c 0.31112,0.25665 0.41654,0.25533 0.5046,-0.006 0.0612,-0.18191 0.22748,-0.33073 0.36946,-0.33073 0.14198,0 0.20312,0.0893 0.13586,0.19843 -0.0673,0.10914 0.4615,0.21643 1.17501,0.23841 0.82315,0.0254 1.29878,-0.0713 1.30135,-0.26458 0.002,-0.16751 0.11741,-0.12596 0.25596,0.0923 0.17939,0.28264 0.23345,0.0922 0.18781,-0.66146 -0.0464,-0.76587 -0.1699,-1.03464 -0.44697,-0.97261 -0.30509,0.0683 -0.29456,-0.0123 0.0518,-0.39688 0.46642,-0.51783 0.62348,-2.99613 0.18987,-2.99613 -0.13339,0 -0.24253,-0.1786 -0.24253,-0.39688 0,-0.21828 -0.13891,-0.39687 -0.30868,-0.39687 -0.16977,0 -0.23218,-0.0765 -0.13869,-0.17 0.0935,-0.0935 0.35147,-0.0194 0.57327,0.16469 0.2877,0.23877 0.40327,0.2472 0.40327,0.0294 0,-0.48816 -0.80794,-0.66392 -1.62836,-0.35425 -0.41612,0.15707 -0.68919,0.17655 -0.60683,0.0433 0.0824,-0.13326 -0.0359,-0.24229 -0.26274,-0.24229 -0.22687,0 -0.41249,0.16292 -0.41249,0.36204 0,0.46058 -1.95364,0.74518 -2.82946,0.41219 -0.393,-0.14942 -0.58175,-0.14863 -0.48864,0.002 0.0835,0.13502 0.0174,0.32851 -0.14675,0.42997 -0.16416,0.10146 -0.39092,0.0349 -0.5039,-0.14791 -0.11298,-0.18281 -0.35051,-0.24271 -0.52783,-0.13311 -0.24801,0.15328 -0.23958,0.25175 0.0366,0.42672 0.2819,0.17862 0.25957,0.23543 -0.10404,0.26458 -0.68867,0.0552 -0.83016,0.0925 -1.16803,0.30741 -0.16947,0.10782 -0.35034,0.0694 -0.40192,-0.0853 -0.0516,-0.15476 -0.2992,-0.20255 -0.55025,-0.10622 -0.25105,0.0963 -0.38272,0.29446 -0.29261,0.44027 0.10075,0.16301 0.25145,0.12686 0.39131,-0.0939 0.17487,-0.27599 0.22839,-0.2806 0.23151,-0.0199 0.002,0.18647 -0.17236,0.40673 -0.38798,0.48947 -0.29678,0.11389 -0.32666,0.27258 -0.12298,0.65316 0.17014,0.31791 0.1744,0.50272 0.0116,0.50272 -0.1416,0 -0.24014,0.22987 -0.21897,0.51083 0.0212,0.28096 0.1246,0.45761 0.22985,0.39256 0.10526,-0.065 0.27118,0.0109 0.36872,0.16866 0.0975,0.15782 0.34389,0.22303 0.54745,0.14491 0.20542,-0.0788 0.37011,0.0183 0.37011,0.21824 0,0.4837 0.46742,0.63302 1.78194,0.56927 0.60414,-0.0293 1.04551,0.0324 0.9808,0.13708 -0.0647,0.10469 0.12242,0.12757 0.41583,0.0508 0.43097,-0.1127 0.49981,-0.0444 0.3583,0.35541 -0.14191,0.40093 -0.10868,0.4333 0.17498,0.17047 0.27649,-0.25619 0.43287,-0.25619 0.74342,0 z m -5.5136,-2.20472 c 0,-0.15411 0.11906,-0.20662 0.26458,-0.11668 0.14552,0.0899 0.26458,0.21603 0.26458,0.2802 0,0.0642 -0.11906,0.11668 -0.26458,0.11668 -0.14552,0 -0.26458,-0.12609 -0.26458,-0.2802 z m 23.96684,1.8677 c 0.35167,0 0.63941,0.11906 0.63941,0.26458 0,0.38785 0.79001,0.3237 0.81464,-0.0662 0.0167,-0.26458 0.0476,-0.26458 0.15434,0 0.0734,0.1819 0.37439,0.33073 0.66887,0.33073 0.37979,0 0.48869,-0.12179 0.37465,-0.41898 -0.10259,-0.26735 -0.041,-0.37685 0.17013,-0.30257 0.182,0.064 0.58296,0.0234 0.89103,-0.0903 0.30807,-0.11367 0.99268,-0.10911 1.52136,0.0101 0.52867,0.11923 0.96123,0.11815 0.96123,-0.002 0,-0.12056 0.29848,-0.16507 0.66329,-0.0989 0.62545,0.11341 0.83712,-0.31908 0.33945,-0.69358 -0.10334,-0.0778 0.0753,-0.30525 0.39687,-0.50553 0.53413,-0.33261 0.55332,-0.3261 0.22164,0.0752 -0.3125,0.37812 -0.30328,0.43938 0.0661,0.43938 0.2506,0 0.42927,-0.21679 0.42927,-0.52086 0,-0.34174 0.12947,-0.47118 0.37647,-0.3764 0.38179,0.14651 0.43743,-0.4937 0.0745,-0.85667 -0.1,-0.1 -0.0656,-0.32169 0.0763,-0.49273 0.1774,-0.21376 0.13897,-0.31098 -0.12295,-0.31098 -0.20957,0 -0.31972,0.0992 -0.24477,0.22049 0.075,0.12127 0.0102,0.22049 -0.14393,0.22049 -0.15411,0 -0.2802,-0.13181 -0.2802,-0.2929 0,-0.16132 -0.1926,-0.21898 -0.42876,-0.12835 -0.33069,0.12689 -0.39655,0.0414 -0.28794,-0.374 0.13093,-0.50067 0.0337,-0.53399 -1.38315,-0.47403 -1.17129,0.0496 -1.63344,-0.045 -1.99693,-0.40846 -0.33435,-0.33434 -0.55548,-0.39042 -0.75454,-0.19136 -0.3562,0.3562 -1.2341,0.3683 -1.2341,0.017 0,-0.54746 -1.3368,-0.27174 -1.60349,0.33073 l -0.26352,0.59531 0.11499,-0.59531 c 0.0632,-0.32742 0.017,-0.59531 -0.10278,-0.59531 -0.33892,0 -0.40228,0.41369 -0.29353,1.91665 0.0742,1.02548 0.15616,1.25169 0.31213,0.86147 0.17064,-0.42692 0.2151,-0.44271 0.23011,-0.0818 0.0102,0.24608 -0.0953,0.51778 -0.23443,0.60379 -0.13917,0.086 -0.17847,0.35069 -0.0873,0.58818 0.11741,0.30598 0.0669,0.37074 -0.17343,0.22222 -0.42879,-0.26501 -0.80652,0.30391 -0.78419,1.18112 0.009,0.3638 0.0769,0.51263 0.15029,0.33073 0.0734,-0.18191 0.42118,-0.33073 0.77286,-0.33073 z m 9.89982,-2.11667 c 0,-0.14552 -0.11906,-0.26458 -0.26458,-0.26458 -0.14552,0 -0.26458,0.11906 -0.26458,0.26458 0,0.14552 0.11906,0.26458 0.26458,0.26458 0.14552,0 0.26458,-0.11906 0.26458,-0.26458 z m -38.1,-1.70665 c 0,-0.21105 0.20737,-0.49977 0.46082,-0.64161 0.25345,-0.14184 0.37125,-0.34745 0.26179,-0.45691 -0.10947,-0.10947 -0.4359,0.0552 -0.7254,0.36596 -0.56804,0.60972 -0.68684,1.11629 -0.26179,1.11629 0.14552,0 0.26458,-0.17268 0.26458,-0.38373 z m 3.96875,-2.52668 c 0,-0.14553 -0.11906,-0.26459 -0.26458,-0.26459 -0.14552,0 -0.26458,0.11906 -0.26458,0.26459 0,0.14552 0.11906,0.26458 0.26458,0.26458 0.14552,0 0.26458,-0.11906 0.26458,-0.26458 z m 13.43069,-1.50471 c -0.25296,-0.0662 -0.72921,-0.0686 -1.05833,-0.005 -0.32912,0.0633 -0.12215,0.11747 0.45994,0.12041 0.58208,0.003 0.85136,-0.0489 0.59839,-0.11507 z m 8.20209,0 c -0.25297,-0.0662 -0.72922,-0.0686 -1.05834,-0.005 -0.32912,0.0633 -0.12214,0.11747 0.45994,0.12041 0.58208,0.003 0.85136,-0.0489 0.5984,-0.11507 z m -1.76814,26.75037 c 0.0127,-0.30823 0.0754,-0.37092 0.15985,-0.15986 0.0764,0.191 0.067,0.4192 -0.0209,0.50712 -0.0879,0.0879 -0.15046,-0.0684 -0.13897,-0.34726 z m 5.22117,-6.90557 c 0.191,-0.0764 0.4192,-0.067 0.50712,0.0209 0.0879,0.0879 -0.0684,0.15045 -0.34727,0.13896 -0.30822,-0.0127 -0.37092,-0.0754 -0.15985,-0.15985 z m 12.18669,-16.42187 c -0.3291,-0.41964 -0.31974,-0.429 0.0999,-0.0999 0.44073,0.34564 0.58089,0.56292 0.36313,0.56292 -0.055,0 -0.26331,-0.20836 -0.46303,-0.46303 z"
         id="path9" /><path
         style="fill:#605f5a"
         d="m 450.34579,297.54703 c -0.78312,-0.32442 -1.03337,-1.0694 -0.35923,-1.0694 0.28647,0 0.52086,0.16867 0.52086,0.37482 0,0.20616 0.14883,0.4249 0.33073,0.48611 0.47356,0.15933 1.27557,-0.0873 1.11719,-0.34356 -0.0735,-0.11893 -0.0209,-0.28593 0.11698,-0.37112 0.33206,-0.20522 0.56579,0.19671 0.33322,0.57301 -0.26359,0.4265 -1.40645,0.62078 -2.05975,0.35014 z m -11.54618,-0.1863 c 0.1819,-0.0734 0.47955,-0.0734 0.66146,0 0.1819,0.0734 0.0331,0.13345 -0.33073,0.13345 -0.36381,0 -0.51263,-0.06 -0.33073,-0.13345 z m 1.74774,-0.88678 c -0.0194,-0.47405 0.0852,-0.7744 0.25051,-0.7193 0.44147,0.14716 0.48838,0.56818 0.11951,1.07263 -0.30054,0.41102 -0.34034,0.37302 -0.37002,-0.35333 z m -2.82812,0.0919 c -0.30147,-0.30146 -0.19366,-0.88194 0.16379,-0.88194 0.18709,0 0.34017,0.23812 0.34017,0.52916 0,0.53897 -0.18692,0.66982 -0.50396,0.35278 z m 11.46527,-0.61736 c 0,-0.14552 0.11907,-0.26458 0.26459,-0.26458 0.14552,0 0.26458,0.11906 0.26458,0.26458 0,0.14552 -0.11906,0.26458 -0.26458,0.26458 -0.14552,0 -0.26459,-0.11906 -0.26459,-0.26458 z m 3.43959,-0.11668 c 0,-0.22687 0.11906,-0.41249 0.26458,-0.41249 0.14552,0 0.26458,0.11204 0.26458,0.24897 0,0.13693 -0.11906,0.32256 -0.26458,0.41249 -0.14552,0.0899 -0.26458,-0.0221 -0.26458,-0.24897 z m -3.41321,-1.0078 c 0.0145,-0.1819 0.12461,-0.62838 0.24468,-0.99219 0.18887,-0.57229 0.21369,-0.52771 0.18413,0.33073 -0.0188,0.54571 -0.1289,0.99219 -0.24468,0.99219 -0.11578,0 -0.19864,-0.14883 -0.18413,-0.33073 z m 3.5455,0.0661 c 0.0899,-0.14552 0.21602,-0.26459 0.2802,-0.26459 0.0642,0 0.11667,0.11907 0.11667,0.26459 0,0.14552 -0.12609,0.26458 -0.28019,0.26458 -0.15411,0 -0.20662,-0.11906 -0.11668,-0.26458 z m -0.0189,-1.05834 c 0,-0.29104 0.0935,-0.52916 0.20789,-0.52916 0.11433,0 0.20788,0.23812 0.20788,0.52916 0,0.29105 -0.0935,0.52917 -0.20788,0.52917 -0.11434,0 -0.20789,-0.23812 -0.20789,-0.52917 z m -15.19464,-0.13229 c 0,-0.21828 0.17859,-0.39687 0.39687,-0.39687 0.21828,0 0.39688,0.17859 0.39688,0.39687 0,0.21828 -0.1786,0.39688 -0.39688,0.39688 -0.21828,0 -0.39687,-0.1786 -0.39687,-0.39688 z m -1.52136,-0.83669 c -0.62151,-0.25078 -0.33169,-0.51361 0.59532,-0.53989 0.96043,-0.0272 1.23676,0.27469 0.50752,0.55452 -0.46855,0.1798 -0.62618,0.17771 -1.10284,-0.0146 z m 16.60261,-0.039 c 0,-0.14208 0.18854,-0.33068 0.41898,-0.41911 0.25768,-0.0989 0.37864,-0.0398 0.31419,0.1536 -0.13183,0.39551 -0.73317,0.61327 -0.73317,0.26551 z m -18.65313,-0.31494 c -0.42449,-0.18241 -0.3329,-0.23107 0.46302,-0.24599 0.54571,-0.0102 0.99219,0.10047 0.99219,0.24599 0,0.31594 -0.71996,0.31594 -1.45521,0 z m 7.39048,-0.0834 c -0.0735,-0.1914 -0.0177,-0.63789 0.12382,-0.99219 0.23704,-0.59331 0.25869,-0.56583 0.27414,0.348 0.017,1.00419 -0.15376,1.28056 -0.39796,0.64419 z m 14.77341,-0.0999 c 0.25743,-0.0671 0.61462,-0.0627 0.79375,0.01 0.17913,0.0725 -0.0315,0.12736 -0.46805,0.12197 -0.43657,-0.005 -0.58313,-0.0647 -0.3257,-0.13178 z m 1.51632,-0.32474 c 0,-0.14265 0.16114,-0.35457 0.35808,-0.47094 0.19694,-0.11638 0.4053,-0.3566 0.46302,-0.53384 0.0602,-0.185 0.24605,-0.23454 0.43624,-0.11632 0.23675,0.14716 0.10462,0.37352 -0.46302,0.79319 -0.43688,0.323 -0.79432,0.47055 -0.79432,0.32791 z m -25.67671,-0.5729 c -0.41915,-0.78318 -0.0802,-0.96998 0.54409,-0.29987 0.62758,0.67363 0.6566,0.8517 0.1388,0.8517 -0.21316,0 -0.52046,-0.24832 -0.68289,-0.55183 z m 9.45762,-1.39039 c -0.0749,-0.1951 -0.0299,-0.52252 0.0999,-0.72761 0.1718,-0.27137 0.23716,-0.17481 0.24011,0.35473 0.004,0.7901 -0.12534,0.93237 -0.34004,0.37288 z m -9.38978,-0.28005 c 0.18764,-0.20361 0.38285,-0.33059 0.4338,-0.28219 0.15694,0.14908 -0.24081,0.65238 -0.51556,0.65238 -0.14267,0 -0.10588,-0.16659 0.0818,-0.37019 z m 25.60887,-0.0591 c 0,-0.35157 0.0718,-0.36965 0.39688,-0.0999 0.21828,0.18116 0.39687,0.37433 0.39687,0.42927 0,0.0549 -0.17859,0.0999 -0.39687,0.0999 -0.21829,0 -0.39688,-0.19318 -0.39688,-0.42928 z m -24.71629,-0.45934 c 0.0918,-0.23929 0.45797,-0.4343 0.81542,-0.4343 0.37208,0 0.57789,0.11468 0.48258,0.2689 -0.0914,0.14789 -0.28224,0.19717 -0.42408,0.10951 -0.14184,-0.0877 -0.434,-0.0132 -0.64924,0.1654 -0.32262,0.26776 -0.36207,0.24853 -0.22468,-0.10951 z m 2.95431,-0.0804 c 0.1819,-0.0734 0.47956,-0.0734 0.66146,0 0.1819,0.0734 0.0331,0.13345 -0.33073,0.13345 -0.3638,0 -0.51263,-0.06 -0.33073,-0.13345 z m 1.86749,-0.7463 c 0.0598,-0.51181 0.20083,-0.93056 0.31351,-0.93056 0.28958,0 0.12405,1.67905 -0.17537,1.77886 -0.13573,0.0452 -0.19789,-0.33649 -0.13814,-0.8483 z m 17.63451,0.63912 c -0.18852,-0.30504 0.94099,-0.32007 1.41597,-0.0188 0.2303,0.14606 0.0765,0.2275 -0.45843,0.2427 -0.44277,0.0126 -0.87366,-0.0881 -0.95754,-0.22386 z m -5.50113,-0.15857 c -0.28849,-0.28849 -0.20012,-1.94027 0.10381,-1.94027 0.15411,0 0.19544,-0.13714 0.0918,-0.30475 -0.10358,-0.16761 -0.24309,-1.02297 -0.31001,-1.9008 -0.10807,-1.41763 -0.0774,-1.55175 0.2746,-1.19978 0.47019,0.4702 0.53418,4.47367 0.0766,4.79034 -0.18653,0.12908 -0.1698,0.19574 0.0498,0.19843 0.1819,0.002 0.33073,0.12312 0.33073,0.26864 0,0.30106 -0.35393,0.35162 -0.61736,0.0882 z m 4.18924,-0.0882 c -0.20696,-0.33486 0.1433,-0.33486 0.66145,0 0.34203,0.22103 0.33504,0.25704 -0.0505,0.26053 -0.24607,0.002 -0.52099,-0.11501 -0.61092,-0.26053 z m -12.76615,-0.64584 c 0,-0.952 0.64339,-1.07141 0.67031,-0.12441 0.0133,0.46922 -0.11336,0.77025 -0.3242,0.77025 -0.19056,0 -0.34611,-0.29025 -0.34611,-0.64584 z m 13.16302,-1.20624 c -0.64819,-0.20759 -0.64554,-0.21229 0.13229,-0.23416 0.43656,-0.0123 0.97235,0.0931 1.19063,0.23416 0.32695,0.21129 0.30364,0.25254 -0.13229,0.23415 -0.29105,-0.0123 -0.82683,-0.11764 -1.19063,-0.23415 z m 1.98438,0.0417 c 0.37517,-0.36949 1.41612,-0.48951 1.50932,-0.17404 0.043,0.14553 -0.33854,0.30284 -0.84787,0.3496 -0.60987,0.056 -0.8357,-0.004 -0.66145,-0.17556 z m -14.98343,-0.17404 c -0.25999,-0.4125 -0.25573,-3.30729 0.005,-3.30729 0.12786,0 0.27739,0.20836 0.33228,0.46302 0.14835,0.68818 -0.14362,3.15132 -0.33714,2.84427 z m -9.09476,-0.49725 c -0.33096,-0.24201 -0.38313,-0.40537 -0.17127,-0.53631 0.16756,-0.10356 0.30466,-0.0552 0.30466,0.10752 0,0.1627 0.11084,0.22732 0.2463,0.14359 0.13547,-0.0837 0.31601,-0.0394 0.4012,0.0984 0.26268,0.42503 -0.27816,0.5544 -0.78089,0.1868 z m 26.06256,0.0122 c 0,-0.24513 0.20564,-0.43918 0.46302,-0.43693 0.26424,0.002 0.34943,0.0888 0.19844,0.20152 -0.14552,0.10861 -0.35388,0.30522 -0.46302,0.43692 -0.10914,0.1317 -0.19844,0.041 -0.19844,-0.20151 z m 0,-2.17638 c 0,-0.22687 0.11906,-0.33891 0.26458,-0.24897 0.14552,0.0899 0.26459,0.27556 0.26459,0.41249 0,0.13693 -0.11907,0.24897 -0.26459,0.24897 -0.14552,0 -0.26458,-0.18562 -0.26458,-0.41249 z m -26.59062,-0.11668 c 0.0899,-0.14552 0.21602,-0.26458 0.28019,-0.26458 0.0642,0 0.11668,0.11906 0.11668,0.26458 0,0.14552 -0.12609,0.26458 -0.2802,0.26458 -0.15411,0 -0.20661,-0.11906 -0.11667,-0.26458 z m 1.4552,-0.52917 c 0,-0.14552 0.18562,-0.26458 0.41249,-0.26458 0.22687,0 0.33891,0.11906 0.24897,0.26458 -0.0899,0.14552 -0.27556,0.26459 -0.41249,0.26459 -0.13693,0 -0.24897,-0.11907 -0.24897,-0.26459 z m 1.5875,-0.0331 c 0,-0.12733 0.29766,-0.23151 0.66146,-0.23151 0.3638,0 0.66146,0.10418 0.66146,0.23151 0,0.12733 -0.29766,0.23151 -0.66146,0.23151 -0.3638,0 -0.66146,-0.10418 -0.66146,-0.23151 z m 2.38125,0.0331 c 0,-0.14552 0.23813,-0.26458 0.52917,-0.26458 0.29104,0 0.52917,0.11906 0.52917,0.26458 0,0.14552 -0.23813,0.26459 -0.52917,0.26459 -0.29104,0 -0.52917,-0.11907 -0.52917,-0.26459 z m 16.31598,0.0882 c -0.097,-0.097 -0.16421,-0.5435 -0.14931,-0.99219 l 0.0271,-0.8158 0.21725,0.92425 c 0.22634,0.96297 0.20284,1.1816 -0.095,0.88374 z m 0.61736,-0.0882 c 0,-0.14552 0.24515,-0.26458 0.54478,-0.26458 0.29963,0 0.4712,0.11906 0.38126,0.26458 -0.0899,0.14552 -0.33509,0.26459 -0.54478,0.26459 -0.2097,0 -0.38126,-0.11907 -0.38126,-0.26459 z m 1.32291,-0.0331 c 0,-0.12733 0.29766,-0.23151 0.66146,-0.23151 0.3638,0 0.66146,0.10418 0.66146,0.23151 0,0.12733 -0.29766,0.23151 -0.66146,0.23151 -0.3638,0 -0.66146,-0.10418 -0.66146,-0.23151 z m 1.5875,0.0414 c 0,-0.14096 0.1786,-0.18775 0.39688,-0.10399 0.21828,0.0838 0.39687,0.19909 0.39687,0.25628 0,0.0572 -0.17859,0.10399 -0.39687,0.10399 -0.21828,0 -0.39688,-0.11533 -0.39688,-0.25628 z m -7.12515,-2.3078 c 0.0102,-0.11773 0.12092,-0.45217 0.24599,-0.74322 0.21923,-0.51017 0.22805,-0.50836 0.24598,0.0505 0.0102,0.31883 -0.10046,0.65328 -0.24598,0.74321 -0.14552,0.0899 -0.25622,0.0672 -0.24599,-0.0505 z m -11.66026,-0.45658 c 0,-0.23041 0.18851,-0.41893 0.41892,-0.41893 0.46724,0 0.38587,0.56959 -0.10473,0.73312 -0.17281,0.0576 -0.31419,-0.0838 -0.31419,-0.31419 z m 14.33688,-0.47802 c 0.0791,-0.81409 0.13702,-0.85494 1.27353,-0.89884 0.65485,-0.0253 0.85394,0.0101 0.44244,0.0787 -0.53391,0.089 -0.82548,0.34636 -1.01807,0.89883 -0.36102,1.03562 -0.8014,0.98599 -0.6979,-0.0786 z m -17.65505,-0.48768 c -0.0959,-0.1552 -0.11087,-0.34572 -0.0332,-0.42337 0.18952,-0.18952 0.70555,0.14442 0.70555,0.45659 0,0.33813 -0.45678,0.31556 -0.67233,-0.0332 z m 13.01956,0.1058 c -0.3452,-0.34519 -0.16984,-0.67672 0.19693,-0.37233 0.2552,0.21181 0.42757,0.22206 0.54478,0.0324 0.20832,-0.33707 1.72773,-0.37326 1.72773,-0.0412 0,0.48054 -2.05314,0.79738 -2.46944,0.38108 z m -14.19931,-0.35278 c -0.32093,-0.2074 -0.28296,-0.25725 0.19844,-0.26053 0.32742,-0.002 0.59531,0.11501 0.59531,0.26053 0,0.33151 -0.28079,0.33151 -0.79375,0 z m -2.05052,-0.45463 c -0.52212,-0.18729 -0.38525,-0.6037 0.19844,-0.6037 0.29104,0 0.52916,0.11204 0.52916,0.24897 0,0.33867 -0.32739,0.49829 -0.7276,0.35473 z m 26.65677,-0.0282 c 0,-0.14377 0.23813,-0.19913 0.52917,-0.12302 0.29585,0.0774 0.52916,0.008 0.52916,-0.15706 0,-0.16249 0.29766,-0.29544 0.66146,-0.29544 0.5693,0 1.00872,0.51168 0.46302,0.53916 -0.10914,0.005 -0.64492,0.0747 -1.19062,0.15388 -0.5741,0.0833 -0.99219,0.0337 -0.99219,-0.11752 z m 2.86081,-0.49168 c 0.19099,-0.0764 0.4192,-0.067 0.50712,0.0209 0.0879,0.0879 -0.0684,0.15045 -0.34727,0.13896 -0.30822,-0.0127 -0.37092,-0.0754 -0.15985,-0.15985 z m -31.67393,-0.44883 c -0.1666,-0.20074 -0.65743,-0.43589 -1.09073,-0.52255 -0.91402,-0.1828 -1.04837,-0.56772 -0.21994,-0.63013 0.32919,-0.0248 0.78946,0.23893 1.09508,0.62746 0.34562,0.43939 0.59094,0.56711 0.71225,0.37082 0.12999,-0.21032 0.28614,-0.1776 0.52482,0.10999 0.28737,0.34627 0.25817,0.4094 -0.1894,0.4094 -0.29104,0 -0.66548,-0.16425 -0.83208,-0.36499 z m 33.7304,0.167 c -0.0851,-0.0851 -0.15296,-0.28377 -0.15073,-0.44142 0.002,-0.15765 0.11947,-0.10804 0.26053,0.11024 0.14107,0.21828 0.25831,0.26293 0.26054,0.0992 0.002,-0.16371 0.3017,-0.29765 0.66551,-0.29765 0.3638,0 0.66145,0.033 0.66145,0.0733 0,0.17682 -1.55794,0.59563 -1.6973,0.45628 z m 2.22647,-0.98862 c 0,-0.24796 0.17981,-0.3918 0.43295,-0.34634 0.26716,0.048 0.59645,-0.24925 0.8599,-0.77615 0.40683,-0.81367 1.0884,-1.18044 1.0884,-0.5857 0,0.15411 -0.1177,0.20745 -0.26155,0.11855 -0.14555,-0.09 -0.19677,0.007 -0.11549,0.21898 0.0874,0.22773 -0.15299,0.58784 -0.59834,0.89641 -1.26761,0.87826 -1.40587,0.9249 -1.40587,0.47425 z m -39.03674,-0.80019 c -0.49583,-0.38868 -0.48381,-0.40328 0.27528,-0.3343 0.43656,0.0397 0.77292,0.18823 0.74745,0.33011 -0.0773,0.43089 -0.47633,0.43252 -1.02273,0.004 z m 16.54716,-0.39445 c 0,-0.14552 0.35718,-0.26458 0.79375,-0.26458 0.43656,0 0.79375,0.11906 0.79375,0.26458 0,0.14552 -0.35719,0.26458 -0.79375,0.26458 -0.43657,0 -0.79375,-0.11906 -0.79375,-0.26458 z m 3.43958,0 c 0,-0.14552 0.18562,-0.26458 0.41249,-0.26458 0.22687,0 0.33891,0.11906 0.24897,0.26458 -0.0899,0.14552 -0.27556,0.26458 -0.41249,0.26458 -0.13693,0 -0.24897,-0.11906 -0.24897,-0.26458 z m 1.05833,0 c 0,-0.14552 0.11907,-0.26458 0.26459,-0.26458 0.14552,0 0.26458,0.11906 0.26458,0.26458 0,0.14552 -0.11906,0.26458 -0.26458,0.26458 -0.14552,0 -0.26459,-0.11906 -0.26459,-0.26458 z m -2.31007,-0.18335 c 0.25744,-0.0671 0.61462,-0.0627 0.79375,0.01 0.17914,0.0725 -0.0315,0.12736 -0.46805,0.12197 -0.43656,-0.005 -0.58313,-0.0647 -0.3257,-0.13177 z m -11.18368,-0.6104 c 0,-0.14552 0.12609,-0.26458 0.2802,-0.26458 0.15411,0 0.20662,0.11906 0.11668,0.26458 -0.0899,0.14552 -0.21603,0.26458 -0.2802,0.26458 -0.0642,0 -0.11668,-0.11906 -0.11668,-0.26458 z m 0.92605,0 c -0.0899,-0.14552 0.0221,-0.26458 0.24896,-0.26458 0.22687,0 0.41249,0.11906 0.41249,0.26458 0,0.14552 -0.11203,0.26458 -0.24897,0.26458 -0.13693,0 -0.32255,-0.11906 -0.41248,-0.26458 z m 3.69933,-0.19844 c -0.32474,-0.7761 -0.44436,-4.36304 -0.13921,-4.17445 0.15973,0.0987 0.20583,-9e-4 0.1127,-0.24358 -0.0867,-0.22584 -0.0372,-0.41061 0.10993,-0.41061 0.34658,0 0.37028,2.58246 0.0257,2.79545 -0.161,0.0995 -0.16858,0.28066 -0.0196,0.46925 0.22342,0.28289 0.38741,2.02696 0.19059,2.02696 -0.0475,0 -0.17347,-0.20836 -0.28003,-0.46302 z m 4.29379,-0.0661 c 0.0761,-0.29105 0.24356,-0.52917 0.37211,-0.52917 0.27661,0 0.28626,0.0844 0.0731,0.63982 -0.23312,0.6075 -0.60862,0.51418 -0.44523,-0.11065 z m 6.09666,0.33073 c -0.0532,-0.10915 -0.1287,-0.5854 -0.16785,-1.05834 -0.0488,-0.58908 0.0438,-0.85989 0.2939,-0.85989 0.23914,0 0.38663,0.3651 0.42753,1.05833 0.0545,0.92421 -0.27382,1.43425 -0.55358,0.8599 z m 3.52598,-0.33073 c -0.015,-0.77133 0.3927,-1.52661 0.67285,-1.24646 0.10638,0.10638 0.001,0.57918 -0.23328,1.05067 -0.40588,0.81541 -0.42733,0.82497 -0.43957,0.19579 z m 1.56653,0.30868 c 0,-0.12127 0.17859,-0.22049 0.39687,-0.22049 0.21828,0 0.39688,0.0992 0.39688,0.22049 0,0.12126 -0.1786,0.22048 -0.39688,0.22048 -0.21828,0 -0.39687,-0.0992 -0.39687,-0.22048 z m 1.05833,0.0122 c 0,-0.11455 0.23813,-0.22621 0.52917,-0.24814 0.29104,-0.0219 0.52916,0.0718 0.52916,0.20828 0,0.13648 -0.23812,0.24814 -0.52916,0.24814 -0.29104,0 -0.52917,-0.0937 -0.52917,-0.20828 z m -30.5356,-0.82378 c -0.31839,-0.35181 -0.36516,-0.5585 -0.1557,-0.68796 0.37245,-0.23018 0.60686,-0.01 0.71035,0.66851 0.0991,0.64952 0.0181,0.65236 -0.55465,0.0195 z m 34.10748,0.24284 c -0.72534,-0.13234 -0.66938,-0.17366 0.64922,-0.47934 0.79364,-0.18398 1.65684,-0.52805 1.91823,-0.76461 0.41772,-0.37802 0.47525,-0.38081 0.47525,-0.0231 0,0.22386 -0.2501,0.47243 -0.55578,0.55237 -0.31771,0.0831 -0.47864,0.27017 -0.37569,0.43675 0.11914,0.19278 -0.0458,0.25045 -0.48726,0.17039 -0.36705,-0.0666 -0.70401,-0.037 -0.74879,0.0657 -0.0448,0.10267 -0.43862,0.12151 -0.87518,0.0419 z m 9.32674,-0.40772 c -0.0702,-0.36727 -0.0246,-0.73149 0.10145,-0.80936 0.126,-0.0779 0.2291,0.22262 0.2291,0.66777 0,0.98225 -0.15699,1.0495 -0.33055,0.14159 z m -37.19491,0.19783 c -0.17048,-0.0568 -0.30996,-0.26825 -0.30996,-0.46984 0,-0.20532 -0.16278,-0.30406 -0.37011,-0.2245 -0.20356,0.0781 -0.44992,0.0129 -0.54745,-0.14491 -0.0975,-0.15781 -0.26346,-0.23371 -0.36872,-0.16866 -0.10525,0.0651 -0.20869,-0.1116 -0.22985,-0.39256 -0.0212,-0.28096 0.0732,-0.51083 0.20966,-0.51083 0.13647,0 0.24814,0.17859 0.24814,0.39687 0,0.21828 0.21431,0.39688 0.47625,0.39688 0.26193,0 0.59223,0.11598 0.73399,0.25774 0.14176,0.14176 0.73112,0.43403 1.30969,0.64949 l 1.05194,0.39174 -0.94681,-0.0391 c -0.52075,-0.0215 -1.0863,-0.0855 -1.25677,-0.14237 z m -6.90366,-1.80106 c 0.0127,-0.30823 0.0754,-0.37092 0.15986,-0.15985 0.0764,0.19099 0.067,0.4192 -0.0209,0.50711 -0.0879,0.0879 -0.15045,-0.0684 -0.13897,-0.34726 z m 25.11453,-0.22692 c 0,-0.35521 0.11907,-0.71943 0.26459,-0.80937 0.15436,-0.0954 0.26458,0.17365 0.26458,0.64585 0,0.44515 -0.11906,0.80936 -0.26458,0.80936 -0.14552,0 -0.26459,-0.29063 -0.26459,-0.64584 z m 13.75834,0.38126 c 0,-0.14552 0.11906,-0.26458 0.26458,-0.26458 0.14552,0 0.26458,0.11906 0.26458,0.26458 0,0.14552 -0.11906,0.26458 -0.26458,0.26458 -0.14552,0 -0.26458,-0.11906 -0.26458,-0.26458 z m -9.56444,-1.30711 c -0.0987,-1.42703 -0.0338,-1.86789 0.27515,-1.86789 0.22148,0 0.19092,2.83656 -0.033,3.06046 -0.0821,0.0821 -0.1911,-0.45453 -0.24217,-1.19257 z m -9.56718,0.84409 c -0.22193,-0.39024 -0.14282,-1.91823 0.0993,-1.91823 0.13579,0 0.24689,0.47625 0.24689,1.05833 0,1.01766 -0.10631,1.28172 -0.3462,0.8599 z m 23.82797,-0.24853 c -0.25466,-0.0666 -0.46302,-0.23133 -0.46302,-0.36618 0,-0.13486 -0.17859,-0.24519 -0.39687,-0.24519 -0.21829,0 -0.39688,-0.16867 -0.39688,-0.37482 0,-0.20616 -0.14883,-0.42798 -0.33073,-0.49295 -0.1819,-0.065 -0.24957,-0.20565 -0.15039,-0.31263 0.21621,-0.2332 1.25735,0.51511 1.89754,1.36383 0.2532,0.33568 0.42504,0.59651 0.38187,0.57963 -0.0432,-0.0169 -0.28686,-0.0851 -0.54152,-0.15169 z m -5.59514,-0.56727 c -0.075,-0.12127 0.0318,-0.22049 0.23733,-0.22049 0.20548,0 0.31228,0.0992 0.23733,0.22049 -0.075,0.12127 -0.18175,0.22049 -0.23733,0.22049 -0.0556,0 -0.16238,-0.0992 -0.23733,-0.22049 z m -37.20121,-0.31974 c 0,-0.43419 1.03069,-1.42769 1.25177,-1.20661 0.10946,0.10946 -0.008,0.31507 -0.26179,0.45691 -0.25345,0.14184 -0.46082,0.43056 -0.46082,0.64161 0,0.21105 -0.11906,0.38373 -0.26458,0.38373 -0.14552,0 -0.26458,-0.12404 -0.26458,-0.27564 z m 4.39845,-0.20041 c -0.10799,-0.17473 -0.13953,-0.3177 -0.0701,-0.3177 0.0694,0 0.3146,-0.0723 0.54478,-0.1606 0.23417,-0.0899 0.41851,-0.0247 0.41851,0.14791 0,0.16968 -0.10889,0.24121 -0.24198,0.15895 -0.13309,-0.0822 -0.28989,-0.006 -0.34844,0.16979 -0.0827,0.24812 -0.15024,0.24849 -0.30279,0.002 z m 30.52655,-0.18541 -0.66146,-0.37812 0.98388,-0.009 c 0.76804,-0.007 0.95048,0.0777 0.83159,0.3875 -0.18531,0.48292 -0.30924,0.48292 -1.15401,0 z m -10.05417,-0.48507 c 0,-0.19402 0.17859,-0.35277 0.39688,-0.35277 0.21828,0 0.39687,0.15875 0.39687,0.35277 0,0.19403 -0.17859,0.35278 -0.39687,0.35278 -0.21829,0 -0.39688,-0.15875 -0.39688,-0.35278 z m 7.53796,-0.1807 c -0.0914,-0.14789 -0.29542,-0.18903 -0.45337,-0.0914 -0.16738,0.10344 -0.2114,0.0549 -0.10554,-0.11642 0.20056,-0.32451 0.95845,-0.13437 0.95845,0.24045 0,0.31531 -0.19431,0.29944 -0.39954,-0.0326 z m -25.66192,-0.26027 c 0.0899,-0.14552 0.27556,-0.26458 0.41249,-0.26458 0.13693,0 0.24897,0.11906 0.24897,0.26458 0,0.14552 -0.18562,0.26459 -0.41249,0.26459 -0.22687,0 -0.33891,-0.11907 -0.24897,-0.26459 z m 1.33817,-0.23991 c -0.0815,-0.13195 0.09,-0.17759 0.38126,-0.10143 0.6178,0.16156 0.69589,0.34134 0.14827,0.34134 -0.20969,0 -0.44798,-0.10796 -0.52953,-0.23991 z m 10.97541,0.23991 c -0.32019,-0.83159 -0.18635,-1.05653 0.60827,-1.0223 0.59438,0.0256 0.66889,0.0686 0.25744,0.14856 -0.31848,0.0619 -0.63209,0.31357 -0.69691,0.55928 -0.0648,0.24572 -0.14079,0.38722 -0.1688,0.31446 z m 10.64406,-0.18335 c 0.25743,-0.0671 0.61462,-0.0627 0.79375,0.01 0.17913,0.0725 -0.0315,0.12736 -0.46805,0.12197 -0.43657,-0.005 -0.58313,-0.0647 -0.3257,-0.13177 z m -27.70748,-0.45464 c 0.51924,-0.37968 0.91338,-0.32598 0.91338,0.12444 0,0.13693 -0.32041,0.24897 -0.71202,0.24897 -0.67787,0 -0.68753,-0.0179 -0.20136,-0.37341 z m 11.92625,0.16167 c -0.0839,-0.13582 -0.69118,-0.20663 -1.34941,-0.15735 -0.65824,0.0493 -1.19679,-0.006 -1.19679,-0.1224 0,-0.31288 2.6052,-0.31747 2.79836,-0.005 0.0908,0.14687 0.10551,0.32657 0.0328,0.39933 -0.0728,0.0728 -0.20097,0.0212 -0.28491,-0.11465 z m 10.88028,0.0563 c -0.0855,-0.0855 -0.9095,-0.14968 -1.8311,-0.1426 -0.9216,0.007 -1.85375,-0.0988 -2.07145,-0.23522 -0.26066,-0.16338 0.48502,-0.2373 2.18388,-0.21649 1.98053,0.0242 2.57969,0.11499 2.57969,0.39068 0,0.36019 -0.56972,0.49493 -0.86102,0.20363 z m 14.35477,-0.27381 c 0,-0.36746 0.0667,-0.37824 0.46302,-0.0749 0.25466,0.19492 0.51263,0.38809 0.57327,0.42927 0.0606,0.0412 -0.14773,0.0749 -0.46303,0.0749 -0.3524,0 -0.57326,-0.16538 -0.57326,-0.42927 z m -35.18958,-0.62906 c 0,-0.14553 0.11906,-0.26459 0.26458,-0.26459 0.14552,0 0.26458,0.11906 0.26458,0.26459 0,0.14552 -0.11906,0.26458 -0.26458,0.26458 -0.14552,0 -0.26458,-0.11906 -0.26458,-0.26458 z m 33.27595,-0.0443 c 0.22837,-0.22837 0.46626,-0.23304 0.91281,-0.0179 0.56718,0.27325 0.54838,0.29205 -0.30887,0.30887 -0.69579,0.0136 -0.83938,-0.0555 -0.60394,-0.29096 z m -1.56399,-0.20212 c -0.0562,-0.16845 -0.3668,-0.32621 -0.69034,-0.35058 -0.34887,-0.0263 -0.49128,-0.14128 -0.34996,-0.2826 0.38403,-0.38403 1.63536,0.146 1.36647,0.57879 -0.15613,0.25131 -0.25503,0.2678 -0.32617,0.0544 z m -30.12446,-0.54734 c 0.52003,-0.33608 1.32291,-0.33608 1.32291,0 0,0.14552 -0.38695,0.26276 -0.85989,0.26053 -0.65252,-0.003 -0.76419,-0.0659 -0.46302,-0.26053 z m 3.30729,-0.79816 c 0.70887,-0.29871 1.98437,-0.31745 1.98437,-0.0292 0,0.12707 -0.56554,0.23578 -1.25677,0.24158 -0.91696,0.008 -1.11369,-0.0497 -0.7276,-0.21243 z m 8.00673,0.0819 c 0.32912,-0.0633 0.80537,-0.0609 1.05833,0.005 0.25297,0.0662 -0.0163,0.118 -0.59839,0.11507 -0.58209,-0.003 -0.78906,-0.0571 -0.45994,-0.12041 z m 8.20208,0 c 0.32912,-0.0633 0.80537,-0.0609 1.05834,0.005 0.25296,0.0662 -0.0163,0.118 -0.5984,0.11507 -0.58208,-0.003 -0.78906,-0.0571 -0.45994,-0.12041 z m 5.19464,-0.12244 c -0.26872,-0.43479 -0.0243,-0.44933 1.6153,-0.0961 l 1.5875,0.34204 -1.52266,0.004 c -0.83747,0.002 -1.59353,-0.11024 -1.68014,-0.25039 z m -16.55827,-0.66492 c 0.191,-0.0764 0.4192,-0.067 0.50712,0.0209 0.0879,0.0879 -0.0684,0.15045 -0.34727,0.13896 -0.30822,-0.0127 -0.37092,-0.0754 -0.15985,-0.15985 z m 1.05833,0 c 0.191,-0.0764 0.4192,-0.067 0.50712,0.0209 0.0879,0.0879 -0.0684,0.15045 -0.34726,0.13896 -0.30823,-0.0127 -0.37092,-0.0754 -0.15986,-0.15985 z m 1.76941,-0.0772 c 1.00509,-0.26418 2.12548,-0.32415 1.90319,-0.10187 -0.0931,0.0932 -0.73807,0.20113 -1.43316,0.23994 -1.03225,0.0576 -1.11836,0.0323 -0.47003,-0.13807 z m 5.07025,-0.0757 c 0.0682,-0.11072 0.46503,-0.17532 0.88196,-0.14355 0.41693,0.0318 0.70288,0.14703 0.63545,0.25613 -0.0674,0.10911 -0.46431,0.17371 -0.88196,0.14356 -0.41765,-0.0301 -0.7036,-0.14541 -0.63545,-0.25614 z m 2.10004,0.0261 c 0.18516,-0.29961 1.20367,-0.27354 1.69325,0.0433 0.28734,0.18598 0.0895,0.24603 -0.71668,0.21759 -0.61245,-0.0216 -1.05191,-0.13903 -0.97657,-0.26093 z m -3.92915,-0.13228 c 0.1819,-0.0734 0.47956,-0.0734 0.66146,0 0.1819,0.0734 0.0331,0.13345 -0.33073,0.13345 -0.3638,0 -0.51263,-0.06 -0.33073,-0.13345 z"
         id="path8" /></g></g></svg>
