<?xml version="1.0" encoding="UTF-8" standalone="no"?>
<!-- Created with Inkscape (http://www.inkscape.org/) -->

<svg
   width="30.154675mm"
   height="56.424206mm"
   viewBox="0 0 30.154675 56.424206"
   version="1.1"
   id="svg1"
   xml:space="preserve"
   xmlns:inkscape="http://www.inkscape.org/namespaces/inkscape"
   xmlns:sodipodi="http://sodipodi.sourceforge.net/DTD/sodipodi-0.dtd"
   xmlns="http://www.w3.org/2000/svg"
   xmlns:svg="http://www.w3.org/2000/svg"><sodipodi:namedview
     id="namedview1"
     pagecolor="#ffffff"
     bordercolor="#000000"
     borderopacity="0.25"
     inkscape:showpageshadow="2"
     inkscape:pageopacity="0.0"
     inkscape:pagecheckerboard="0"
     inkscape:deskcolor="#d1d1d1"
     inkscape:document-units="mm" /><defs
     id="defs1" /><g
     inkscape:label="Layer 1"
     inkscape:groupmode="layer"
     id="layer1"
     transform="translate(-71.228723,-576.89989)"><g
       id="g7"><path
         style="fill:#24b9d8"
         d="m 94.952103,619.18994 c -0.002,-0.16057 -0.86725,-0.43176 -1.92228,-0.60263 -1.05502,-0.17087 -2.454199,-0.48572 -3.109277,-0.69966 -1.437307,-0.46943 -4.257686,-2.71811 -5.011432,-3.99562 -0.522883,-0.88622 -0.592996,-0.91756 -1.685932,-0.75366 -2.284415,0.34256 -5.85267,-0.77582 -7.697053,-2.41246 -0.684036,-0.607 -0.781721,-0.8912 -0.885989,-2.5777 -0.135509,-2.1918 0.539585,-4.41967 1.657495,-5.4699 0.362314,-0.34037 0.658753,-0.76769 0.658753,-0.94959 0,-0.2409 0.413217,-0.18542 1.521355,0.20427 2.127358,0.74811 4.78104,0.60422 5.756449,-0.31212 0.638402,-0.59975 0.677272,-0.76429 0.529391,-2.24104 -0.132148,-1.31964 -0.06819,-1.73983 0.371849,-2.44299 1.076691,-1.72049 3.762026,-2.43761 7.290311,-1.94687 2.48614,0.34579 5.69731,1.28762 5.69731,1.67101 0,0.15323 0.3042,0.90034 0.67599,1.66027 0.94442,1.93031 1.15333,4.61296 0.87894,11.28653 -0.27561,6.70343 -0.393,7.06157 -2.72546,8.31533 -0.84155,0.45235 -1.635,0.98813 -1.76323,1.19062 -0.12822,0.20249 -0.23496,0.23679 -0.23719,0.0762 z"
         id="path5"
         sodipodi:nodetypes="sssssssssssssssssssss" /><path
         style="fill:#23d7a1"
         d="m 78.30694,601.89722 c -1.627882,-0.60091 -2.226389,-1.07021 -3.082358,-2.41692 -1.548322,-2.436 -1.72412,-4.66727 -0.920491,-11.68306 0.690303,-6.02642 0.990088,-6.98729 2.643909,-8.47422 2.042023,-1.83595 3.965644,-2.44266 7.681305,-2.42266 2.906651,0.0156 3.214259,0.0733 6.879167,1.28964 4.758671,1.57934 5.890171,2.1503 7.462151,3.7654 1.793377,1.84258 2.425487,3.42539 2.412577,6.04108 -0.0208,4.20992 -0.99051,7.51583 -2.412587,8.22482 -0.47777,0.23819 -0.96986,0.17504 -2.47331,-0.31741 -5.266176,-1.72494 -9.899587,-1.3037 -11.361871,1.03295 -0.440041,0.70316 -0.503997,1.12335 -0.371849,2.44299 0.148068,1.47861 0.109541,1.64079 -0.533249,2.24466 -0.962107,0.90385 -3.853088,1.03696 -5.923394,0.27273 z"
         id="path4"
         sodipodi:nodetypes="ssssssssssssss" /><path
         style="fill:#2d4dd6"
         d="m 90.58243,633.07891 c -0.436562,-0.13646 -3.195316,-0.41619 -6.130564,-0.6216 -2.935248,-0.20542 -6.41647,-0.5719 -7.736049,-0.8144 -1.635462,-0.30056 -2.631818,-0.36409 -3.129852,-0.19958 -1.137154,0.37563 -1.590347,0.13614 -2.057591,-1.08731 -0.399967,-1.0473 -0.399811,-1.41582 0.0021,-4.94455 0.764577,-6.71318 2.673495,-15.0577 3.444644,-15.0577 0.06854,0 0.655389,0.40514 1.304101,0.90032 1.634401,1.24756 3.566732,1.84248 6.077022,1.87096 2.067213,0.0235 2.099242,0.0343 2.645833,0.89375 0.809607,1.27305 3.53187,3.41591 4.912352,3.86681 0.658453,0.21506 2.069777,0.53238 3.136267,0.70515 l 1.93908,0.31411 -0.0951,6.10935 c -0.10805,6.94187 -0.18979,7.28239 -1.90527,7.93754 -1.233122,0.47094 -1.296494,0.47428 -2.406966,0.12715 z"
         id="path2"
         sodipodi:nodetypes="sssssssssssscssss" /></g></g></svg>
