<?xml version="1.0" encoding="UTF-8" standalone="no"?>
<!-- Created with Inkscape (http://www.inkscape.org/) -->

<svg
   width="101.82792mm"
   height="121.97034mm"
   viewBox="0 0 101.82792 121.97034"
   version="1.1"
   id="svg1"
   xml:space="preserve"
   xmlns:inkscape="http://www.inkscape.org/namespaces/inkscape"
   xmlns:sodipodi="http://sodipodi.sourceforge.net/DTD/sodipodi-0.dtd"
   xmlns="http://www.w3.org/2000/svg"
   xmlns:svg="http://www.w3.org/2000/svg"><sodipodi:namedview
     id="namedview1"
     pagecolor="#ffffff"
     bordercolor="#000000"
     borderopacity="0.25"
     inkscape:showpageshadow="2"
     inkscape:pageopacity="0.0"
     inkscape:pagecheckerboard="0"
     inkscape:deskcolor="#d1d1d1"
     inkscape:document-units="mm" /><defs
     id="defs1" /><g
     inkscape:label="Layer 1"
     inkscape:groupmode="layer"
     id="layer1"
     transform="translate(12.518228,-531.34489)"><path
       id="path2"
       style="fill:#f31670"
       d="m 39.977709,531.34488 c -2.75348,0.003 -8.58232,0.68204 -10.3234,1.20199 -1.68899,0.50441 -2.21202,1.03487 -3.1166,3.16105 -0.90495,2.12703 -1.11455,4.04661 -1.12655,10.31875 -0.0152,7.94717 -0.54646,19.24769 -0.92397,19.65152 -0.61613,0.65904 -12.24307,1.80037 -23.56704019,2.31303 -11.50243981,0.52075 -12.52230981,0.79177 -13.14286981,3.49436 -0.4532,1.97371 -0.37668,6.54035 0.17157,10.25984 0.23594,1.60073 0.48582,4.45823 0.55552,6.35 0.13661,3.7068 0.56509,6.93345 0.99425,7.48947 0.14689,0.19031 0.6652898,0.51242 1.1518698,0.71572 0.48657,0.20331 0.95078,0.58368 1.03198,0.84491 0.37124,1.19411 0.52466,1.26417 3.44578,1.58181 4.46960001,0.48602 12.69636,0.41149 19.6825202,-0.17828 6.79299,-0.57345 9.45794,-0.64981 10.02885,-0.28836 0.31238,0.19777 0.34503,1.67909 0.20515,9.32243 -0.0915,4.99805 -0.28037,12.36154 -0.41961,16.36334 -0.13924,4.00183 -0.33308,12.24692 -0.43098,18.3224 l -0.17828,11.04635 h 13.69373 13.69322 l -0.16846,-2.57968 c -0.61691,-9.45116 -1.48534,-52.83694 -1.06609,-53.25618 0.13814,-0.13815 3.10334,-0.36962 6.58978,-0.51419 3.48646,-0.14456 6.93447,-0.32372 7.66207,-0.39842 0.72761,-0.0747 2.93025,-0.30982 4.89479,-0.52245 1.96453,-0.21263 5.86345,-0.52989 8.66407,-0.70487 4.1435,-0.25892 5.28735,-0.25391 6.13968,0.0274 0.90713,0.29937 1.13415,0.28855 1.69757,-0.0806 0.35781,-0.23444 0.73079,-0.79115 0.82889,-1.23765 0.0984,-0.44791 0.52713,-1.0694 0.95601,-1.38648 0.83952,-0.62068 1.31594,-1.86532 1.03922,-2.71456 -0.18518,-0.56825 0.0231,-6.62525 0.51469,-14.94896 0.39707,-6.72309 0.13275,-8.04057 -2.0252,-10.09241 -2.43967,-2.31973 -4.61542,-2.75213 -12.65556,-2.51509 -3.20144,0.0944 -8.96964,0.35077 -12.81833,0.56947 -3.8487,0.21867 -7.08739,0.30803 -7.19698,0.19844 -0.10959,-0.10959 -0.38312,-3.95007 -0.60772,-8.53385 -0.68332,-13.94538 -0.84267,-15.85823 -1.46089,-17.51056 -1.34288,-3.58914 -6.05118,-5.77767 -12.41268,-5.76967 z"
       sodipodi:nodetypes="sssssssssssssssssccccssssssssssssssssssss" /></g></svg>
