<?xml version="1.0" encoding="UTF-8" standalone="no"?>
<!-- Created with Inkscape (http://www.inkscape.org/) -->

<svg
   width="24.656254mm"
   height="24.718325mm"
   viewBox="0 0 24.656254 24.718325"
   version="1.1"
   id="svg1"
   xml:space="preserve"
   xmlns:inkscape="http://www.inkscape.org/namespaces/inkscape"
   xmlns:sodipodi="http://sodipodi.sourceforge.net/DTD/sodipodi-0.dtd"
   xmlns="http://www.w3.org/2000/svg"
   xmlns:svg="http://www.w3.org/2000/svg"><sodipodi:namedview
     id="namedview1"
     pagecolor="#ffffff"
     bordercolor="#000000"
     borderopacity="0.25"
     inkscape:showpageshadow="2"
     inkscape:pageopacity="0.0"
     inkscape:pagecheckerboard="0"
     inkscape:deskcolor="#d1d1d1"
     inkscape:document-units="mm" /><defs
     id="defs1" /><g
     inkscape:label="Layer 1"
     inkscape:groupmode="layer"
     id="layer1"
     transform="translate(-61.557127,-318.55068)"><path
       style="fill:#000000"
       d="m -75.994485,437.69222 0.06667,-66.07969 5.423958,-0.34973 c 9.978381,-0.64339 42.580344,-0.49413 51.480651,0.2357 1.756807,0.14405 6.936025,0.26936 11.5093746,0.27845 7.50877596,0.0149 8.39540696,0.0628 9.14241,0.49317 0.454976,0.26216 1.228882,0.55903 1.719792,0.65972 0.49091,0.1007 2.083189,0.54448 3.538397,0.98619 l 2.645833,0.8031 6.0854164,-0.13871 c 8.547788,-0.19485 12.885905,-0.99974 20.264437,-3.75985 1.753201,-0.65583 3.526233,-1.19241 3.94007,-1.19241 0.413837,0 1.357592,-0.39855 2.097234,-0.88566 l 1.344803,-0.88566 8.666312,-0.18563 c 8.936715,-0.19143 13.557251,0.007 18.720478,0.80299 5.744743,0.88591 8.213649,3.1276 10.015,9.09335 1.534756,5.08283 2.085839,10.78796 3.092237,32.01269 0.293253,6.18464 0.691744,12.49495 0.885536,14.02292 0.282504,2.22743 0.33596,10.33053 0.26967,40.87812 -0.04547,20.95501 -0.0882,38.3679 -0.09496,38.69532 l -0.01228,0.59531 H 4.3726976 -76.061157 Z m 42.986385,62.70625 c -0.06062,-0.40018 -0.110223,-0.0728 -0.110223,0.72761 0,0.80036 0.0496,1.12778 0.110223,0.7276 0.06062,-0.40018 0.06062,-1.05503 0,-1.45521 z m 203.68621,2.51354 c -0.37926,-2.29668 -0.96704,-10.4804 -1.33497,-18.58698 -1.05668,-23.28161 -0.98995,-70.29541 0.12261,-86.38645 0.78695,-11.38169 1.1484,-18.96898 1.09527,-22.99137 -0.059,-4.46964 0.43531,-6.23397 2.30982,-8.24382 1.24826,-1.3384 3.3831,-2.3669 4.91292,-2.3669 0.35796,0 0.98601,-0.12812 1.39567,-0.28472 2.67672,-1.02322 13.45903,-2.23414 17.54587,-1.97051 3.88081,0.25034 5.7682,0.87775 7.9134,2.63059 3.25107,2.65646 9.89091,5.69534 14.82076,6.78307 3.97707,0.87751 9.5968,1.17881 15.33451,0.82215 2.78643,-0.17321 5.68955,-0.44529 6.45139,-0.60462 1.78795,-0.37394 8.60992,-3.84797 11.31074,-5.75991 1.15278,-0.81607 3.71447,-2.72753 5.69264,-4.24771 3.14978,-2.42053 3.71792,-2.75987 4.57255,-2.73111 0.53674,0.0181 1.45214,-0.0714 2.03422,-0.19884 0.58208,-0.12742 2.72521,-0.41914 4.7625,-0.64826 2.03729,-0.22913 5.01385,-0.68181 6.61458,-1.00596 2.79811,-0.56663 3.46684,-0.58937 17.33021,-0.58937 11.8815,0 15.25813,0.0831 19.18229,0.472 5.63508,0.55848 9.71716,1.12104 11.90625,1.64083 0.87313,0.20733 2.45071,0.57372 3.50573,0.8142 l 1.91823,0.43726 v 71.93816 71.93817 h -79.62759 -79.6276 z m -51.20785,-15.61762 c -1.16482,-0.30158 -1.6534,-1.25138 -1.79732,-3.49399 -0.11799,-1.83848 -0.16418,-1.9581 -0.81915,-2.12113 -1.08486,-0.27005 -3.4304,-1.69567 -4.42307,-2.68834 -1.57811,-1.57811 -2.22416,-3.20886 -2.22416,-5.61419 0,-1.85657 0.10095,-2.29736 0.86353,-3.77046 1.88867,-3.64843 7.76735,-6.82792 12.64833,-6.84088 2.84159,-0.008 5.89616,1.39155 8.08793,3.70454 3.63328,3.83419 4.12782,10.0503 0.94204,11.84081 -0.55332,0.31098 -1.23792,0.82282 -1.52134,1.13741 -0.28341,0.31459 -0.78873,0.67654 -1.12294,0.80434 -0.52479,0.20067 -0.58434,0.35663 -0.43669,1.14365 0.30973,1.65102 0.26984,5.39153 -0.0611,5.7251 -0.36152,0.36444 -8.83799,0.50923 -10.1361,0.17314 z m 2.0676,-2.02554 c 0.14934,-1.56782 -0.18387,-2.65903 -0.91348,-2.99147 -0.5346,-0.24358 -0.71384,-0.22811 -0.90772,0.0783 -0.28524,0.45084 -0.33438,3.51623 -0.0608,3.78986 0.10391,0.10391 0.5504,0.15352 0.99219,0.11024 0.70311,-0.0689 0.81404,-0.19192 0.88977,-0.98695 z m 3.43225,-0.45808 c 0.10813,-1.86583 -0.48666,-3.26386 -1.3886,-3.26386 -1.19856,0 -1.73329,0.84347 -1.73329,2.73403 0,0.92163 0.0847,1.76042 0.18827,1.86397 0.10355,0.10355 0.78816,0.15316 1.52136,0.11024 l 1.33308,-0.078 z m 4.16514,0.95169 c 0.25601,-0.41423 -0.41112,-3.65184 -0.84108,-4.0818 -0.50991,-0.50991 -1.84387,-0.0266 -2.05021,0.74279 -0.20396,0.76055 -0.20504,2.67325 -0.002,3.20286 0.18784,0.48951 2.60442,0.60324 2.8931,0.13615 z m -10.36013,-8.73683 c 2.62375,-2.06384 1.59385,-6.00239 -1.76233,-6.73953 -2.99286,-0.65734 -4.47965,4.1031 -2.04263,6.54012 0.95849,0.95849 2.72242,1.05094 3.80496,0.19941 z m 10.21685,0.217 c 0.87739,-0.43472 1.85353,-2.42025 1.84627,-3.75543 -0.0165,-3.02466 -2.76472,-5.31783 -4.72645,-3.94377 -0.99147,0.69445 -1.60537,2.37901 -1.61193,4.42317 -0.005,1.71177 0.0441,1.86234 0.89377,2.71198 0.71405,0.71404 1.10968,0.89878 1.91823,0.89568 0.56026,-0.002 1.31631,-0.15138 1.68011,-0.33163 z m -9.26041,-21.52522 c -0.36381,-0.23568 -1.31631,-1.19876 -2.11667,-2.14018 -0.80036,-0.94141 -2.43747,-2.69306 -3.63802,-3.89256 -1.20055,-1.19949 -2.18281,-2.37931 -2.18281,-2.62183 0,-1.03055 1.91184,-2.02354 3.9026,-2.02695 l 0.8599,-10e-4 -3.8e-4,-2.4474 c -2.2e-4,-1.34606 0.13798,-3.72477 0.3071,-5.28602 l 0.30749,-2.83863 1.08196,-0.38391 c 1.49661,-0.53105 5.36226,-0.76831 5.63599,-0.34592 0.11465,0.17692 0.26799,2.52026 0.34075,5.20742 l 0.13229,4.88576 0.66146,0.0263 c 1.96012,0.0781 2.37954,0.16012 2.75922,0.5398 0.22868,0.22868 0.41578,0.73173 0.41578,1.11791 0,0.89638 -5.03984,9.35295 -5.91632,9.92724 -1.00689,0.65975 -1.82581,0.74979 -2.55034,0.28041 z m -4.49792,-47.57074 c 0,-1.78115 0.10098,-1.74143 -4.42701,-1.74143 h -4.1058 l 0.16536,-0.82682 c 0.0909,-0.45475 0.16537,-1.22866 0.16537,-1.71979 v -0.89297 h 4.11625 4.11626 l -0.0814,-1.12448 -0.0814,-1.12448 -4.0349,-0.073 -4.03489,-0.073 v -1.58061 -1.58061 h 4.10104 4.10104 v -1.19063 -1.19062 h -4.10104 -4.10104 v -1.71979 -1.71979 h 4.10104 4.10104 v -0.79375 -0.79375 h 2.51354 2.51354 v 9.525 9.525 h -2.51354 -2.51354 z m 8.46666,-8.62059 v -9.525 h 2.49597 2.49597 l 0.0837,0.7276 0.0837,0.7276 3.83645,0.1323 c 2.11006,0.0728 3.98529,0.22861 4.16719,0.34634 0.19752,0.12784 0.33073,0.79118 0.33073,1.64693 v 1.43287 l -4.16719,0.0729 -4.16718,0.0729 v 1.05833 1.05834 l 3.9577,0.0735 c 2.75964,0.0513 4.01989,0.17142 4.16313,0.39688 0.11299,0.17784 0.20726,0.88586 0.20949,1.57339 l 0.004,1.25005 -4.16719,0.0729 -4.16718,0.0729 v 1.05833 1.05834 l 3.83645,0.13229 c 2.11006,0.0728 3.98529,0.22862 4.16719,0.34634 0.19783,0.12804 0.33073,0.79253 0.33073,1.65365 v 1.43959 h -4.10104 -4.10104 v 1.32292 1.32292 h -2.64584 -2.64583 z m -15.34583,-15.08125 v -3.96875 h 13.75833 13.75833 v 3.96875 3.96875 H 122.1128 108.35447 Z m 14.76501,0.0661 -0.0806,-1.25677 h -1.19062 -1.19062 l -0.0806,1.25677 -0.0806,1.25677 h 1.3519 1.35192 z m -7.09209,-0.21293 v -1.20512 l -1.25677,0.0806 -1.25677,0.0806 -0.0814,1.12448 -0.0814,1.12448 h 1.33813 1.33813 z m 14.3337,1.07072 c 0.0739,-0.0739 0.0626,-0.57993 -0.0251,-1.12448 -0.14865,-0.92261 -0.22819,-0.99575 -1.1671,-1.0733 -1.31021,-0.10821 -1.68722,0.23094 -1.55127,1.39548 0.10798,0.92492 0.12507,0.9367 1.35923,0.9367 0.68743,0 1.31035,-0.0605 1.38427,-0.1344 z m 91.64282,-82.50758 c -0.19165,-2.30072 0.11664,-3.642 1.08238,-4.70913 1.39602,-1.54259 1.61977,1.85549 0.32524,4.93944 -0.45674,1.08809 -0.9189,1.97834 -1.02704,1.97834 -0.10813,0 -0.27939,-0.99389 -0.38058,-2.20865 z m -5.659,-1.29904 c 0.11052,-2.98549 0.696,-4.5621 1.69418,-4.5621 0.42373,0 0.52829,0.21531 0.59357,1.22225 0.0596,0.91913 -0.16056,1.82135 -0.88767,3.63802 -0.53179,1.32867 -1.08696,2.41577 -1.23372,2.41577 -0.16856,0 -0.22982,-0.99943 -0.16636,-2.71394 z"
       id="path1"
       sodipodi:nodetypes="ccsssssscsssscscsssssccccsssssssssssssssssssssssssscccccssssssscsssssssssssssssssssscscsscccssssssscscscsssccsscssscssssccssccscccccccccccccccccccccccccccsccccccssscccccssscccccssscccccccccccccccccccccccccccccccccccssssssssssssssssss" /><path
       d="m 70.820828,343.07971 c -1.16482,-0.30158 -1.6534,-1.25138 -1.79732,-3.49399 -0.11799,-1.83848 -0.16418,-1.9581 -0.81915,-2.12113 -1.08486,-0.27005 -3.4304,-1.69567 -4.42307,-2.68834 -1.57811,-1.57811 -2.22416,-3.20886 -2.22416,-5.61419 0,-1.85657 0.10095,-2.29736 0.86353,-3.77046 1.88867,-3.64843 7.76735,-6.82792 12.64833,-6.84088 2.841589,-0.008 5.896159,1.39155 8.087929,3.70454 3.63328,3.83419 4.12782,10.0503 0.94204,11.84081 -0.55332,0.31098 -1.23792,0.82282 -1.52134,1.13741 -0.28341,0.31459 -0.78873,0.67654 -1.12294,0.80434 -0.52479,0.20067 -0.58434,0.35663 -0.43669,1.14365 0.30973,1.65102 0.26984,5.39153 -0.0611,5.7251 -0.36152,0.36444 -8.837989,0.50923 -10.136099,0.17314 z m 2.0676,-2.02554 c 0.14934,-1.56782 -0.18387,-2.65903 -0.91348,-2.99147 -0.5346,-0.24358 -0.71384,-0.22811 -0.90772,0.0783 -0.28524,0.45084 -0.33438,3.51623 -0.0608,3.78986 0.10391,0.10391 0.5504,0.15352 0.99219,0.11024 0.70311,-0.0689 0.81404,-0.19192 0.88977,-0.98695 z m 3.43225,-0.45808 c 0.10813,-1.86583 -0.48666,-3.26386 -1.3886,-3.26386 -1.19856,0 -1.73329,0.84347 -1.73329,2.73403 0,0.92163 0.0847,1.76042 0.18827,1.86397 0.10355,0.10355 0.78816,0.15316 1.52136,0.11024 l 1.33308,-0.078 z m 4.165139,0.95169 c 0.25601,-0.41423 -0.41112,-3.65184 -0.84108,-4.0818 -0.50991,-0.50991 -1.84387,-0.0266 -2.05021,0.74279 -0.20396,0.76055 -0.20504,2.67325 -0.002,3.20286 0.18784,0.48951 2.60442,0.60324 2.8931,0.13615 z m -10.360129,-8.73683 c 2.62375,-2.06384 1.59385,-6.00239 -1.76233,-6.73953 -2.99286,-0.65734 -4.47965,4.1031 -2.04263,6.54012 0.95849,0.95849 2.72242,1.05094 3.80496,0.19941 z m 10.216849,0.217 c 0.87739,-0.43472 1.85353,-2.42025 1.84627,-3.75543 -0.0165,-3.02466 -2.76472,-5.31783 -4.72645,-3.94377 -0.991469,0.69445 -1.605369,2.37901 -1.611929,4.42317 -0.005,1.71177 0.0441,1.86234 0.893769,2.71198 0.71405,0.71404 1.10968,0.89878 1.91823,0.89568 0.56026,-0.002 1.31631,-0.15138 1.68011,-0.33163 z"
       style="fill:#61605b;fill-opacity:1"
       id="path1-6" /></g></svg>
