<?xml version="1.0" encoding="UTF-8" standalone="no"?>
<!-- Created with Inkscape (http://www.inkscape.org/) -->

<svg
   width="500"
   height="500"
   viewBox="0 0 132.29166 132.29167"
   version="1.1"
   id="svg1"
   xml:space="preserve"
   xmlns="http://www.w3.org/2000/svg"
   xmlns:svg="http://www.w3.org/2000/svg"><defs
     id="defs1" /><g
     id="layer1"
     transform="translate(-83.244036,-344.50295)"><g
       id="g18"
       transform="translate(14.174576,17.081283)"
       style="display:none"><ellipse
         style="fill:#fefcfa;fill-opacity:1;stroke-width:0.152994"
         id="path18"
         cx="125.82098"
         cy="408.36765"
         rx="9.7400303"
         ry="7.3543329" /><ellipse
         style="fill:#62615c;fill-opacity:1;stroke-width:0.264583"
         id="ellipse18"
         cx="147.3038"
         cy="375.4487"
         rx="13.670912"
         ry="15.670526" /><path
         style="fill:#f1ca15"
         d="m 141.28467,442.57567 c -2.22544,-0.30892 -4.13478,-0.71772 -5.6482,-1.20929 -2.35623,-0.76534 -7.19301,-3.23108 -8.74593,-4.45859 -3.40701,-2.69309 -4.2454,-8.77921 -1.64209,-11.92031 1.07275,-1.29435 3.40076,-2.47375 6.44335,-3.26428 2.47746,-0.6437 3.83761,-0.86444 12.26603,-1.99068 2.19784,-0.29369 4.17601,-0.60302 4.39593,-0.68742 0.66853,-0.25654 1.01435,-1.39864 1.32599,-4.37921 0.3665,-3.50521 0.10891,-4.88033 -1.52373,-8.1343 -1.36651,-2.72354 -3.28941,-5.12652 -5.91536,-7.39223 -3.81328,-3.29014 -6.02278,-4.53078 -10.74557,-6.03365 -3.17233,-1.00949 -3.1795,-1.01042 -8.52446,-1.11079 l -5.34947,-0.10046 -0.17318,-0.92317 c -0.0953,-0.50774 -0.10507,-1.42174 -0.0218,-2.03111 1.26167,-9.2346 1.67256,-11.54971 2.7324,-15.39545 1.76318,-6.39784 6.13959,-14.15067 10.3924,-18.41021 3.45906,-3.46451 6.45767,-5.30347 12.67225,-7.7715 5.49694,-2.18303 8.74054,-2.86819 13.53958,-2.86 6.73357,0.0115 11.98679,1.73138 17.13339,5.60946 9.4107,7.09117 13.3001,18.53704 13.29033,39.11123 -0.005,11.45064 -1.75638,28.68836 -3.41191,33.58952 -1.82202,5.39408 -3.76237,8.44646 -6.58378,10.35702 -0.83068,0.5625 -2.52235,1.71257 -3.75928,2.5557 -4.08193,2.78238 -10.11035,5.14832 -15.875,6.2304 -2.45009,0.4599 -4.25372,0.58656 -9.26042,0.65032 -3.41973,0.0436 -6.57489,0.0296 -7.01145,-0.031 z m 1.48821,-71.09273 c 0.64817,-1.47122 0.772,-2.07234 0.70712,-3.43275 -0.0674,-1.41375 -0.15013,-1.64921 -0.57927,-1.64921 -0.91926,0 -1.59028,1.30522 -1.70379,3.31406 -0.11839,2.09516 0.12152,3.77433 0.52027,3.64141 0.14844,-0.0495 0.62349,-0.89256 1.05567,-1.87351 z m -5.71949,-1.0331 c 1.2939,-3.29794 1.12714,-5.52704 -0.35418,-4.73426 -0.77555,0.41505 -1.10308,1.69087 -1.10308,4.29676 0,2.96313 0.41722,3.08839 1.45726,0.4375 z"
         id="path15" /><path
         style="fill:#8b4cb3"
         d="m 109.91129,438.094 c -3.989,-0.83487 -7.31305,-1.94746 -9.23639,-3.09149 -1.627405,-0.96801 -4.223678,-2.97449 -4.230508,-3.26947 -0.01268,-0.5478 -1.210187,-1.39571 -2.711303,-1.91977 -0.832749,-0.29073 -2.916343,-1.29535 -4.630208,-2.2325 -1.713866,-0.93715 -3.693318,-1.92044 -4.398783,-2.18508 -0.705464,-0.26464 -1.343863,-0.64066 -1.418663,-0.83558 -0.202745,-0.52835 0.355498,-1.05617 1.318197,-1.24636 1.121204,-0.2215 3.343584,-1.76293 4.35335,-3.01945 1.167342,-1.4526 2.306953,-3.84826 2.981826,-6.26832 1.155805,-4.14466 2.883475,-7.15056 6.043519,-10.51488 6.772013,-7.20978 17.440103,-10.70101 27.427343,-8.97585 3.82015,0.65987 5.83371,1.29046 9.0185,2.82432 6.52837,3.1442 11.16217,8.37554 12.67218,14.30629 0.75122,2.95054 0.48485,5.44164 -0.61861,5.78506 -0.23901,0.0744 -2.05068,0.25682 -4.02593,0.4054 -5.07276,0.38159 -11.26059,1.64074 -13.68459,2.78465 -3.0975,1.46175 -5.83204,4.37679 -6.83406,7.28517 -0.72686,2.10973 0.44166,5.48472 2.86584,8.27728 0.74257,0.85541 1.23333,1.63649 1.10403,1.75714 -0.36664,0.34212 -7.19445,1.07237 -9.65173,1.03227 -1.35725,-0.0221 -3.82744,-0.37213 -6.34401,-0.89883 z m 12.99539,-24.33806 c 1.14403,-0.5916 1.87952,-2.2301 1.89096,-4.21262 0.0112,-1.94334 -0.51236,-3.13789 -1.62826,-3.71495 -2.28365,-1.18091 -3.97741,0.44502 -3.97741,3.81813 0,1.9519 0.62576,3.6086 1.55342,4.11266 0.89603,0.48687 1.21448,0.4864 2.16129,-0.003 z m 10.94223,-1.79834 c 0.73998,-0.9952 0.93266,-4.37664 0.33138,-5.81572 -0.69044,-1.65245 -2.58429,-1.98512 -3.484,-0.61199 -1.08599,1.65742 -0.96626,5.46927 0.21115,6.72257 0.80201,0.8537 2.19096,0.71447 2.94147,-0.29486 z"
         id="path14" /></g><g
       id="g25"
       transform="matrix(1.6172155,0,0,1.6172155,-491.45285,-461.15956)"
       style="display:none"><ellipse
         style="fill:#fefcfa;fill-opacity:1;stroke-width:0.150367"
         id="ellipse25"
         cx="407.7746"
         cy="547.19763"
         rx="11.440713"
         ry="11.593239" /><path
         style="fill:#8b4cb3"
         d="m 387.30738,574.4517 c -0.65484,-0.2136 -2.22818,-0.673 -3.4963,-1.02089 -1.26812,-0.34789 -2.57453,-0.82084 -2.90314,-1.051 -0.32861,-0.23017 -0.72904,-0.41849 -0.88985,-0.41849 -0.16081,0 -1.11659,-0.82387 -2.12394,-1.83082 -1.09017,-1.08974 -2.15286,-1.90675 -2.62531,-2.01838 -0.43656,-0.10316 -2.81781,-1.2149 -5.29167,-2.47055 -2.47385,-1.25564 -4.79557,-2.4012 -5.15937,-2.54568 -1.12583,-0.44711 -0.84713,-1.22949 0.62565,-1.75641 3.46826,-1.24085 5.98925,-4.35804 7.14969,-8.84052 2.52896,-9.76882 11.11974,-17.39625 22.22839,-19.73574 3.44299,-0.7251 8.79243,-0.78386 12.12053,-0.13314 10.64515,2.08136 18.88359,8.78658 21.01776,17.10624 0.58107,2.26521 0.58673,6.23974 0.0121,8.46667 -0.60747,2.35401 -2.57869,6.20515 -4.01874,7.85134 -0.65537,0.74919 -1.19303,1.46202 -1.19479,1.58406 -0.007,0.45331 -2.94056,2.20627 -3.69274,2.20627 -0.42104,0 -2.17271,0.52573 -3.89261,1.16828 -7.4785,2.79399 -11.95287,3.60579 -20.58958,3.73563 -4.82589,0.0725 -6.33184,0.0111 -7.27604,-0.29687 z m 16.61476,-22.74942 c 0.3261,-0.22841 0.87824,-0.97255 1.22697,-1.65365 0.34872,-0.68109 0.8911,-1.39368 1.20528,-1.58352 0.31418,-0.18984 0.74491,-0.76085 0.95719,-1.26891 0.51437,-1.23104 0.10448,-2.07732 -1.48336,-3.06262 -2.29585,-1.42464 -2.18678,-1.40531 -4.22741,-0.74916 -2.51702,0.80933 -3.30385,1.70301 -3.0899,3.50951 0.0858,0.72437 0.0231,1.56014 -0.14456,1.92819 -0.41162,0.90339 0.0774,1.87913 1.17326,2.34096 2.43756,1.02729 3.4992,1.15791 4.38253,0.5392 z m 10.94533,-1.59671 c 1.09502,-0.69101 1.80866,-1.5875 1.80866,-2.27205 0,-0.25419 0.24436,-0.93097 0.54303,-1.50397 0.50075,-0.96071 0.51267,-1.11445 0.15313,-1.97495 -0.41597,-0.99556 -1.5631,-1.76203 -2.63715,-1.76203 -0.35439,0 -0.98538,-0.17786 -1.4022,-0.39524 -0.91356,-0.47646 -1.52685,-0.50068 -2.2966,-0.0907 -0.93628,0.49867 -1.22152,1.06721 -1.23937,2.47033 -0.009,0.72854 -0.19137,1.55367 -0.40529,1.83651 -0.49166,0.65003 -0.49494,1.55574 -0.009,2.49538 0.51932,1.00426 1.09602,1.43752 2.37178,1.78186 1.27157,0.34321 1.79905,0.24407 3.11304,-0.58513 z"
         id="path19" /></g><g
       id="g12"
       transform="matrix(1.6108393,0,0,1.6108393,232.78932,-366.14701)"
       style="display:none;opacity:1"><ellipse
         style="fill:#fefcfa;fill-opacity:1;stroke-width:0.206155"
         id="ellipse8"
         cx="-36.996296"
         cy="494.39337"
         rx="15.201874"
         ry="10.746893" /><path
         style="fill:#8b4cb3"
         d="m -62.322162,517.49447 c -1.309687,-0.4288 -2.544955,-0.78671 -2.74504,-0.79537 -1.138923,-0.0493 -3.583728,-1.54088 -5.241398,-3.19788 -1.065248,-1.06482 -2.12797,-1.87976 -2.596895,-1.9914 -0.436563,-0.10394 -2.817813,-1.21662 -5.291667,-2.47262 -2.473854,-1.256 -4.794877,-2.40092 -5.157829,-2.54426 -0.95286,-0.3763 -0.996516,-1.11761 -0.08653,-1.46936 2.133543,-0.82471 3.656249,-1.77038 4.674827,-2.90328 1.333844,-1.48356 2.61348,-3.98033 3.188982,-6.22221 2.544917,-9.91379 11.451384,-17.65427 22.857331,-19.86496 3.001659,-0.58178 8.174988,-0.59192 11.304412,-0.0222 10.606543,1.93108 18.990538,8.70829 21.194823,17.13287 0.590577,2.25713 0.597754,6.21828 0.01533,8.45829 -0.619439,2.38234 -2.275356,5.63936 -3.86808,7.6081 -0.736387,0.91024 -1.338885,1.76187 -1.338885,1.89251 0,0.42424 -2.848085,2.14106 -3.55187,2.14106 -0.376238,0 -2.304457,0.59625 -4.284932,1.32501 -7.366172,2.71055 -11.503112,3.44644 -20.209031,3.59481 l -6.482292,0.11048 z m 20.95213,-17.38358 c 1.594006,-1.29013 2.332406,-2.999 2.325071,-5.38087 -0.0047,-1.53862 -0.139597,-2.24374 -0.593092,-3.10103 -1.324065,-2.50301 -3.96835,-4.05206 -5.97241,-3.49872 -1.399993,0.38656 -2.191318,1.16405 -3.134271,3.07946 -1.522054,3.09173 -1.302582,6.63314 0.516332,8.33158 1.332006,1.24378 2.17482,1.54562 4.08143,1.46169 1.520739,-0.0669 1.913182,-0.19301 2.77694,-0.89211 z m 13.924118,-0.3926 c 0.317855,-0.16298 0.962201,-0.66 1.431879,-1.10448 2.409359,-2.28012 2.334438,-8.08459 -0.139698,-10.82317 -1.215069,-1.34493 -2.126332,-1.79894 -3.610777,-1.79894 -1.634785,0 -3.142519,1.31946 -3.716555,3.25245 -0.453496,1.52708 -0.526974,5.40214 -0.129563,6.83284 0.804763,2.89721 3.96986,4.76673 6.164714,3.6413 z m -9.875814,-27.55107 c -1.963362,-1.33625 -2.501303,-3.15189 -1.724865,-5.8217 0.494938,-1.70187 0.918239,-2.04965 2.494706,-2.04965 0.824912,0 1.287318,0.19386 2.04118,0.85576 1.186545,1.0418 1.689587,2.17083 1.689587,3.79211 0,3.07343 -2.300317,4.72099 -4.500608,3.22348 z m -3.835266,-10.08546 c -0.973129,-1.48519 -3.04121,-12.04274 -3.04121,-15.52538 0,-2.85819 0.345156,-3.25256 2.947849,-3.36822 2.352189,-0.10452 3.326311,0.37988 4.250175,2.11348 0.581982,1.09207 0.608144,1.41765 0.693884,8.63527 0.08884,7.47871 0.08737,7.50226 -0.507942,8.13594 -0.507864,0.5406 -0.846116,0.63552 -2.264612,0.63552 -1.462051,0 -1.718173,-0.0772 -2.078144,-0.62661 z"
         id="path3" /></g><g
       id="g26"
       transform="matrix(1.023581,0,0,1.023581,-443.65533,-48.478004)"
       style="display:none;opacity:1"><ellipse
         style="fill:#62615c;fill-opacity:1;stroke-width:0.264583"
         id="path25"
         cx="594.7373"
         cy="432.19196"
         rx="20.511578"
         ry="20.020681" /><path
         style="fill:#f1ca16"
         d="m 588.17995,496.23317 c -7.40144,-0.70529 -15.23327,-3.60449 -19.97604,-7.39475 -1.0914,-0.87222 -2.25388,-1.65451 -2.58328,-1.73842 -0.69465,-0.17696 -2.15312,-2.62115 -2.99234,-5.01474 -0.90517,-2.58166 -2.37966,-10.57684 -2.62181,-14.21624 -0.23769,-3.57248 -0.0337,-7.78265 0.63241,-13.05348 0.62519,-4.94699 0.98169,-9.0839 0.80715,-9.36631 -0.16982,-0.27478 0.86782,-7.22802 1.77413,-11.88846 0.73065,-3.75714 2.27216,-8.35969 3.87165,-11.55971 5.35787,-10.71928 10.28052,-15.19963 21.15523,-19.25446 5.00266,-1.86533 7.02602,-2.29281 11.59078,-2.44881 3.14502,-0.10747 4.48347,-0.0387 6.35,0.3261 9.16238,1.79091 16.51567,7.56952 20.50487,16.11383 2.65938,5.696 3.95971,12.14455 4.51134,22.37241 0.3687,6.83608 0.0533,14.70013 -0.97637,24.34856 -1.10453,10.34933 -1.63053,13.28465 -3.03171,16.91802 -0.76838,1.99247 -0.88833,2.14898 -2.1874,2.85412 -0.75594,0.41033 -3.16038,2.12462 -5.34319,3.80955 -4.46379,3.44563 -6.28235,4.59431 -10.84792,6.85201 -3.51742,1.73938 -4.28342,1.91475 -10.31875,2.36235 -4.20151,0.3116 -6.88128,0.306 -10.31875,-0.0216 z m -1.41983,-68.77815 c 1.60643,-3.30789 0.99642,-6.87059 -0.78798,-4.60209 -0.69127,0.87881 -0.93322,2.42785 -0.70788,4.53205 0.21978,2.05226 0.52625,2.0666 1.49586,0.07 z m -5.61768,-1.36873 c 1.30725,-3.38328 1.13089,-5.57614 -0.36926,-4.59129 -0.79988,0.52512 -1.16069,1.89173 -1.17725,4.459 -0.0196,3.03189 0.41189,3.06879 1.54651,0.13229 z"
         id="path20" /></g><g
       id="g11"
       transform="matrix(1.0186324,0,0,1.0186324,-0.30859676,-66.084393)"
       style="opacity:1"><ellipse
         style="fill:#62615c;fill-opacity:1;stroke-width:0.264583"
         id="path8"
         cx="156.29158"
         cy="450.61758"
         rx="17.039473"
         ry="15.792902" /><path
         style="fill:#f2ca15"
         d="m 157.01742,515.97537 c -5.04957,-0.42883 -8.14768,-1.1187 -12.30312,-2.73962 -3.62071,-1.41233 -6.58851,-3.04296 -8.87324,-4.87531 -1.01331,-0.81268 -2.10683,-1.54671 -2.43004,-1.63118 -0.63309,-0.16545 -1.5487,-1.62155 -2.64171,-4.2011 -0.74453,-1.75713 -2.27052,-8.62462 -1.98108,-8.91555 0.10085,-0.10136 1.49304,-0.37383 3.09377,-0.60549 8.9592,-1.29655 14.70527,-2.56726 20.62544,-4.56118 3.99799,-1.34653 6.04601,-2.48865 6.18218,-3.44761 0.15021,-1.05779 -0.63008,-0.93045 -3.43268,0.56022 -3.88616,2.06699 -10.03693,3.64693 -17.68639,4.54309 -1.96454,0.23015 -5.41735,0.67012 -7.67292,0.97771 -5.94415,0.81059 -6.20191,0.81967 -9.67096,0.34066 -4.52636,-0.62501 -6.15618,-1.44866 -7.33833,-3.70852 -0.46072,-0.88074 -0.55276,-1.5245 -0.54852,-3.83645 0.005,-2.93597 0.4784,-4.99635 1.47275,-6.41513 0.64123,-0.91494 2.29738,-1.88043 4.17881,-2.43613 1.27121,-0.37546 7.52816,-1.19215 9.19427,-1.20008 1.26722,-0.006 1.53769,-0.69663 1.89521,-4.83908 0.18372,-2.12871 0.26751,-3.97805 0.18619,-4.10963 -0.0813,-0.13158 0.0773,-1.59563 0.35252,-3.25345 0.27521,-1.65781 0.6368,-3.96671 0.80353,-5.13088 0.81926,-5.72022 2.64139,-11.42429 5.18855,-16.24246 4.9919,-9.44259 9.85146,-13.76938 19.76252,-17.5959 5.33462,-2.05962 8.86983,-2.80643 13.28492,-2.80643 13.52081,0 24.26553,8.73834 28.05083,22.81286 1.27885,4.75504 1.86303,9.06531 2.24646,16.57519 0.31529,6.17527 0.0406,13.7193 -0.80557,22.12757 -1.09173,10.84773 -1.84263,15.14458 -3.26977,18.71044 -0.78032,1.94973 -0.99092,2.24615 -1.90788,2.68537 -0.56691,0.27155 -2.81668,1.87689 -4.99949,3.56742 -4.47121,3.46285 -6.79097,4.93362 -11.37708,7.21327 -2.1131,1.05037 -3.70595,1.659 -4.7625,1.81973 -4.09032,0.62228 -11.24847,0.92067 -14.81667,0.61765 z m -1.31594,-67.41143 c 1.02582,-1.08769 1.9774,-3.71058 1.9774,-5.45043 0,-1.58401 -0.7524,-2.63014 -1.89164,-2.63014 -1.6739,0 -2.96054,2.32713 -3.31472,5.99528 -0.14537,1.50564 -0.10519,1.68181 0.5281,2.3151 0.9257,0.9257 1.67087,0.86229 2.70086,-0.22981 z m -7.19861,-1.03317 c 0.3435,-0.52425 0.69026,-1.78426 1.24773,-4.53386 0.16412,-0.8095 0.0984,-1.32272 -0.27932,-2.18281 -0.41662,-0.94854 -0.6132,-1.12448 -1.2564,-1.12448 -1.43174,0 -2.56366,1.99212 -2.8864,5.07991 -0.19358,1.85212 0.22058,3.00314 1.1984,3.33053 0.91542,0.30649 1.51543,0.13363 1.97599,-0.56929 z m -29.34559,25.62224 c -1.7898,-0.91067 -2.57033,-3.65616 -1.84492,-6.48949 0.95319,-3.72301 2.40021,-5.74416 4.54172,-6.34375 2.33762,-0.65449 5.92259,0.32403 6.47092,1.76625 0.2667,0.70147 -0.6271,8.25913 -1.07489,9.0888 -0.59133,1.09567 -1.56017,1.63406 -3.34552,1.85914 -0.99669,0.12566 -2.28842,0.29755 -2.8705,0.38198 -0.70586,0.10239 -1.33092,0.0148 -1.87681,-0.26293 z"
         id="path4" /></g></g></svg>
