<?xml version="1.0" encoding="UTF-8" standalone="no"?>
<!-- Created with Inkscape (http://www.inkscape.org/) -->

<svg
   width="86.743416mm"
   height="96.248878mm"
   viewBox="0 0 86.743416 96.248878"
   version="1.1"
   id="svg1"
   xml:space="preserve"
   xmlns:inkscape="http://www.inkscape.org/namespaces/inkscape"
   xmlns:sodipodi="http://sodipodi.sourceforge.net/DTD/sodipodi-0.dtd"
   xmlns="http://www.w3.org/2000/svg"
   xmlns:svg="http://www.w3.org/2000/svg"><sodipodi:namedview
     id="namedview1"
     pagecolor="#ffffff"
     bordercolor="#000000"
     borderopacity="0.25"
     inkscape:showpageshadow="2"
     inkscape:pageopacity="0.0"
     inkscape:pagecheckerboard="0"
     inkscape:deskcolor="#d1d1d1"
     inkscape:document-units="mm" /><defs
     id="defs1" /><g
     inkscape:label="Layer 1"
     inkscape:groupmode="layer"
     id="layer1"
     transform="translate(-112.33969,-419.84587)"><g
       id="g11"
       inkscape:export-filename="./god-hug.svg"
       inkscape:export-xdpi="96"
       inkscape:export-ydpi="96"><ellipse
         style="fill:#62615c;fill-opacity:1;stroke-width:0.264583"
         id="path8"
         cx="156.29158"
         cy="450.61758"
         rx="17.039473"
         ry="15.792902" /><path
         style="fill:#f2ca15"
         d="m 157.01742,515.97537 c -5.04957,-0.42883 -8.14768,-1.1187 -12.30312,-2.73962 -3.62071,-1.41233 -6.58851,-3.04296 -8.87324,-4.87531 -1.01331,-0.81268 -2.10683,-1.54671 -2.43004,-1.63118 -0.63309,-0.16545 -1.5487,-1.62155 -2.64171,-4.2011 -0.74453,-1.75713 -2.27052,-8.62462 -1.98108,-8.91555 0.10085,-0.10136 1.49304,-0.37383 3.09377,-0.60549 8.9592,-1.29655 14.70527,-2.56726 20.62544,-4.56118 3.99799,-1.34653 6.04601,-2.48865 6.18218,-3.44761 0.15021,-1.05779 -0.63008,-0.93045 -3.43268,0.56022 -3.88616,2.06699 -10.03693,3.64693 -17.68639,4.54309 -1.96454,0.23015 -5.41735,0.67012 -7.67292,0.97771 -5.94415,0.81059 -6.20191,0.81967 -9.67096,0.34066 -4.52636,-0.62501 -6.15618,-1.44866 -7.33833,-3.70852 -0.46072,-0.88074 -0.55276,-1.5245 -0.54852,-3.83645 0.005,-2.93597 0.4784,-4.99635 1.47275,-6.41513 0.64123,-0.91494 2.29738,-1.88043 4.17881,-2.43613 1.27121,-0.37546 7.52816,-1.19215 9.19427,-1.20008 1.26722,-0.006 1.53769,-0.69663 1.89521,-4.83908 0.18372,-2.12871 0.26751,-3.97805 0.18619,-4.10963 -0.0813,-0.13158 0.0773,-1.59563 0.35252,-3.25345 0.27521,-1.65781 0.6368,-3.96671 0.80353,-5.13088 0.81926,-5.72022 2.64139,-11.42429 5.18855,-16.24246 4.9919,-9.44259 9.85146,-13.76938 19.76252,-17.5959 5.33462,-2.05962 8.86983,-2.80643 13.28492,-2.80643 13.52081,0 24.26553,8.73834 28.05083,22.81286 1.27885,4.75504 1.86303,9.06531 2.24646,16.57519 0.31529,6.17527 0.0406,13.7193 -0.80557,22.12757 -1.09173,10.84773 -1.84263,15.14458 -3.26977,18.71044 -0.78032,1.94973 -0.99092,2.24615 -1.90788,2.68537 -0.56691,0.27155 -2.81668,1.87689 -4.99949,3.56742 -4.47121,3.46285 -6.79097,4.93362 -11.37708,7.21327 -2.1131,1.05037 -3.70595,1.659 -4.7625,1.81973 -4.09032,0.62228 -11.24847,0.92067 -14.81667,0.61765 z m -1.31594,-67.41143 c 1.02582,-1.08769 1.9774,-3.71058 1.9774,-5.45043 0,-1.58401 -0.7524,-2.63014 -1.89164,-2.63014 -1.6739,0 -2.96054,2.32713 -3.31472,5.99528 -0.14537,1.50564 -0.10519,1.68181 0.5281,2.3151 0.9257,0.9257 1.67087,0.86229 2.70086,-0.22981 z m -7.19861,-1.03317 c 0.3435,-0.52425 0.69026,-1.78426 1.24773,-4.53386 0.16412,-0.8095 0.0984,-1.32272 -0.27932,-2.18281 -0.41662,-0.94854 -0.6132,-1.12448 -1.2564,-1.12448 -1.43174,0 -2.56366,1.99212 -2.8864,5.07991 -0.19358,1.85212 0.22058,3.00314 1.1984,3.33053 0.91542,0.30649 1.51543,0.13363 1.97599,-0.56929 z m -29.34559,25.62224 c -1.7898,-0.91067 -2.57033,-3.65616 -1.84492,-6.48949 0.95319,-3.72301 2.40021,-5.74416 4.54172,-6.34375 2.33762,-0.65449 5.92259,0.32403 6.47092,1.76625 0.2667,0.70147 -0.6271,8.25913 -1.07489,9.0888 -0.59133,1.09567 -1.56017,1.63406 -3.34552,1.85914 -0.99669,0.12566 -2.28842,0.29755 -2.8705,0.38198 -0.70586,0.10239 -1.33092,0.0148 -1.87681,-0.26293 z"
         id="path4"
         inkscape:export-filename="god-hug.svg"
         inkscape:export-xdpi="96"
         inkscape:export-ydpi="96" /></g></g></svg>
