<?xml version="1.0" encoding="UTF-8" standalone="no"?>
<!-- Created with Inkscape (http://www.inkscape.org/) -->

<svg
   width="45.858253mm"
   height="77.938461mm"
   viewBox="0 0 45.858253 77.938461"
   version="1.1"
   id="svg1"
   xml:space="preserve"
   xmlns:inkscape="http://www.inkscape.org/namespaces/inkscape"
   xmlns:sodipodi="http://sodipodi.sourceforge.net/DTD/sodipodi-0.dtd"
   xmlns="http://www.w3.org/2000/svg"
   xmlns:svg="http://www.w3.org/2000/svg"><sodipodi:namedview
     id="namedview1"
     pagecolor="#ffffff"
     bordercolor="#000000"
     borderopacity="0.25"
     inkscape:showpageshadow="2"
     inkscape:pageopacity="0.0"
     inkscape:pagecheckerboard="0"
     inkscape:deskcolor="#d1d1d1"
     inkscape:document-units="mm" /><defs
     id="defs1" /><g
     inkscape:label="Layer 1"
     inkscape:groupmode="layer"
     id="layer1"
     transform="translate(156.00722,-786.12003)"><path
       style="fill:#9452b4"
       d="m -139.62954,863.82474 c -1.89751,-0.63703 -3.45207,-2.95345 -3.45207,-5.14387 0,-2.15389 1.74429,-4.89253 3.79874,-5.96427 2.26215,-1.18009 5.38628,-0.51419 6.90028,1.47078 1.37954,1.80866 1.39164,5.29096 0.0256,7.35523 -1.22973,1.85825 -5.0057,3.04315 -7.27253,2.28213 z m 0.59275,-18.45433 c -2.25653,-0.31798 -3.38134,-0.90364 -3.92143,-2.0418 -0.56592,-1.19258 -0.44661,-2.14474 1.05316,-8.40525 0.6282,-2.62228 1.63374,-6.93951 2.23453,-9.59386 1.7914,-7.91454 2.12299,-8.45926 6.54653,-10.75428 2.79463,-1.44991 5.00933,-3.15903 6.06216,-4.67827 1.57145,-2.2676 1.07462,-6.82827 -0.95411,-8.75835 -2.49312,-2.37189 -7.40476,-1.80888 -10.4065,1.19286 -1.44079,1.44079 -2.85999,4.1421 -2.85999,5.44371 0,1.43396 -0.58911,2.35751 -1.60139,2.5105 -1.38286,0.20901 -2.92053,0.46236 -3.70583,0.61059 -0.99594,0.18798 -4.56808,-0.68458 -5.57187,-1.36104 -1.17971,-0.795 -3.20379,-4.27322 -3.61538,-6.21273 -0.19112,-0.90057 -0.28016,-2.33871 -0.20206,-3.2635 0.58031,-6.87149 6.72802,-11.66791 17.26299,-13.46853 4.26915,-0.72967 11.50099,-0.59204 14.94896,0.28451 6.88951,1.75147 11.44251,6.06268 13.15529,12.45665 0.61994,2.3143 0.61639,7.41408 -0.007,9.78959 -1.55482,5.92663 -6.2874,11.08789 -12.94275,14.11512 -2.25888,1.02747 -2.46235,1.26314 -4.14636,4.80258 -1.09845,2.30872 -1.74689,4.4856 -2.00971,6.74688 -0.46663,4.01486 -1.21429,9.01631 -1.43434,9.5951 -0.13623,0.35831 -0.44527,0.7273 -0.68676,0.81996 -0.77514,0.29745 -5.5008,0.40876 -7.19832,0.16956 z"
       id="path20"
       sodipodi:nodetypes="ssssssscsssssssssssssssscssssscc" /></g></svg>
