<?xml version="1.0" encoding="UTF-8" standalone="no"?>
<!-- Created with Inkscape (http://www.inkscape.org/) -->

<svg
   width="129.58293mm"
   height="135.3634mm"
   viewBox="0 0 129.58293 135.3634"
   version="1.1"
   id="svg1"
   xml:space="preserve"
   xmlns:inkscape="http://www.inkscape.org/namespaces/inkscape"
   xmlns:sodipodi="http://sodipodi.sourceforge.net/DTD/sodipodi-0.dtd"
   xmlns="http://www.w3.org/2000/svg"
   xmlns:svg="http://www.w3.org/2000/svg"><sodipodi:namedview
     id="namedview1"
     pagecolor="#ffffff"
     bordercolor="#000000"
     borderopacity="0.25"
     inkscape:showpageshadow="2"
     inkscape:pageopacity="0.0"
     inkscape:pagecheckerboard="0"
     inkscape:deskcolor="#d1d1d1"
     inkscape:document-units="mm" /><defs
     id="defs1" /><g
     inkscape:label="Layer 1"
     inkscape:groupmode="layer"
     id="layer1"
     transform="translate(-12.66412,-365.70821)"><path
       style="fill:#ffffff"
       d="m 20.130042,500.84585 c -3.286375,-0.66024 -6.284295,-3.52327 -7.195773,-6.872 -0.251273,-0.92316 -0.30724,-11.53253 -0.249141,-47.22812 l 0.07493,-46.0375 0.706485,-1.50719 c 0.901234,-1.92267 2.742814,-3.76425 4.665483,-4.66549 l 1.507198,-0.70648 h 25.929167 25.929166 l 1.322916,0.66146 c 1.656477,0.82823 3.787956,2.936 4.548514,4.49791 0.318871,0.65485 0.704925,1.96453 0.857898,2.91042 0.350918,2.16985 0.381903,88.26889 0.03263,90.68372 -0.502051,3.47116 -2.421923,6.08458 -5.571339,7.58397 l -1.719791,0.81876 -24.870832,0.0404 c -13.678958,0.0222 -25.36434,-0.0587 -25.967516,-0.17989 z m 27.290432,-4.99236 c 2.011438,-0.93126 3.042709,-2.51934 3.042709,-4.68553 0,-2.05238 -1.520074,-4.15763 -3.420038,-4.73664 -2.054468,-0.62609 -4.591917,0.25218 -5.739747,1.98667 -2.757067,4.16621 1.638412,9.50905 6.117076,7.4355 z M 68.719432,442.5124 V 403.22178 H 45.4361 22.152767 v 39.29062 39.29062 H 45.4361 68.719432 Z m 16.668749,58.40728 c 0,-0.11742 0.186343,-0.47954 0.414097,-0.80471 0.690414,-0.9857 1.638244,-4.0285 1.974764,-6.33955 l 0.317848,-2.18282 h 22.32685 22.32685 V 468.17698 444.76136 H 110.3913 88.034014 v -4.7625 -4.7625 h 22.608846 c 23.45083,0 24.31015,0.0362 26.44279,1.11548 1.69887,0.85972 3.46366,2.71381 4.29378,4.51106 l 0.76187,1.6495 0.0759,25.13541 c 0.0797,26.42598 0.0827,26.34871 -1.09492,28.44271 -0.90451,1.60837 -2.81301,3.36431 -4.50797,4.14763 l -1.61671,0.74716 -24.80468,0.0739 c -13.642578,0.0407 -24.804689,-0.0222 -24.804689,-0.13957 z m 28.971869,-86.32807 c -0.29104,-0.11511 -3.05924,-2.75652 -6.15156,-5.86978 -7.14415,-7.19254 -7.1789,-7.35214 -1.60073,-7.35214 h 3.38667 l -3.6e-4,-0.85989 c -6.2e-4,-1.45807 -0.72096,-5.04819 -1.45262,-7.23964 -1.30514,-3.90919 -3.79117,-7.74271 -6.95449,-10.72402 -4.501908,-4.24288 -9.652818,-6.50594 -16.419132,-7.21379 -3.810594,-0.39864 -4.800728,-0.78048 -5.775804,-2.22739 -1.251758,-1.85749 -1.005019,-4.40395 0.580333,-5.9893 1.405461,-1.40546 2.480602,-1.61573 6.381684,-1.24808 7.143581,0.67324 13.119081,2.95098 18.635939,7.10366 8.35238,6.28704 13.64436,15.86814 14.43325,26.1313 l 0.17426,2.26715 h 3.47993 c 3.52282,0 4.11492,0.1484 4.11492,1.03135 0,0.38478 -11.11041,11.75585 -11.90625,12.18557 -0.21828,0.11787 -0.635,0.12012 -0.92604,0.005 z"
       id="path1" /></g></svg>
