<?xml version="1.0" encoding="UTF-8" standalone="no"?>
<!-- Created with Inkscape (http://www.inkscape.org/) -->

<svg
   width="119.74941mm"
   height="102.06312mm"
   viewBox="0 0 119.74941 102.06312"
   version="1.1"
   id="svg1"
   xml:space="preserve"
   sodipodi:docname="stone-fall.svg"
   xmlns:inkscape="http://www.inkscape.org/namespaces/inkscape"
   xmlns:sodipodi="http://sodipodi.sourceforge.net/DTD/sodipodi-0.dtd"
   xmlns="http://www.w3.org/2000/svg"
   xmlns:svg="http://www.w3.org/2000/svg"><sodipodi:namedview
     id="namedview1"
     pagecolor="#ffffff"
     bordercolor="#000000"
     borderopacity="0.25"
     inkscape:showpageshadow="2"
     inkscape:pageopacity="0.0"
     inkscape:pagecheckerboard="0"
     inkscape:deskcolor="#d1d1d1"
     inkscape:document-units="mm"
     showguides="true"><sodipodi:guide
       position="15.110148,594.15658"
       orientation="0,-1"
       id="guide8"
       inkscape:locked="false" /></sodipodi:namedview><defs
     id="defs1" /><g
     inkscape:label="Layer 1"
     inkscape:groupmode="layer"
     id="layer1"
     transform="translate(-122.1718,-501.11833)"><path
       style="fill:#8b4cb4"
       d="m 131.27478,526.36337 -0.50403,-0.59531 0.59532,0.50403 c 0.55944,0.47366 0.71576,0.6866 0.50402,0.6866 -0.0502,0 -0.31809,-0.26789 -0.59531,-0.59532 z m -91.520694,-1.78091 c -1.646301,-0.12709 -3.445459,-0.46646 -4.7625,-0.89835 -1.164166,-0.38176 -2.272867,-0.69412 -2.46378,-0.69414 -0.922328,-9e-5 -3.350774,-1.50914 -4.946557,-3.07382 -1.312761,-1.28717 -2.141416,-1.86296 -3.210345,-2.23073 -0.792462,-0.27265 -2.953716,-1.31943 -4.802787,-2.3262 -1.849071,-1.00676 -3.798908,-1.96998 -4.33297,-2.14049 -0.534063,-0.17052 -1.101664,-0.46744 -1.261336,-0.65983 -0.382226,-0.46056 -0.0793,-1.21063 0.488925,-1.21063 0.924264,0 3.182953,-1.38749 4.46441,-2.74244 1.636811,-1.73069 2.398497,-3.20969 3.493016,-6.78256 1.087462,-3.54983 2.473235,-6.21594 4.635713,-8.9187 3.82918,-4.78588 9.384209,-8.29507 15.927725,-10.06176 2.395475,-0.64676 2.991248,-0.69964 7.882986,-0.69964 4.86847,0 5.495004,0.055 7.834196,0.68726 5.617776,1.51851 10.281696,4.1671 13.773284,7.82171 7.291773,7.63221 7.609848,17.54605 0.819623,25.54617 -0.761968,0.89774 -1.387046,1.72155 -1.389062,1.83069 -0.002,0.10914 -0.165645,0.19844 -0.363619,0.19844 -0.197974,0 -0.798574,0.29765 -1.334666,0.66146 -0.536093,0.3638 -1.150256,0.66145 -1.364808,0.66145 -0.214552,0 -1.251061,0.3103 -2.303354,0.68956 -5.034471,1.81446 -7.268812,2.52789 -9.411766,3.00523 -5.237321,1.16659 -12.420637,1.71956 -17.372328,1.33732 z m 14.392383,-23.69444 c 0.451638,-0.51438 0.821159,-1.11447 0.821159,-1.33353 0,-0.21906 0.470405,-0.83999 1.045345,-1.37986 1.787558,-1.6785 1.630142,-2.9998 -0.516178,-4.33263 -2.128285,-1.32163 -2.270745,-1.34612 -4.198653,-0.72198 -1.078183,0.34905 -2.038474,0.86664 -2.491249,1.34277 -0.643773,0.67698 -0.731515,0.96499 -0.6951,2.28169 0.02292,0.8288 -0.04118,1.80722 -0.142446,2.17427 -0.262461,0.95129 0.659067,2.04142 1.916517,2.26715 0.539397,0.0968 1.159316,0.27623 1.377597,0.39867 0.93709,0.52562 2.044939,0.25796 2.883008,-0.69655 z m 10.152979,-0.82792 c 1.302223,-0.82008 1.716715,-1.29252 1.935066,-2.20558 0.087,-0.3638 0.399428,-1.13799 0.694285,-1.72041 0.495608,-0.97896 0.506248,-1.13041 0.140851,-2.00493 -0.403513,-0.96574 -1.71864,-1.83091 -2.783134,-1.83091 -0.287658,0 -0.955276,-0.18061 -1.483596,-0.40136 -1.851846,-0.77375 -3.337375,0.30821 -3.337375,2.43073 0,0.64033 -0.193798,1.46002 -0.430663,1.82152 -0.857959,1.30941 0.407975,4.07982 1.869226,4.09066 0.300197,0.002 0.724405,0.11947 0.942687,0.26053 0.646511,0.41781 1.266975,0.30644 2.452653,-0.44025 z m 78.001572,19.33591 c 0.0127,-0.30822 0.0754,-0.37092 0.15985,-0.15985 0.0764,0.191 0.067,0.4192 -0.0209,0.50712 -0.0879,0.0879 -0.15045,-0.0684 -0.13896,-0.34727 z m -33.14342,-0.55556 c 0.191,-0.0764 0.4192,-0.067 0.50712,0.0209 0.0879,0.0879 -0.0684,0.15046 -0.34727,0.13897 -0.30822,-0.0127 -0.37092,-0.0754 -0.15985,-0.15985 z m -1.86553,-0.27098 c 0.32912,-0.0633 0.80537,-0.0609 1.05833,0.005 0.25296,0.0662 -0.0163,0.11801 -0.5984,0.11507 -0.58208,-0.003 -0.78905,-0.0571 -0.45993,-0.12041 z m 33.72652,-4.57537 c 0,-0.50932 0.0545,-0.71768 0.121,-0.46302 0.0666,0.25466 0.0666,0.67138 0,0.92604 -0.0666,0.25467 -0.121,0.0463 -0.121,-0.46302 z m -18.84679,-5.65614 c 0,-0.0549 0.20835,-0.2633 0.46302,-0.46302 0.41964,-0.32911 0.429,-0.31975 0.0999,0.0999 -0.34565,0.44073 -0.56292,0.58089 -0.56292,0.36313 z m 16.99471,-5.72094 c 0,-0.50932 0.0545,-0.71768 0.121,-0.46302 0.0666,0.25466 0.0666,0.67138 0,0.92604 -0.0666,0.25466 -0.121,0.0463 -0.121,-0.46302 z"
       id="path3" /><g
       id="g7"
       inkscape:export-filename="stone-fall.svg"
       inkscape:export-xdpi="96"
       inkscape:export-ydpi="96"
       transform="matrix(1.4744722,0,0,1.4744722,-57.96712,-237.76671)"><path
         style="fill:#23b9d8"
         d="m 153.52492,544.99158 c -1.18462,-0.72526 -2.74761,-2.572 -3.33337,-3.93852 -0.54087,-1.2618 -2.53412,-7.31869 -3.25855,-9.90176 -1.03409,-3.6872 -0.10803,-5.48205 3.37864,-6.54833 3.31195,-1.01286 6.02319,-0.63151 8.33928,1.17294 1.36556,1.06389 1.5544,1.09236 2.73023,0.41158 0.48126,-0.27864 1.7958,-0.65185 2.9212,-0.82935 2.53618,-0.40002 4.0048,-0.0624 5.33086,1.22544 1.18188,1.14782 1.56729,2.38347 1.44093,4.61971 -0.13896,2.45915 -0.66588,3.03011 -2.99731,3.24782 -1.85199,0.17294 -3.57649,0.91075 -4.19599,1.79521 -0.41604,0.59398 -0.21948,1.45342 0.54316,2.37487 0.63661,0.76918 0.39165,2.13795 -0.65455,3.6575 -1.10962,1.61168 -2.02735,2.08197 -5.43713,2.78628 -2.6174,0.54064 -3.83483,0.52205 -4.8074,-0.0734 z"
         id="path5" /><path
         style="fill:#22d7a0"
         d="m 184.992,569.73663 c -1.77184,-0.84618 -5.28473,-3.93288 -5.94187,-5.221 -0.78023,-1.52936 -0.6769,-1.97084 0.67973,-2.90423 1.6903,-1.16295 4.72385,-4.28957 5.31385,-5.47687 1.12059,-2.25503 0.3572,-5.73937 -1.37027,-6.25435 -1.74488,-0.52016 -1.97039,-0.67614 -1.97039,-1.36282 0,-2.18988 3.86014,-5.94826 6.10931,-5.94826 2.77045,0 4.93387,1.0458 8.97023,4.33619 3.61965,2.9507 5.76348,5.14877 6.24085,6.39873 1.07464,2.81392 -0.30882,7.29659 -3.15906,10.23588 -1.72513,1.77904 -5.98291,5.06953 -7.71029,5.95867 -1.9757,1.01695 -5.2998,1.12744 -7.16209,0.23806 z m -27.94481,-24.43785 c 0.19099,-0.0764 0.4192,-0.067 0.50711,0.0209 0.0879,0.0879 -0.0683,0.15045 -0.34726,0.13896 -0.30823,-0.0127 -0.37092,-0.0754 -0.15985,-0.15985 z m 1.5875,-0.26458 c 0.19099,-0.0764 0.4192,-0.067 0.50711,0.0209 0.0879,0.0879 -0.0684,0.15046 -0.34726,0.13897 -0.30823,-0.0127 -0.37092,-0.0754 -0.15985,-0.15985 z m 2.16345,-0.57865 c 0.79881,-0.2888 1.49993,-0.47754 1.55804,-0.41942 0.14575,0.14575 -1.25228,0.66059 -2.21668,0.81632 -0.43656,0.0705 -0.14017,-0.10811 0.65864,-0.3969 z m 3.99246,-4.68662 c 0.0127,-0.30822 0.0754,-0.37092 0.15985,-0.15985 0.0764,0.19099 0.067,0.4192 -0.0209,0.50712 -0.0879,0.0879 -0.15045,-0.0684 -0.13896,-0.34727 z m -0.55536,-1.30726 c -0.18408,-0.2218 -0.28345,-0.45451 -0.22082,-0.51714 0.0626,-0.0626 0.2592,0.11885 0.43682,0.40327 0.38413,0.61509 0.25602,0.68262 -0.216,0.11387 z"
         id="path4" /><path
         style="fill:#2948d4"
         d="m 131.7306,526.54966 c -0.83361,-0.70144 -3.35156,-5.2139 -5.8249,-10.43889 -0.79217,-1.67349 -1.95637,-3.87307 -2.58711,-4.88795 -0.63074,-1.01488 -1.14679,-2.04609 -1.14679,-2.29158 0,-0.24549 0.35379,-0.74404 0.7862,-1.1079 1.04258,-0.87727 6.73562,-3.75386 10.84197,-5.47825 2.87466,-1.20716 3.41305,-1.35362 4.23085,-1.15093 0.86991,0.2156 0.94983,0.32202 1.11553,1.48546 0.25989,1.82483 0.92048,3.65018 1.85333,5.12113 0.79777,1.25795 0.81034,1.32617 0.48112,2.61072 -0.53169,2.07456 -0.43387,5.32716 0.20768,6.90549 0.62872,1.54677 0.96413,3.55532 0.66525,3.98378 -0.28886,0.41411 -6.55879,4.52498 -8.06845,5.29007 -1.54588,0.78344 -1.57527,0.78296 -2.55468,-0.0412 z"
         id="path2" /></g></g></svg>
